{
.appVersion = "3343";
.formatVersion = 3;
DisplayStrings = (
ABCDEFGHIJKLMNOPQRSTUVWXYZ
);
customParameters = (
{
name = "Disable Subroutines";
value = 1;
}
);
date = "2022-03-08 04:17:01 +0000";
familyName = "TMT Urging Osmosis K";
fontMaster = (
{
customParameters = (
{
name = typoAscender;
value = 891;
},
{
name = typoDescender;
value = -200;
},
{
name = typoLineGap;
value = 0;
},
{
name = winAscent;
value = 1094;
},
{
name = winDescent;
value = 197;
},
{
name = hheaAscender;
value = 891;
},
{
name = hheaDescender;
value = -200;
},
{
name = strikeoutPosition;
value = 258;
},
{
name = strikeoutSize;
value = 49;
}
);
id = m01;
metricValues = (
{
pos = 891;
},
{
pos = 693;
},
{
pos = 700;
},
{
},
{
pos = -200;
},
{
}
);
name = Regular;
}
);
glyphs = (
{
glyphname = A;
lastChange = "2022-12-26 01:23:54 +0000";
layers = (
{
layerId = m01;
shapes = (
{
closed = 1;
nodes = (
(-2,10,o),
(26,12,o),
(52,30,cs),
(65,38,o),
(76,48,o),
(87,60,cs),
(95,70,o),
(108,69,o),
(110,95,c),
(110,95,o),
(111,95,o),
(111,96,c),
(126,114,l),
(147,147,l),
(156,163,ls),
(157,165,o),
(159,168,o),
(161,170,cs),
(164,174,o),
(168,175,o),
(170,180,c),
(178,192,o),
(185,206,o),
(191,220,cs),
(197,235,o),
(203,244,o),
(213,244,cs),
(214,244,o),
(216,247,o),
(217,249,cs),
(220,260,o),
(227,269,o),
(238,272,cs),
(244,274,o),
(251,275,o),
(258,276,cs),
(261,277,o),
(264,281,o),
(267,282,cs),
(269,283,o),
(271,284,o),
(273,282,cs),
(280,274,o),
(284,263,o),
(285,251,cs),
(285,247,o),
(286,243,o),
(287,239,cs),
(295,214,o),
(303,190,o),
(310,164,cs),
(331,90,l),
(331,88,o),
(332,86,o),
(333,84,cs),
(338,74,o),
(344,77,o),
(349,75,cs),
(355,72,o),
(362,66,o),
(369,65,cs),
(382,63,o),
(396,62,o),
(410,62,c),
(417,63,o),
(423,67,o),
(430,69,cs),
(440,72,o),
(450,74,o),
(461,76,c),
(463,77,o),
(466,78,o),
(467,80,c),
(475,88,o),
(482,86,o),
(490,75,c),
(496,87,o),
(496,88,o),
(491,100,c),
(488,94,o),
(488,96,o),
(484,100,cs),
(479,107,o),
(473,113,o),
(466,118,cs),
(455,127,o),
(444,135,o),
(432,144,cs),
(425,149,o),
(418,155,o),
(410,160,cs),
(405,164,o),
(401,166,o),
(396,169,c),
(383,180,o),
(370,194,o),
(356,202,cs),
(342,210,o),
(334,235,o),
(327,260,cs),
(324,268,o),
(323,273,o),
(319,275,c),
(317,275,o),
(314,280,o),
(312,284,cs),
(308,294,o),
(305,305,o),
(302,315,c),
(298,323,o),
(298,333,o),
(302,341,cs),
(306,348,o),
(312,351,o),
(313,365,cs),
(313,371,o),
(315,377,o),
(316,383,cs),
(320,396,o),
(323,409,o),
(326,422,cs),
(327,430,o),
(329,433,o),
(332,434,cs),
(336,436,o),
(339,439,o),
(341,443,cs),
(343,446,o),
(343,452,o),
(345,456,cs),
(347,460,o),
(350,464,o),
(353,468,cs),
(356,473,o),
(359,478,o),
(363,483,c),
(377,495,l),
(377,499,l),
(370,495,o),
(362,522,o),
(356,507,c),
(350,518,l),
(353,523,o),
(356,528,o),
(359,534,cs),
(363,542,o),
(368,544,o),
(373,535,cs),
(383,517,o),
(392,516,o),
(401,521,c),
(405,521,ls),
(407,521,o),
(408,521,o),
(409,520,cs),
(421,508,ls),
(422,507,o),
(424,508,o),
(424,510,cs),
(425,514,o),
(424,517,o),
(423,520,cs),
(420,527,l),
(425,534,l),
(414,551,o),
(409,550,o),
(407,529,c),
(403,539,o),
(399,548,o),
(396,557,c),
(392,552,l),
(385,588,l),
(383,593,o),
(382,598,o),
(382,603,c),
(383,607,o),
(386,608,o),
(388,610,c),
(390,611,o),
(392,612,o),
(394,612,c),
(392,622,o),
(387,631,o),
(380,637,c),
(378,640,o),
(374,638,o),
(371,638,c),
(373,633,o),
(374,628,o),
(375,622,cs),
(375,620,ls),
(376,613,o),
(367,619,o),
(372,605,c),
(377,607,l),
(378,599,o),
(379,592,o),
(381,584,c),
(375,588,o),
(369,589,o),
(365,595,cs),
(360,603,o),
(355,612,o),
(352,621,c),
(349,613,o),
(346,613,o),
(342,622,c),
(341,631,o),
(340,638,o),
(340,644,c),
(338,643,o),
(338,641,o),
(337,640,c),
(336,627,o),
(333,625,o),
(328,633,cs),
(327,634,o),
(326,636,o),
(325,635,c),
(318,631,o),
(307,641,o),
(301,625,cs),
(297,614,o),
(296,614,o),
(303,600,c),
(287,584,l),
(290,580,o),
(293,576,o),
(297,573,cs),
(300,571,o),
(304,569,o),
(308,568,c),
(313,568,l),
(318,572,o),
(322,576,o),
(327,579,cs),
(336,584,o),
(349,570,o),
(355,550,c),
(352,547,o),
(349,543,o),
(345,541,c),
(340,536,o),
(334,531,o),
(328,527,cs),
(327,526,o),
(324,531,o),
(323,534,c),
(300,531,ls),
(298,531,o),
(295,532,o),
(295,535,c),
(290,545,o),
(284,554,o),
(277,562,cs),
(270,570,o),
(270,571,o),
(268,558,c),
(283,532,l),
(284,529,o),
(285,525,o),
(285,521,cs),
(284,512,o),
(286,508,o),
(290,505,cs),
(294,502,o),
(297,499,o),
(300,495,c),
(292,470,l),
(286,485,ls),
(281,499,o),
(275,511,o),
(271,525,cs),
(268,537,o),
(262,547,o),
(254,556,c),
(251,548,o),
(249,540,o),
(247,533,c),
(223,474,l),
(205,426,l),
(196,401,ls),
(187,381,o),
(178,361,o),
(170,340,cs),
(162,322,o),
(155,304,o),
(147,285,c),
(145,277,o),
(141,276,o),
(137,275,cs),
(133,275,o),
(129,275,o),
(125,274,cs),
(123,273,o),
(121,272,o),
(119,270,c),
(136,236,l),
(125,226,o),
(113,235,o),
(102,237,c),
(102,236,o),
(102,235,o),
(103,233,c),
(109,226,l),
(103,222,o),
(98,217,o),
(93,212,cs),
(86,204,o),
(80,195,o),
(73,186,cs),
(64,173,o),
(54,159,o),
(44,148,cs),
(36,138,o),
(26,132,o),
(18,123,cs),
(9,115,o),
(1,106,o),
(-7,98,cs),
(-11,93,o),
(-16,90,o),
(-21,86,c),
(-26,80,o),
(-32,75,o),
(-38,70,cs),
(-48,63,o),
(-59,58,o),
(-70,51,c),
(-64,39,l),
(-53,24,o),
(-42,15,o),
(-32,14,cs)
);
}
);
width = 550;
}
);
note = A;
unicode = (65,97,192,193,194,195,196,197,224,225,226,227,228,229);
},
{
glyphname = B;
lastChange = "2022-12-26 01:23:55 +0000";
layers = (
{
layerId = m01;
shapes = (
{
closed = 1;
nodes = (
(87,21,l),
(89,22,o),
(91,22,o),
(92,23,cs),
(101,30,o),
(111,36,o),
(120,44,cs),
(133,56,o),
(147,64,o),
(167,62,cs),
(174,61,o),
(182,67,o),
(190,69,c),
(188,76,o),
(188,82,o),
(188,89,c),
(191,100,l),
(201,99,o),
(211,97,o),
(221,96,cs),
(228,96,o),
(235,97,o),
(241,98,cs),
(246,98,o),
(251,97,o),
(256,98,cs),
(266,99,o),
(276,101,o),
(286,102,cs),
(296,103,o),
(305,102,o),
(316,104,cs),
(318,104,o),
(319,104,o),
(321,105,c),
(321,108,o),
(329,112,o),
(334,115,c),
(334,113,o),
(335,111,o),
(336,108,c),
(355,114,ls),
(364,116,o),
(373,119,o),
(382,120,cs),
(388,121,o),
(394,121,o),
(400,121,c),
(400,125,o),
(399,127,o),
(399,130,c),
(401,132,l),
(407,125,o),
(411,113,o),
(423,114,c),
(429,145,l),
(431,145,o),
(433,145,o),
(435,144,cs),
(438,143,o),
(441,141,o),
(444,139,cs),
(447,137,o),
(452,137,o),
(456,140,cs),
(470,149,o),
(485,157,o),
(499,165,cs),
(516,174,o),
(532,182,o),
(548,191,c),
(551,192,o),
(553,194,o),
(555,195,c),
(549,204,o),
(544,214,o),
(539,223,c),
(537,225,o),
(536,226,o),
(533,227,cs),
(519,233,o),
(515,242,o),
(522,255,cs),
(523,257,o),
(523,259,o),
(523,261,c),
(516,261,o),
(509,263,o),
(503,265,cs),
(492,270,o),
(501,276,o),
(505,284,c),
(501,283,o),
(496,283,o),
(491,283,cs),
(486,284,o),
(479,286,o),
(478,289,cs),
(473,305,o),
(468,321,o),
(480,336,c),
(481,340,o),
(480,345,o),
(478,348,cs),
(474,352,o),
(467,358,o),
(465,356,c),
(458,352,o),
(445,355,o),
(447,341,c),
(441,344,o),
(437,345,o),
(433,348,cs),
(427,351,o),
(427,356,o),
(432,359,c),
(440,362,o),
(447,365,o),
(455,367,c),
(457,368,o),
(459,369,o),
(461,370,c),
(461,372,l),
(444,375,l),
(445,385,o),
(446,394,o),
(448,404,cs),
(450,413,o),
(453,422,o),
(458,431,c),
(463,437,o),
(466,441,o),
(463,449,cs),
(459,462,o),
(463,466,o),
(476,463,c),
(477,462,o),
(479,462,o),
(483,461,c),
(483,467,o),
(483,474,o),
(482,480,cs),
(482,481,o),
(475,481,o),
(469,482,c),
(470,497,o),
(470,514,o),
(472,530,cs),
(475,550,o),
(481,570,o),
(484,591,cs),
(485,610,o),
(485,630,o),
(484,649,cs),
(484,657,o),
(481,663,o),
(473,661,cs),
(470,660,o),
(469,652,o),
(468,647,cs),
(467,641,o),
(469,634,o),
(467,629,cs),
(460,616,o),
(463,602,o),
(462,588,cs),
(462,569,o),
(458,550,o),
(456,531,cs),
(454,514,o),
(454,498,o),
(455,481,cs),
(456,463,o),
(455,448,o),
(444,431,c),
(441,447,o),
(427,454,o),
(423,469,cs),
(421,479,o),
(421,490,o),
(424,499,cs),
(428,510,o),
(430,522,o),
(433,533,cs),
(435,539,o),
(438,545,o),
(440,551,cs),
(441,556,o),
(442,560,o),
(442,565,cs),
(442,575,o),
(442,585,o),
(443,595,cs),
(445,603,o),
(447,610,o),
(448,618,cs),
(448,624,o),
(444,629,o),
(440,631,cs),
(435,634,o),
(429,633,o),
(424,630,cs),
(419,627,o),
(413,623,o),
(408,618,cs),
(399,610,o),
(389,603,o),
(377,604,cs),
(373,604,o),
(370,603,o),
(367,602,cs),
(356,599,o),
(345,594,o),
(335,590,cs),
(327,587,o),
(318,585,o),
(310,582,cs),
(301,578,o),
(292,574,o),
(283,569,cs),
(279,567,o),
(276,564,o),
(273,561,cs),
(272,560,o),
(271,557,o),
(269,556,cs),
(255,551,o),
(243,541,o),
(226,541,cs),
(221,541,o),
(216,533,o),
(212,528,cs),
(210,526,o),
(210,523,o),
(208,518,c),
(206,523,o),
(205,526,o),
(205,528,c),
(202,535,l),
(191,520,o),
(191,520,o),
(178,532,c),
(177,527,o),
(175,522,o),
(173,515,c),
(169,525,o),
(166,533,o),
(164,541,c),
(163,543,o),
(167,546,o),
(170,548,c),
(171,550,o),
(175,551,o),
(175,553,c),
(176,555,o),
(175,558,o),
(173,559,cs),
(170,561,o),
(167,561,o),
(164,560,cs),
(162,559,o),
(160,557,o),
(160,557,c),
(141,576,ls),
(140,577,o),
(137,576,o),
(136,576,c),
(136,570,l),
(138,566,o),
(142,562,o),
(142,558,c),
(139,546,o),
(136,533,o),
(132,521,cs),
(131,518,o),
(126,516,o),
(123,514,c),
(121,515,l),
(120,519,o),
(121,523,o),
(122,527,c),
(131,541,o),
(130,545,o),
(117,553,c),
(114,549,o),
(112,544,o),
(109,543,cs),
(92,536,o),
(85,521,o),
(79,508,cs),
(73,495,o),
(74,478,o),
(72,463,cs),
(71,457,o),
(74,446,o),
(62,455,c),
(61,455,o),
(59,454,o),
(58,453,cs),
(56,451,o),
(52,448,o),
(52,445,cs),
(52,441,o),
(54,436,o),
(55,431,c),
(53,430,o),
(47,429,o),
(46,427,cs),
(44,420,o),
(43,412,o),
(42,405,cs),
(42,402,o),
(40,399,o),
(38,396,cs),
(30,381,l),
(26,369,o),
(26,355,o),
(18,344,cs),
(16,342,o),
(17,337,o),
(17,332,c),
(27,340,l),
(30,338,l),
(28,336,o),
(27,333,o),
(26,330,c),
(23,325,o),
(20,320,o),
(29,318,cs),
(34,316,o),
(38,314,o),
(41,310,c),
(39,304,o),
(37,300,o),
(36,296,cs),
(34,286,o),
(31,276,o),
(28,266,c),
(28,264,o),
(25,264,o),
(23,263,c),
(23,259,o),
(24,255,o),
(24,251,c),
(35,255,l),
(36,251,o),
(38,248,o),
(39,244,c),
(42,249,o),
(44,255,o),
(47,255,cs),
(60,257,o),
(64,262,o),
(60,273,c),
(77,273,l),
(76,280,o),
(76,288,o),
(75,295,c),
(80,308,o),
(80,309,o),
(74,316,c),
(68,303,l),
(66,307,o),
(65,309,o),
(64,310,c),
(61,318,o),
(58,325,o),
(48,327,cs),
(41,328,o),
(42,335,o),
(45,339,cs),
(48,343,o),
(52,346,o),
(57,347,cs),
(62,347,o),
(66,346,o),
(70,343,cs),
(72,342,o),
(75,341,o),
(77,340,c),
(79,343,l),
(77,345,o),
(75,347,o),
(74,349,cs),
(72,352,o),
(72,356,o),
(73,359,c),
(78,368,o),
(84,376,o),
(89,385,cs),
(94,393,o),
(93,413,o),
(87,416,cs),
(79,420,o),
(78,427,o),
(80,436,c),
(82,436,o),
(85,436,o),
(88,435,cs),
(93,434,o),
(100,430,o),
(101,431,cs),
(104,436,o),
(106,441,o),
(106,446,cs),
(106,450,o),
(104,454,o),
(102,457,cs),
(99,461,o),
(96,464,o),
(94,468,cs),
(92,471,l),
(121,470,o),
(111,492,o),
(116,507,c),
(119,504,o),
(122,500,o),
(124,500,cs),
(134,500,o),
(133,494,o),
(134,487,cs),
(135,481,o),
(137,475,o),
(139,470,cs),
(142,460,o),
(141,449,o),
(135,441,cs),
(131,436,o),
(129,430,o),
(127,424,cs),
(126,419,o),
(126,414,o),
(124,410,c),
(120,397,l),
(120,380,o),
(120,362,o),
(121,345,cs),
(123,317,o),
(120,289,o),
(114,262,c),
(111,254,o),
(111,243,o),
(106,237,cs),
(94,225,o),
(98,207,o),
(83,194,c),
(103,196,o),
(99,182,o),
(104,173,c),
(105,176,o),
(107,180,o),
(107,184,c),
(108,186,o),
(110,190,o),
(111,190,cs),
(114,190,o),
(117,188,o),
(119,186,cs),
(124,180,o),
(128,174,o),
(132,169,c),
(131,165,o),
(127,160,o),
(128,158,cs),
(135,149,o),
(133,136,o),
(145,130,cs),
(148,128,o),
(152,121,o),
(151,118,cs),
(148,108,o),
(151,103,o),
(161,100,cs),
(165,99,o),
(169,97,o),
(173,96,cs),
(176,95,o),
(180,94,o),
(184,94,c),
(176,79,o),
(168,68,o),
(151,77,c),
(151,78,o),
(151,80,o),
(152,81,c),
(152,85,o),
(152,89,o),
(151,93,c),
(140,90,l),
(136,90,o),
(133,89,o),
(129,88,c),
(118,82,ls),
(115,80,o),
(112,77,o),
(109,74,c),
(60,41,ls),
(52,35,o),
(45,28,o),
(38,21,c)
);
},
{
closed = 1;
nodes = (
(168,177,o),
(168,178,o),
(168,178,c),
(164,178,o),
(160,179,o),
(157,180,cs),
(154,181,o),
(152,184,o),
(151,187,c),
(151,189,o),
(154,191,o),
(156,193,cs),
(166,204,o),
(176,196,o),
(187,193,c),
(188,192,o),
(188,186,o),
(188,185,c),
(181,182,o),
(175,179,o),
(169,177,c)
);
},
{
closed = 1;
nodes = (
(87,481,o),
(85,484,o),
(85,486,c),
(87,495,o),
(89,503,o),
(93,512,cs),
(98,520,o),
(103,528,o),
(109,535,c),
(112,534,l),
(112,531,o),
(114,528,o),
(113,526,cs),
(107,512,o),
(100,498,o),
(93,484,cs),
(92,482,o),
(90,481,o),
(88,479,c)
);
},
{
closed = 1;
nodes = (
(318,151,o),
(305,158,o),
(293,166,cs),
(291,167,o),
(290,169,o),
(289,171,c),
(280,211,l),
(277,220,o),
(276,231,o),
(265,235,c),
(263,235,o),
(261,239,o),
(260,241,cs),
(256,253,o),
(253,254,o),
(243,246,cs),
(237,242,o),
(231,237,o),
(226,232,cs),
(218,222,o),
(209,220,o),
(197,220,cs),
(190,219,o),
(182,218,o),
(174,215,c),
(162,215,l),
(165,220,o),
(167,222,o),
(169,225,c),
(178,234,o),
(179,250,o),
(169,259,c),
(163,271,l),
(167,273,o),
(171,275,o),
(175,276,c),
(199,290,ls),
(204,293,o),
(208,296,o),
(212,299,cs),
(215,301,o),
(216,303,o),
(217,306,c),
(217,308,o),
(213,311,o),
(211,311,cs),
(205,312,o),
(199,313,o),
(193,313,c),
(193,316,l),
(221,330,l),
(215,339,o),
(222,344,o),
(230,346,cs),
(236,348,o),
(240,353,o),
(240,359,cs),
(242,380,o),
(242,380,o),
(264,386,c),
(261,396,o),
(267,395,o),
(274,396,cs),
(289,397,o),
(291,401,o),
(284,414,cs),
(282,418,o),
(282,423,o),
(284,427,cs),
(288,433,o),
(293,439,o),
(299,444,cs),
(307,452,o),
(319,454,o),
(329,447,c),
(330,447,o),
(331,446,o),
(331,446,c),
(342,444,o),
(351,442,o),
(351,428,cs),
(351,414,o),
(353,399,o),
(336,395,c),
(335,388,o),
(335,383,o),
(335,377,c),
(331,377,l),
(330,379,o),
(329,381,o),
(329,383,c),
(326,391,o),
(321,390,o),
(315,385,c),
(312,381,ls),
(306,370,o),
(299,367,o),
(287,372,cs),
(277,376,o),
(272,371,o),
(274,361,cs),
(275,358,o),
(279,356,o),
(282,354,cs),
(287,352,o),
(292,353,o),
(296,350,cs),
(304,345,o),
(303,338,o),
(295,332,cs),
(293,330,o),
(291,328,o),
(290,325,cs),
(289,323,o),
(289,321,o),
(287,319,cs),
(280,310,o),
(271,301,o),
(264,291,c),
(260,288,o),
(259,283,o),
(260,279,cs),
(261,274,o),
(265,270,o),
(269,269,c),
(285,261,o),
(303,252,o),
(321,257,cs),
(334,261,o),
(348,263,o),
(361,262,cs),
(379,261,o),
(396,258,o),
(410,244,cs),
(416,239,o),
(423,235,o),
(431,235,c),
(439,233,o),
(442,230,o),
(442,222,c),
(440,215,o),
(444,208,o),
(450,204,cs),
(456,200,o),
(455,195,o),
(450,191,cs),
(443,185,o),
(438,177,o),
(426,178,cs),
(420,178,o),
(413,172,o),
(407,169,cs),
(405,168,o),
(403,166,o),
(401,166,c),
(382,170,o),
(371,154,o),
(357,147,cs),
(349,143,o),
(340,143,o),
(332,145,c)
);
},
{
closed = 1;
nodes = (
(381,343,o),
(358,349,o),
(350,360,c),
(386,360,ls),
(388,360,o),
(391,357,o),
(392,354,c),
(392,352,o),
(391,350,o),
(389,348,c)
);
}
);
width = 588;
}
);
note = B;
unicode = (66,98);
},
{
glyphname = C;
lastChange = "2022-12-26 01:23:57 +0000";
layers = (
{
layerId = m01;
shapes = (
{
closed = 1;
nodes = (
(25,51,o),
(28,53,o),
(29,55,cs),
(32,61,o),
(33,67,o),
(35,72,cs),
(38,78,o),
(41,84,o),
(48,77,c),
(50,76,o),
(53,76,o),
(55,78,cs),
(62,85,o),
(67,93,o),
(74,100,cs),
(75,101,o),
(77,103,o),
(79,104,c),
(76,74,l),
(78,73,l),
(78,73,o),
(78,74,o),
(79,75,c),
(84,87,o),
(95,87,o),
(106,93,c),
(105,90,o),
(105,87,o),
(104,80,c),
(144,98,l),
(137,80,l),
(138,78,o),
(139,77,o),
(140,76,cs),
(143,74,o),
(145,72,o),
(146,69,c),
(148,70,o),
(149,71,o),
(150,72,c),
(154,86,o),
(159,90,o),
(173,89,cs),
(176,89,o),
(179,88,o),
(180,89,cs),
(197,104,o),
(217,100,o),
(236,98,cs),
(239,98,o),
(242,99,o),
(245,100,cs),
(248,101,o),
(252,103,o),
(254,102,cs),
(262,99,o),
(265,102,o),
(269,108,cs),
(272,112,o),
(276,113,o),
(281,113,cs),
(287,113,o),
(293,112,o),
(299,110,cs),
(305,107,o),
(312,108,o),
(317,112,c),
(318,114,o),
(325,114,o),
(326,112,cs),
(333,97,o),
(345,104,o),
(356,103,cs),
(359,103,o),
(362,103,o),
(365,102,c),
(381,92,o),
(397,96,o),
(413,100,cs),
(419,101,o),
(426,99,o),
(432,101,cs),
(437,102,o),
(442,102,o),
(447,102,c),
(465,128,l),
(465,132,o),
(464,137,o),
(466,140,cs),
(471,147,o),
(472,157,o),
(467,164,cs),
(463,172,o),
(458,178,o),
(454,185,cs),
(451,191,o),
(450,197,o),
(451,203,cs),
(454,214,o),
(452,225,o),
(444,233,c),
(435,228,ls),
(414,215,o),
(389,210,o),
(371,191,cs),
(356,176,o),
(335,168,o),
(316,158,c),
(311,154,o),
(306,156,o),
(304,164,cs),
(296,191,o),
(298,218,o),
(300,245,cs),
(301,259,o),
(296,272,o),
(295,285,cs),
(293,297,o),
(290,308,o),
(286,320,cs),
(278,350,o),
(273,381,o),
(273,413,c),
(271,415,o),
(270,418,o),
(269,420,cs),
(265,428,o),
(267,433,o),
(272,437,c),
(271,441,o),
(271,445,o),
(271,449,cs),
(270,462,o),
(267,476,o),
(266,489,c),
(267,495,o),
(267,501,o),
(269,507,c),
(274,507,l),
(276,499,o),
(279,492,o),
(282,485,c),
(285,481,o),
(289,477,o),
(293,474,c),
(295,478,o),
(297,482,o),
(300,486,c),
(300,487,o),
(301,489,o),
(301,490,c),
(304,490,l),
(308,474,o),
(318,472,o),
(334,473,cs),
(351,474,o),
(373,478,o),
(387,459,c),
(390,452,o),
(395,446,o),
(399,440,c),
(421,416,l),
(429,415,o),
(437,415,o),
(446,414,cs),
(460,413,o),
(477,428,o),
(477,442,cs),
(477,446,o),
(476,449,o),
(474,453,cs),
(469,464,o),
(455,473,o),
(465,488,cs),
(466,489,o),
(465,491,o),
(464,492,cs),
(450,512,ls),
(448,515,o),
(447,519,o),
(445,522,cs),
(442,527,o),
(441,534,o),
(436,537,cs),
(416,550,o),
(399,568,o),
(374,573,cs),
(365,575,o),
(357,583,o),
(346,577,c),
(344,577,o),
(341,579,o),
(339,579,c),
(323,583,o),
(307,586,o),
(291,590,c),
(281,591,o),
(271,594,o),
(262,598,cs),
(251,604,o),
(241,606,o),
(229,599,c),
(225,606,o),
(221,613,o),
(217,619,c),
(214,621,o),
(215,623,o),
(216,625,cs),
(219,633,l),
(203,632,o),
(201,631,o),
(197,618,c),
(207,613,o),
(205,607,o),
(199,600,cs),
(196,597,o),
(193,593,o),
(191,589,cs),
(183,577,o),
(184,573,o),
(198,565,c),
(196,562,o),
(194,558,o),
(191,557,cs),
(184,556,o),
(177,556,o),
(171,556,c),
(173,561,o),
(175,567,o),
(178,572,c),
(175,574,l),
(159,558,l),
(159,542,l),
(140,544,l),
(143,565,l),
(151,562,o),
(161,566,o),
(164,574,cs),
(168,581,o),
(173,587,o),
(177,593,c),
(178,596,o),
(180,599,o),
(180,602,c),
(172,601,l),
(164,585,l),
(160,587,l),
(163,599,l),
(152,599,l),
(151,613,l),
(168,620,l),
(169,618,o),
(169,616,o),
(170,615,cs),
(173,613,o),
(177,610,o),
(180,610,c),
(184,612,o),
(185,615,o),
(183,621,cs),
(180,628,o),
(183,636,o),
(190,640,c),
(182,637,o),
(174,633,o),
(167,630,cs),
(158,626,o),
(150,620,o),
(142,614,cs),
(128,606,o),
(113,598,o),
(97,592,c),
(97,586,o),
(100,581,o),
(105,578,c),
(106,576,o),
(106,575,o),
(105,574,cs),
(89,553,l),
(83,548,o),
(79,542,o),
(74,536,c),
(73,534,o),
(76,529,o),
(77,525,cs),
(77,523,o),
(77,521,o),
(76,519,cs),
(70,506,o),
(75,497,o),
(91,496,c),
(91,498,o),
(90,500,o),
(90,501,c),
(89,503,o),
(89,505,o),
(88,506,c),
(90,507,o),
(90,507,o),
(91,507,cs),
(95,506,l),
(108,499,o),
(110,500,o),
(111,515,cs),
(111,520,o),
(115,524,o),
(118,529,c),
(130,513,o),
(130,513,o),
(121,499,cs),
(116,492,o),
(111,484,o),
(107,476,c),
(109,474,l),
(119,480,l),
(117,467,o),
(113,454,o),
(101,448,cs),
(89,442,o),
(85,431,o),
(77,418,c),
(92,427,o),
(92,427,o),
(96,405,c),
(98,407,o),
(101,411,o),
(103,411,cs),
(106,411,o),
(112,409,o),
(113,407,cs),
(115,402,o),
(107,394,o),
(102,394,cs),
(98,394,o),
(94,394,o),
(90,395,cs),
(81,398,o),
(67,395,o),
(63,409,c),
(43,400,o),
(39,397,o),
(36,381,c),
(46,386,l),
(60,376,o),
(41,368,o),
(45,358,c),
(67,368,l),
(71,363,l),
(60,356,o),
(48,350,o),
(50,335,cs),
(52,322,o),
(53,309,o),
(55,295,c),
(53,295,o),
(50,294,o),
(48,293,cs),
(44,292,o),
(42,289,o),
(41,285,cs),
(39,281,o),
(41,277,o),
(43,274,cs),
(49,264,o),
(54,254,o),
(61,243,c),
(58,243,o),
(56,242,o),
(53,242,cs),
(49,241,o),
(46,239,o),
(42,238,c),
(43,232,o),
(44,225,o),
(48,222,cs),
(56,216,o),
(57,211,o),
(52,203,c),
(74,186,l),
(60,184,o),
(58,177,o),
(59,169,c),
(50,165,l),
(52,161,o),
(55,158,o),
(59,152,c),
(39,160,l),
(39,147,o),
(37,139,o),
(24,136,c),
(19,134,o),
(16,129,o),
(15,124,c),
(15,108,o),
(3,100,o),
(-4,88,c),
(-4,87,o),
(-7,87,o),
(-8,86,c),
(-13,85,o),
(-17,84,o),
(-22,82,c),
(-15,74,l),
(-15,73,l),
(-7,71,l),
(4,85,o),
(14,100,o),
(23,115,cs),
(30,128,o),
(41,133,o),
(51,142,cs),
(52,143,o),
(53,143,o),
(55,143,c),
(60,141,o),
(61,124,o),
(57,120,cs),
(50,114,o),
(43,107,o),
(38,99,cs),
(31,87,o),
(24,74,o),
(18,61,c),
(18,59,o),
(19,58,o),
(19,56,c),
(20,53,o),
(21,51,o),
(23,49,c)
);
},
{
closed = 1;
nodes = (
(-12,64,l),
(-12,65,o),
(-12,66,o),
(-13,67,cs),
(-14,68,o),
(-15,70,o),
(-15,72,c),
(-20,61,l),
(-17,59,l)
);
},
{
closed = 1;
nodes = (
(114,57,o),
(116,57,o),
(124,62,c),
(125,62,o),
(126,63,o),
(127,63,c),
(129,66,l),
(122,68,o),
(116,66,o),
(111,62,c)
);
},
{
closed = 1;
nodes = (
(93,103,o),
(91,105,o),
(91,106,cs),
(92,109,o),
(93,112,o),
(95,114,cs),
(102,119,o),
(110,122,o),
(111,133,cs),
(111,137,o),
(117,141,o),
(121,145,c),
(124,143,l),
(122,140,o),
(120,136,o),
(119,133,cs),
(118,130,o),
(117,126,o),
(118,124,c),
(120,122,o),
(124,122,o),
(127,120,cs),
(138,115,l),
(135,113,o),
(132,111,o),
(128,109,cs),
(123,107,o),
(119,106,o),
(114,105,c),
(108,115,l),
(105,112,o),
(103,109,o),
(101,106,cs),
(99,104,o),
(96,103,o),
(94,101,c)
);
},
{
closed = 1;
nodes = (
(104,151,l),
(88,149,o),
(88,150,o),
(88,163,c),
(114,174,l),
(107,180,o),
(102,185,o),
(96,189,cs),
(94,191,o),
(90,193,o),
(91,194,c),
(93,210,o),
(85,222,o),
(74,233,c),
(76,235,l),
(81,233,o),
(86,230,o),
(90,227,cs),
(98,221,o),
(105,216,o),
(112,228,c),
(114,230,o),
(117,230,o),
(120,230,c),
(121,229,o),
(123,226,o),
(123,223,c),
(124,221,o),
(124,218,o),
(124,216,cs),
(123,202,o),
(127,197,o),
(145,193,c),
(140,189,o),
(135,186,o),
(130,183,cs),
(122,179,o),
(121,174,o),
(129,162,c),
(116,166,o),
(112,161,o),
(111,149,cs),
(111,138,o),
(102,128,o),
(91,127,c)
);
},
{
closed = 1;
nodes = (
(78,260,o),
(74,262,o),
(73,264,c),
(73,266,o),
(73,269,o),
(74,272,c),
(74,274,o),
(75,276,o),
(75,278,c),
(58,280,l),
(58,283,l),
(59,284,o),
(60,284,o),
(62,285,c),
(66,285,o),
(70,288,o),
(73,291,c),
(75,295,o),
(76,299,o),
(75,304,cs),
(75,306,o),
(75,308,o),
(76,311,c),
(107,311,l),
(104,307,o),
(102,302,o),
(99,298,cs),
(93,289,o),
(83,281,o),
(85,268,cs),
(85,266,o),
(82,262,o),
(79,261,c)
);
},
{
closed = 1;
nodes = (
(71,314,o),
(67,318,o),
(61,323,c),
(70,330,o),
(66,349,o),
(85,344,c),
(95,330,o),
(82,321,o),
(76,311,c)
);
},
{
closed = 1;
nodes = (
(172,231,o),
(171,232,o),
(171,233,c),
(178,243,o),
(180,253,o),
(171,263,cs),
(170,264,o),
(173,270,o),
(176,276,c),
(190,246,o),
(189,235,o),
(172,230,c)
);
},
{
closed = 1;
nodes = (
(151,304,o),
(144,315,o),
(137,327,c),
(132,324,l),
(137,315,l),
(122,311,l),
(125,323,o),
(128,331,o),
(138,335,cs),
(141,336,o),
(143,341,o),
(146,345,c),
(148,344,o),
(149,342,o),
(151,339,cs),
(154,333,o),
(157,329,o),
(165,330,cs),
(169,330,o),
(172,329,o),
(174,326,cs),
(175,325,o),
(172,321,o),
(171,318,cs),
(165,302,l)
);
},
{
closed = 1;
nodes = (
(114,371,l),
(90,362,l),
(88,367,o),
(88,371,o),
(87,374,c),
(129,394,l),
(128,388,o),
(122,381,o),
(133,376,c),
(131,371,o),
(129,365,o),
(125,360,c),
(118,354,o),
(110,349,o),
(101,344,c)
);
},
{
closed = 1;
nodes = (
(173,459,l),
(192,463,l),
(193,458,o),
(193,454,o),
(194,451,c),
(177,452,o),
(176,451,o),
(178,435,c),
(163,434,l)
);
},
{
closed = 1;
nodes = (
(158,499,o),
(174,500,o),
(181,510,c),
(186,502,l),
(203,513,o),
(207,528,o),
(200,549,c),
(205,547,o),
(209,544,o),
(213,541,c),
(215,537,o),
(216,533,o),
(215,529,c),
(205,514,o),
(195,499,o),
(184,485,cs),
(179,478,o),
(171,480,o),
(166,488,c),
(156,483,l)
);
},
{
closed = 1;
nodes = (
(129,571,ls),
(126,572,o),
(124,574,o),
(122,576,c),
(121,578,o),
(122,581,o),
(122,584,c),
(124,584,o),
(127,583,o),
(129,582,cs),
(133,581,o),
(137,578,o),
(142,575,c),
(142,581,ls),
(142,585,o),
(143,587,o),
(144,590,c),
(147,591,o),
(149,591,o),
(151,590,c),
(153,587,o),
(153,583,o),
(151,580,cs),
(149,575,o),
(146,570,o),
(143,565,c)
);
},
{
closed = 1;
nodes = (
(230,571,o),
(242,581,o),
(226,591,c),
(229,593,o),
(232,594,o),
(235,594,cs),
(239,594,o),
(244,594,o),
(245,593,c),
(247,589,o),
(247,585,o),
(245,581,cs),
(240,574,o),
(234,567,o),
(228,561,c)
);
}
);
width = 524;
}
);
note = C;
unicode = (67,99,199,231);
},
{
glyphname = D;
lastChange = "2022-12-26 01:23:58 +0000";
layers = (
{
layerId = m01;
shapes = (
{
closed = 1;
nodes = (
(364,-147,l),
(355,-135,o),
(344,-123,o),
(346,-111,cs),
(347,-100,o),
(327,-80,o),
(309,-74,c),
(330,-59,l),
(314,-55,l),
(317,-52,o),
(320,-49,o),
(322,-46,cs),
(325,-42,o),
(327,-37,o),
(327,-31,c),
(325,-22,o),
(322,-12,o),
(318,-3,c),
(337,0,o),
(339,4,o),
(332,16,cs),
(324,28,o),
(325,33,o),
(341,39,cs),
(345,41,o),
(349,41,o),
(353,42,c),
(351,48,o),
(346,55,o),
(349,58,c),
(359,64,o),
(365,75,o),
(367,87,c),
(367,92,o),
(371,96,o),
(371,101,cs),
(371,114,o),
(371,127,o),
(389,136,cs),
(391,137,o),
(392,140,o),
(393,142,cs),
(398,150,o),
(394,161,o),
(415,161,cs),
(417,161,o),
(420,166,o),
(418,168,cs),
(413,174,o),
(415,178,o),
(420,182,cs),
(424,185,o),
(428,189,o),
(430,194,cs),
(432,197,o),
(431,201,o),
(428,204,cs),
(421,209,o),
(419,212,o),
(425,217,cs),
(426,218,o),
(425,222,o),
(425,224,cs),
(425,227,o),
(424,229,o),
(425,232,c),
(434,245,o),
(445,258,o),
(432,275,c),
(431,277,o),
(433,279,o),
(434,280,c),
(439,291,o),
(441,374,o),
(426,381,cs),
(422,383,o),
(422,387,o),
(421,390,cs),
(420,395,o),
(422,399,o),
(420,404,cs),
(416,413,o),
(416,414,o),
(431,414,cs),
(436,414,o),
(441,414,o),
(449,415,c),
(428,421,l),
(451,435,l),
(489,424,l),
(488,425,o),
(486,427,o),
(485,429,c),
(477,436,o),
(470,442,o),
(463,449,cs),
(461,451,o),
(462,454,o),
(464,455,cs),
(475,458,o),
(468,462,o),
(462,465,cs),
(456,469,o),
(448,472,o),
(442,475,cs),
(439,477,o),
(438,480,o),
(436,482,c),
(439,483,o),
(443,483,o),
(446,483,cs),
(458,482,o),
(470,481,o),
(467,492,c),
(466,493,o),
(471,495,o),
(473,497,cs),
(475,499,o),
(477,501,o),
(479,502,c),
(476,503,o),
(473,503,o),
(470,503,cs),
(465,502,o),
(460,502,o),
(456,503,c),
(448,507,o),
(453,510,o),
(458,512,c),
(467,518,l),
(472,524,o),
(468,528,o),
(456,528,cs),
(448,528,o),
(441,527,o),
(433,527,c),
(445,538,o),
(454,552,o),
(488,543,c),
(485,548,o),
(482,552,o),
(478,553,c),
(458,562,o),
(443,556,o),
(428,550,c),
(431,555,o),
(436,557,o),
(438,561,cs),
(440,565,o),
(442,570,o),
(442,575,cs),
(442,580,o),
(439,585,o),
(439,590,cs),
(440,595,o),
(443,599,o),
(445,603,cs),
(452,615,o),
(467,617,o),
(484,607,cs),
(490,603,o),
(496,600,o),
(501,597,c),
(543,680,l),
(520,671,l),
(517,658,o),
(515,647,o),
(513,648,cs),
(509,649,o),
(510,722,o),
(506,720,c),
(501,722,o),
(493,658,o),
(486,650,c),
(490,658,o),
(496,703,o),
(499,707,c),
(473,707,o),
(451,706,o),
(433,699,cs),
(429,698,o),
(426,698,o),
(423,700,cs),
(421,701,o),
(420,704,o),
(420,706,cs),
(420,708,o),
(422,710,o),
(423,712,c),
(419,714,l),
(389,699,l),
(386,701,l),
(388,704,o),
(390,707,o),
(391,711,c),
(375,708,o),
(373,706,o),
(378,694,c),
(402,692,l),
(404,689,l),
(400,688,o),
(395,686,o),
(390,686,cs),
(377,684,o),
(363,683,o),
(350,682,c),
(341,680,o),
(333,677,o),
(324,677,cs),
(309,676,o),
(294,677,o),
(279,678,c),
(276,667,o),
(268,661,o),
(246,662,cs),
(238,663,o),
(229,670,o),
(220,675,c),
(217,674,o),
(212,669,o),
(207,670,cs),
(192,672,o),
(191,662,o),
(181,661,cs),
(166,660,o),
(163,655,o),
(168,647,c),
(166,647,o),
(163,646,o),
(160,646,cs),
(156,645,o),
(150,643,o),
(150,641,cs),
(149,637,o),
(148,633,o),
(148,628,c),
(146,627,l),
(136,627,l),
(129,629,o),
(121,626,o),
(117,620,c),
(114,617,o),
(111,614,o),
(107,609,c),
(123,600,o),
(119,588,o),
(117,576,cs),
(116,572,o),
(122,566,o),
(124,562,cs),
(125,559,o),
(126,556,o),
(126,552,c),
(123,543,o),
(118,534,o),
(115,524,c),
(115,513,l),
(113,501,o),
(109,490,o),
(110,478,cs),
(112,464,o),
(115,451,o),
(120,438,c),
(124,439,l),
(129,437,l),
(127,423,o),
(125,410,o),
(124,396,c),
(123,392,o),
(124,389,o),
(124,385,cs),
(122,371,o),
(121,358,o),
(119,345,c),
(119,336,ls),
(119,327,o),
(119,318,o),
(121,309,cs),
(122,306,o),
(122,302,o),
(121,299,cs),
(119,293,o),
(117,287,o),
(117,281,cs),
(117,279,o),
(117,277,o),
(118,275,c),
(125,280,o),
(135,283,o),
(137,293,cs),
(139,304,o),
(140,315,o),
(142,326,cs),
(146,342,o),
(144,360,o),
(154,374,cs),
(156,376,o),
(157,379,o),
(156,382,cs),
(154,390,o),
(158,395,o),
(163,401,cs),
(164,402,o),
(164,404,o),
(164,405,cs),
(164,407,o),
(163,409,o),
(162,410,cs),
(160,411,o),
(160,413,o),
(160,416,c),
(162,420,o),
(164,424,o),
(166,427,c),
(178,431,o),
(190,434,o),
(202,438,cs),
(227,447,o),
(253,445,o),
(277,461,cs),
(295,473,o),
(319,476,o),
(340,482,cs),
(347,484,o),
(352,482,o),
(352,473,cs),
(354,443,o),
(346,416,o),
(337,388,cs),
(333,375,o),
(334,360,o),
(332,346,c),
(332,334,o),
(332,321,o),
(334,309,c),
(337,262,o),
(326,217,o),
(319,172,cs),
(317,158,o),
(317,144,o),
(314,130,cs),
(313,124,o),
(311,118,o),
(308,112,c),
(303,113,l),
(302,122,o),
(301,130,o),
(299,138,cs),
(297,143,o),
(294,147,o),
(291,151,c),
(288,148,o),
(284,144,o),
(281,140,cs),
(280,139,o),
(279,138,o),
(279,137,c),
(278,137,o),
(277,138,o),
(276,138,c),
(275,155,o),
(266,159,o),
(249,162,cs),
(230,165,o),
(207,166,o),
(198,189,cs),
(195,197,o),
(193,204,o),
(189,211,cs),
(180,228,o),
(171,244,o),
(161,260,c),
(154,258,o),
(143,260,o),
(137,257,cs),
(126,251,o),
(115,245,o),
(104,238,c),
(104,229,l),
(106,228,l),
(107,222,o),
(108,216,o),
(108,209,c),
(106,209,o),
(104,208,o),
(103,207,cs),
(102,205,o),
(102,203,o),
(102,200,c),
(104,198,o),
(107,196,o),
(110,194,cs),
(119,189,o),
(127,183,o),
(136,177,cs),
(143,171,o),
(138,167,o),
(128,165,cs),
(115,162,o),
(112,167,o),
(105,173,c),
(103,174,o),
(100,176,o),
(97,176,c),
(96,171,o),
(94,166,o),
(93,161,c),
(94,160,o),
(94,160,o),
(94,159,c),
(99,150,o),
(110,141,o),
(108,133,cs),
(106,122,o),
(115,115,o),
(125,107,cs),
(128,105,o),
(131,102,o),
(134,99,cs),
(138,95,o),
(141,91,o),
(144,87,cs),
(145,85,o),
(147,84,o),
(150,81,c),
(139,81,o),
(129,77,o),
(129,88,cs),
(129,90,o),
(125,92,o),
(123,93,cs),
(109,102,o),
(95,110,o),
(81,118,c),
(78,109,l),
(83,101,o),
(86,91,o),
(85,80,cs),
(85,78,o),
(82,76,o),
(81,74,c),
(77,76,o),
(70,78,o),
(69,80,cs),
(65,87,o),
(58,91,o),
(50,91,c),
(53,87,o),
(55,84,o),
(56,81,c),
(53,80,l),
(48,83,o),
(44,86,o),
(41,90,cs),
(34,100,o),
(23,106,o),
(11,107,c),
(13,102,o),
(16,98,o),
(17,94,cs),
(21,84,o),
(28,74,o),
(27,63,c),
(26,60,o),
(36,54,o),
(43,50,c),
(47,49,o),
(52,48,o),
(56,49,cs),
(66,50,o),
(76,52,o),
(86,54,cs),
(101,57,o),
(116,60,o),
(131,62,cs),
(135,62,o),
(139,62,o),
(143,60,cs),
(159,51,o),
(175,41,o),
(191,31,cs),
(197,27,o),
(203,22,o),
(197,17,cs),
(196,16,o),
(199,12,o),
(201,10,cs),
(204,8,o),
(210,6,o),
(212,3,cs),
(214,0,o),
(213,-3,o),
(213,-6,c),
(202,-3,ls),
(198,-2,o),
(194,0,o),
(190,2,c),
(185,-6,l),
(176,-2,o),
(164,0,o),
(161,4,cs),
(155,12,o),
(151,21,o),
(150,30,cs),
(148,38,o),
(131,47,o),
(118,46,cs),
(106,45,o),
(94,45,o),
(82,45,cs),
(66,45,o),
(60,43,o),
(60,35,c),
(51,36,o),
(43,36,o),
(35,34,cs),
(27,31,o),
(19,33,o),
(14,39,cs),
(3,51,l),
(-1,54,o),
(-6,56,o),
(-10,58,cs),
(-14,59,o),
(-19,59,o),
(-22,61,cs),
(-27,64,o),
(-31,66,o),
(-36,68,cs),
(-41,70,o),
(-46,69,o),
(-50,68,cs),
(-54,66,o),
(-56,62,o),
(-54,60,c),
(-49,51,o),
(-43,43,o),
(-36,35,cs),
(-33,32,o),
(-28,30,o),
(-24,29,cs),
(-11,26,o),
(6,15,o),
(2,9,cs),
(-5,-3,o),
(12,-6,o),
(18,-12,c),
(29,1,l),
(20,9,l),
(23,11,l),
(45,1,l),
(50,8,l),
(63,3,o),
(72,-9,o),
(86,-2,c),
(95,-8,o),
(103,-13,o),
(109,-19,cs),
(121,-31,o),
(137,-41,o),
(137,-55,cs),
(138,-64,o),
(147,-72,o),
(163,-77,c),
(168,-70,l),
(182,-76,o),
(184,-84,o),
(183,-91,cs),
(181,-102,o),
(190,-112,o),
(206,-115,c),
(204,-110,o),
(203,-105,o),
(199,-101,cs),
(192,-95,o),
(193,-92,o),
(201,-90,c),
(217,-95,l),
(218,-95,o),
(219,-94,o),
(220,-93,c),
(216,-90,o),
(209,-88,o),
(208,-85,c),
(205,-81,o),
(205,-76,o),
(206,-71,cs),
(206,-70,o),
(213,-70,o),
(216,-68,c),
(224,-65,o),
(232,-61,o),
(238,-56,cs),
(242,-53,o),
(239,-48,o),
(238,-43,c),
(252,-47,o),
(254,-55,o),
(246,-60,cs),
(234,-68,o),
(236,-72,o),
(248,-81,cs),
(253,-85,o),
(256,-91,o),
(256,-97,cs),
(256,-99,o),
(246,-101,o),
(239,-104,c),
(271,-120,l),
(275,-117,o),
(280,-115,o),
(285,-114,c),
(293,-115,o),
(300,-117,o),
(306,-120,c),
(317,-108,o),
(317,-108,o),
(335,-114,c),
(331,-130,l),
(350,-136,l),
(348,-139,l),
(345,-137,o),
(342,-137,o),
(339,-136,c),
(333,-137,o),
(327,-139,o),
(322,-141,c),
(320,-141,o),
(321,-145,o),
(323,-147,c),
(328,-150,o),
(334,-151,o),
(340,-148,c),
(343,-148,o),
(347,-148,o),
(350,-149,c)
);
},
{
closed = 1;
nodes = (
(523,678,o),
(529,683,o),
(532,689,cs),
(534,695,o),
(536,702,o),
(536,708,c),
(528,709,l),
(520,671,l)
);
},
{
closed = 1;
nodes = (
(529,711,o),
(529,714,o),
(530,716,c),
(523,714,o),
(517,713,o),
(510,713,c),
(510,710,l),
(528,709,l)
);
},
{
closed = 1;
nodes = (
(532,717,o),
(534,719,o),
(533,721,cs),
(532,722,o),
(531,719,o),
(530,716,c)
);
}
);
width = 502;
}
);
note = D;
unicode = (68,100);
},
{
glyphname = E;
lastChange = "2022-12-26 01:24:00 +0000";
layers = (
{
layerId = m01;
shapes = (
{
closed = 1;
nodes = (
(528,27,o),
(535,34,o),
(534,39,cs),
(531,47,o),
(525,54,o),
(518,59,cs),
(511,63,o),
(504,67,o),
(496,69,c),
(506,72,o),
(513,73,o),
(520,75,cs),
(529,79,o),
(538,81,o),
(548,83,cs),
(566,87,o),
(584,88,o),
(602,89,cs),
(622,88,o),
(641,86,o),
(661,84,c),
(663,83,o),
(665,79,o),
(669,76,c),
(626,62,o),
(578,72,o),
(540,39,c),
(545,38,o),
(550,37,o),
(555,37,cs),
(564,38,o),
(572,42,o),
(580,43,cs),
(596,46,o),
(613,48,o),
(629,51,cs),
(645,54,o),
(660,58,o),
(676,62,cs),
(677,62,o),
(679,62,o),
(680,61,cs),
(689,52,o),
(700,57,o),
(710,58,c),
(717,60,o),
(722,63,o),
(728,66,c),
(725,71,o),
(723,76,o),
(719,84,c),
(734,83,o),
(747,82,o),
(760,82,cs),
(776,81,o),
(792,79,o),
(806,82,cs),
(819,84,o),
(826,98,o),
(840,104,cs),
(847,107,o),
(850,121,o),
(856,132,c),
(840,131,o),
(833,141,o),
(833,152,cs),
(833,163,o),
(841,172,o),
(852,172,cs),
(860,173,o),
(867,181,o),
(875,185,c),
(873,191,l),
(868,191,o),
(862,192,o),
(856,192,cs),
(847,191,o),
(837,189,o),
(827,188,c),
(783,188,o),
(739,188,o),
(694,187,cs),
(660,186,o),
(625,181,o),
(591,179,cs),
(573,178,o),
(556,178,o),
(539,177,cs),
(520,177,o),
(502,176,o),
(484,174,cs),
(477,173,o),
(471,168,o),
(465,168,cs),
(448,169,o),
(431,171,o),
(414,172,c),
(419,145,o),
(424,117,o),
(443,94,cs),
(445,91,o),
(444,85,o),
(444,81,c),
(440,80,o),
(435,81,o),
(431,82,c),
(420,87,o),
(411,96,o),
(405,106,cs),
(399,119,o),
(387,129,o),
(377,139,cs),
(369,146,l),
(376,153,o),
(373,164,o),
(374,173,cs),
(377,185,o),
(378,196,o),
(379,208,c),
(415,205,l),
(421,209,o),
(427,212,o),
(433,215,cs),
(452,222,o),
(473,224,o),
(488,240,c),
(490,243,o),
(495,243,o),
(498,243,cs),
(509,245,o),
(520,247,o),
(532,248,cs),
(547,248,l),
(554,247,o),
(561,245,o),
(566,245,c),
(566,253,o),
(566,260,o),
(567,268,cs),
(569,287,o),
(573,305,o),
(576,324,cs),
(577,328,o),
(576,335,o),
(574,336,cs),
(570,338,o),
(565,338,o),
(561,336,cs),
(551,330,o),
(542,320,o),
(532,319,cs),
(510,317,o),
(494,300,o),
(470,300,cs),
(448,301,o),
(427,293,o),
(405,289,cs),
(400,288,o),
(395,288,o),
(391,287,c),
(390,306,o),
(392,325,o),
(392,345,cs),
(390,371,o),
(387,398,o),
(385,425,cs),
(384,444,o),
(384,464,o),
(382,483,cs),
(382,499,o),
(380,516,o),
(376,532,cs),
(368,555,o),
(364,577,o),
(379,599,cs),
(385,608,o),
(388,621,o),
(395,627,cs),
(411,638,o),
(428,648,o),
(446,657,c),
(453,652,l),
(450,641,o),
(447,630,o),
(445,619,cs),
(442,604,o),
(441,589,o),
(440,574,cs),
(438,555,o),
(437,536,o),
(450,519,cs),
(456,511,o),
(462,502,o),
(466,494,cs),
(478,475,o),
(489,456,o),
(500,437,cs),
(510,420,o),
(519,402,o),
(528,383,cs),
(530,377,o),
(533,371,o),
(534,364,c),
(569,374,l),
(568,375,o),
(567,377,o),
(566,379,cs),
(556,406,o),
(568,420,o),
(596,416,c),
(598,415,o),
(605,422,o),
(605,425,cs),
(604,450,o),
(602,475,o),
(599,500,c),
(596,513,o),
(593,527,o),
(589,539,c),
(583,537,o),
(580,534,o),
(580,531,cs),
(579,516,o),
(579,501,o),
(580,486,cs),
(582,463,o),
(576,445,o),
(558,435,c),
(549,456,o),
(539,476,o),
(531,497,cs),
(530,500,o),
(535,507,o),
(538,509,cs),
(551,515,o),
(554,520,o),
(550,534,cs),
(549,540,o),
(548,545,o),
(548,551,cs),
(547,572,o),
(547,593,o),
(544,614,cs),
(542,630,o),
(534,645,o),
(532,660,cs),
(531,671,o),
(535,682,o),
(535,693,cs),
(536,717,o),
(536,741,o),
(536,764,c),
(508,757,l),
(520,749,o),
(512,739,o),
(508,729,cs),
(507,725,o),
(506,721,o),
(506,717,cs),
(512,625,ls),
(512,611,o),
(514,596,o),
(516,581,cs),
(518,566,o),
(522,552,o),
(524,537,cs),
(525,533,o),
(524,528,o),
(522,525,c),
(518,524,o),
(513,524,o),
(510,527,cs),
(498,538,o),
(487,549,o),
(485,565,cs),
(480,607,o),
(476,649,o),
(472,691,c),
(445,690,o),
(445,689,o),
(423,676,cs),
(411,670,o),
(398,663,o),
(384,671,cs),
(375,676,o),
(373,669,o),
(369,664,cs),
(362,654,o),
(355,645,o),
(348,636,c),
(346,638,l),
(350,660,l),
(344,653,o),
(337,647,o),
(329,642,cs),
(318,636,o),
(311,625,o),
(312,612,c),
(311,606,o),
(311,599,o),
(310,592,c),
(307,594,o),
(303,596,o),
(299,598,c),
(289,606,o),
(293,626,o),
(276,629,cs),
(275,629,o),
(275,633,o),
(275,635,cs),
(275,640,o),
(275,645,o),
(274,650,cs),
(273,654,o),
(272,657,o),
(270,661,c),
(267,660,o),
(262,659,o),
(260,656,cs),
(254,649,o),
(249,652,o),
(244,656,cs),
(214,683,l),
(209,681,l),
(207,671,o),
(206,660,o),
(207,650,c),
(210,641,o),
(214,633,o),
(218,625,c),
(217,621,l),
(208,632,o),
(204,627,o),
(202,620,cs),
(198,606,o),
(195,592,o),
(192,578,cs),
(191,572,o),
(191,566,o),
(192,559,c),
(198,563,o),
(204,566,o),
(210,569,c),
(217,569,l),
(213,563,o),
(211,558,o),
(208,553,c),
(206,547,o),
(203,540,o),
(200,533,c),
(207,529,o),
(211,528,o),
(215,537,cs),
(219,546,o),
(223,555,o),
(228,563,c),
(232,562,l),
(226,574,l),
(240,580,l),
(242,577,o),
(245,575,o),
(248,573,cs),
(255,567,o),
(266,562,o),
(267,555,cs),
(269,541,o),
(268,526,o),
(265,511,c),
(265,506,o),
(257,503,o),
(252,498,c),
(250,497,o),
(248,494,o),
(247,492,cs),
(240,469,o),
(222,457,o),
(201,446,c),
(201,456,o),
(204,466,o),
(201,473,cs),
(195,489,o),
(200,495,o),
(215,500,c),
(208,502,o),
(200,505,o),
(196,502,cs),
(191,497,o),
(185,486,o),
(188,482,cs),
(193,473,o),
(190,466,o),
(186,458,cs),
(183,451,o),
(183,444,o),
(184,436,c),
(187,428,o),
(190,421,o),
(195,414,c),
(198,407,o),
(199,401,o),
(188,399,cs),
(176,396,o),
(167,387,o),
(166,375,cs),
(164,365,o),
(157,356,o),
(153,347,cs),
(152,343,o),
(150,338,o),
(148,333,c),
(145,333,o),
(142,334,o),
(139,334,cs),
(130,335,o),
(121,337,o),
(113,341,cs),
(98,348,o),
(86,363,o),
(67,361,cs),
(63,361,o),
(58,362,o),
(57,361,c),
(56,357,o),
(56,353,o),
(56,349,c),
(57,346,o),
(58,344,o),
(60,341,c),
(56,338,l),
(36,358,l),
(1,359,l),
(4,349,o),
(4,337,o),
(10,330,cs),
(24,315,o),
(23,298,o),
(25,279,cs),
(27,267,o),
(32,255,o),
(37,244,cs),
(39,241,o),
(42,240,o),
(45,240,c),
(53,248,o),
(64,243,o),
(73,245,cs),
(103,250,o),
(134,255,o),
(164,262,cs),
(169,263,o),
(173,264,o),
(178,264,c),
(175,260,o),
(172,255,o),
(168,251,cs),
(163,247,o),
(163,240,o),
(154,241,cs),
(152,241,o),
(149,237,o),
(148,234,cs),
(143,221,o),
(154,219,o),
(160,215,c),
(190,259,l),
(192,256,o),
(193,252,o),
(195,249,c),
(196,233,o),
(186,223,o),
(177,212,c),
(175,208,o),
(173,204,o),
(172,199,c),
(176,199,o),
(179,200,o),
(183,200,c),
(192,203,o),
(197,200,o),
(198,190,cs),
(201,172,o),
(191,157,o),
(185,142,cs),
(178,125,o),
(168,110,o),
(160,94,cs),
(158,90,o),
(157,85,o),
(158,81,c),
(158,72,o),
(160,62,o),
(160,52,c),
(169,52,l),
(187,94,l),
(189,76,o),
(215,71,o),
(205,49,c),
(234,47,l),
(245,58,o),
(244,73,o),
(245,87,cs),
(246,99,o),
(246,110,o),
(248,121,cs),
(249,127,o),
(251,132,o),
(254,137,cs),
(255,138,o),
(256,140,o),
(257,142,c),
(257,125,o),
(247,107,o),
(270,98,c),
(269,82,o),
(284,82,o),
(292,75,cs),
(301,67,o),
(312,60,o),
(314,51,cs),
(318,37,o),
(326,34,o),
(342,30,c),
(340,34,o),
(340,38,o),
(339,41,c),
(340,41,l),
(349,54,o),
(334,76,o),
(357,85,c),
(364,72,o),
(370,59,o),
(377,45,c),
(389,56,l),
(416,28,o),
(447,28,o),
(481,46,c),
(483,42,o),
(486,39,o),
(489,36,c),
(498,40,l),
(510,27,l),
(514,25,o),
(521,21,o),
(523,22,c)
);
},
{
closed = 1;
nodes = (
(329,65,l),
(333,61,l),
(333,59,o),
(333,58,o),
(332,56,c)
);
},
{
closed = 1;
nodes = (
(259,169,o),
(256,169,o),
(254,170,c),
(252,176,o),
(248,180,o),
(242,183,cs),
(228,190,o),
(212,195,o),
(211,219,c),
(222,215,o),
(231,211,o),
(240,205,cs),
(247,199,o),
(253,198,o),
(257,205,cs),
(260,210,o),
(263,216,o),
(266,221,c),
(267,220,l),
(269,213,o),
(269,207,o),
(266,200,c),
(263,178,ls),
(263,175,o),
(262,172,o),
(261,168,c)
);
},
{
closed = 1;
nodes = (
(272,276,o),
(265,281,o),
(257,287,c),
(256,287,o),
(255,288,o),
(254,288,c),
(263,305,o),
(278,317,o),
(280,337,c),
(284,353,ls),
(287,361,o),
(290,369,o),
(292,377,c),
(290,368,o),
(289,359,o),
(288,350,cs),
(279,269,l)
);
},
{
closed = 1;
nodes = (
(239,317,o),
(238,319,o),
(236,321,c),
(234,320,o),
(232,318,o),
(230,315,c),
(227,320,o),
(224,325,o),
(222,330,cs),
(219,337,l),
(223,348,o),
(227,358,o),
(233,368,cs),
(236,373,o),
(237,379,o),
(237,385,c),
(237,385,o),
(229,387,o),
(228,386,cs),
(225,383,o),
(223,379,o),
(222,374,c),
(213,348,l),
(208,354,o),
(203,355,o),
(191,352,c),
(190,353,l),
(190,353,o),
(189,352,o),
(189,351,c),
(180,348,l),
(181,345,o),
(183,342,o),
(185,339,c),
(183,336,o),
(182,332,o),
(181,329,c),
(177,329,o),
(173,330,o),
(168,330,c),
(170,335,o),
(172,339,o),
(173,344,cs),
(176,365,o),
(180,368,o),
(201,363,c),
(200,369,o),
(197,375,o),
(198,380,c),
(203,390,o),
(207,400,o),
(213,409,cs),
(216,414,o),
(214,425,o),
(224,422,c),
(228,420,o),
(231,412,o),
(234,406,c),
(235,406,o),
(236,406,o),
(239,405,c),
(239,413,o),
(239,420,o),
(240,428,c),
(250,428,l),
(250,430,o),
(251,432,o),
(250,434,cs),
(239,451,o),
(249,460,o),
(263,469,cs),
(268,472,o),
(272,478,o),
(274,485,c),
(277,506,o),
(276,506,o),
(299,511,c),
(299,506,o),
(300,500,o),
(302,495,c),
(301,479,o),
(302,462,o),
(300,446,cs),
(299,433,o),
(297,420,o),
(296,407,c),
(283,409,o),
(287,389,o),
(279,388,c),
(279,382,o),
(280,376,o),
(280,370,c),
(278,368,o),
(275,368,o),
(272,368,c),
(266,372,o),
(261,376,o),
(257,381,c),
(255,385,o),
(256,391,o),
(256,395,c),
(258,402,o),
(259,408,o),
(259,415,c),
(258,419,o),
(253,423,o),
(250,428,c),
(247,367,ls),
(247,364,o),
(246,361,o),
(244,359,cs),
(236,351,o),
(237,343,o),
(241,333,cs),
(243,327,o),
(243,321,o),
(240,315,c),
(240,314,l)
);
},
{
closed = 1;
nodes = (
(293,535,o),
(293,536,o),
(303,546,c),
(304,548,o),
(305,549,o),
(306,550,c),
(305,543,o),
(305,535,o),
(304,527,c)
);
},
{
closed = 1;
nodes = (
(224,576,o),
(220,577,o),
(219,579,cs),
(213,594,o),
(221,611,o),
(235,617,cs),
(241,619,o),
(246,622,o),
(251,625,c),
(270,608,o),
(263,608,o),
(256,574,c),
(256,581,o),
(256,588,o),
(255,595,cs),
(254,604,o),
(249,608,o),
(239,609,c),
(226,574,l)
);
}
);
width = 911;
}
);
note = E;
unicode = (69,101,200,201,202,203,232,233,234,235);
},
{
glyphname = F;
lastChange = "2022-12-26 01:24:02 +0000";
layers = (
{
layerId = m01;
shapes = (
{
closed = 1;
nodes = (
(179,-157,l),
(183,-160,o),
(186,-159,o),
(188,-153,c),
(190,-150,o),
(192,-146,o),
(194,-143,cs),
(202,-131,l),
(203,-124,o),
(206,-118,o),
(209,-112,cs),
(212,-108,o),
(213,-104,o),
(213,-100,c),
(215,-92,o),
(214,-83,o),
(223,-77,c),
(223,-73,ls),
(224,-69,o),
(225,-65,o),
(230,-63,c),
(231,-62,o),
(232,-61,o),
(233,-59,c),
(247,-44,l),
(246,-38,o),
(247,-32,o),
(250,-27,cs),
(252,-22,o),
(255,-17,o),
(257,-12,cs),
(258,-9,o),
(256,-5,o),
(258,-3,c),
(261,3,o),
(264,10,o),
(266,17,cs),
(268,22,o),
(271,28,o),
(275,32,c),
(278,38,o),
(281,45,o),
(290,46,c),
(290,46,o),
(291,47,o),
(291,48,c),
(294,53,o),
(295,60,o),
(301,63,cs),
(304,65,o),
(307,68,o),
(310,71,cs),
(314,76,o),
(321,78,o),
(328,77,c),
(331,79,l),
(326,81,l),
(326,83,l),
(330,85,o),
(335,86,o),
(339,88,c),
(340,89,o),
(341,91,o),
(341,93,c),
(340,94,o),
(338,95,o),
(337,95,c),
(333,93,o),
(329,91,o),
(325,88,cs),
(322,86,o),
(319,82,o),
(316,80,cs),
(309,74,o),
(302,69,o),
(295,64,cs),
(293,63,o),
(292,62,o),
(291,62,c),
(287,70,o),
(287,79,o),
(291,87,c),
(291,90,o),
(293,92,o),
(294,95,c),
(299,96,o),
(304,99,o),
(308,103,c),
(311,109,l),
(317,114,o),
(324,118,o),
(332,120,cs),
(335,121,o),
(339,123,o),
(342,125,cs),
(347,128,o),
(355,132,o),
(355,139,cs),
(354,147,o),
(360,151,o),
(364,156,cs),
(368,161,o),
(372,166,o),
(376,170,c),
(372,172,o),
(369,173,o),
(366,175,c),
(371,182,o),
(375,189,o),
(380,197,cs),
(396,224,ls),
(399,229,o),
(402,234,o),
(405,239,cs),
(429,275,ls),
(436,285,o),
(443,296,o),
(449,307,cs),
(451,311,o),
(455,314,o),
(459,315,cs),
(463,316,o),
(467,317,o),
(471,319,cs),
(473,320,o),
(475,321,o),
(477,323,c),
(458,333,l),
(469,341,o),
(481,340,o),
(492,343,c),
(492,344,l),
(485,346,l),
(491,350,o),
(496,353,o),
(501,357,cs),
(519,375,ls),
(528,384,o),
(537,394,o),
(547,402,cs),
(555,409,o),
(564,415,o),
(572,421,cs),
(580,428,o),
(587,434,o),
(595,441,c),
(609,450,ls),
(614,454,o),
(619,459,o),
(625,463,cs),
(635,469,o),
(645,475,o),
(656,481,c),
(654,483,o),
(652,484,o),
(649,485,cs),
(639,489,o),
(628,489,o),
(617,487,cs),
(575,477,o),
(535,457,o),
(502,429,cs),
(494,422,o),
(482,418,o),
(480,405,c),
(479,405,l),
(475,401,o),
(470,396,o),
(465,392,cs),
(458,385,o),
(452,377,o),
(445,370,cs),
(442,367,o),
(440,364,o),
(437,360,cs),
(432,355,ls),
(429,353,o),
(426,351,o),
(423,348,cs),
(416,340,o),
(410,332,o),
(404,323,cs),
(400,315,o),
(392,308,o),
(383,305,c),
(381,305,o),
(380,303,o),
(379,302,c),
(377,296,o),
(373,292,o),
(368,289,c),
(371,295,l),
(372,296,o),
(373,297,o),
(373,298,c),
(371,304,o),
(376,307,o),
(378,311,cs),
(381,316,o),
(388,320,o),
(384,328,c),
(380,328,o),
(377,326,o),
(375,323,cs),
(372,319,o),
(368,316,o),
(363,314,cs),
(354,310,o),
(347,304,o),
(343,295,cs),
(342,293,o),
(342,291,o),
(343,289,cs),
(344,285,o),
(344,283,o),
(341,281,c),
(338,280,o),
(338,278,o),
(339,276,c),
(338,276,o),
(337,275,o),
(336,274,c),
(334,279,o),
(331,284,o),
(334,290,c),
(334,292,o),
(335,295,o),
(334,297,c),
(332,297,o),
(330,297,o),
(327,296,cs),
(325,295,o),
(322,295,o),
(319,296,cs),
(316,297,o),
(314,299,o),
(313,302,c),
(311,300,l),
(311,294,o),
(312,288,o),
(312,282,c),
(313,280,l),
(312,281,o),
(311,283,o),
(310,285,c),
(307,287,o),
(305,290,o),
(302,293,c),
(303,294,o),
(303,295,o),
(304,295,c),
(305,297,o),
(305,299,o),
(306,301,c),
(304,301,l),
(299,296,l),
(285,312,ls),
(281,317,o),
(276,323,o),
(271,328,c),
(272,332,o),
(272,336,o),
(273,339,c),
(276,358,l),
(277,361,o),
(277,363,o),
(277,366,cs),
(277,380,ls),
(277,381,o),
(279,383,o),
(281,385,c),
(295,368,l),
(299,377,l),
(298,377,l),
(306,379,l),
(301,384,o),
(301,385,o),
(307,387,cs),
(313,388,o),
(317,393,o),
(319,399,c),
(319,401,o),
(320,402,o),
(321,403,c),
(323,407,o),
(326,411,o),
(329,415,cs),
(331,419,o),
(334,422,o),
(336,425,c),
(344,430,o),
(349,440,o),
(348,450,cs),
(348,455,o),
(348,461,o),
(348,468,c),
(346,468,ls),
(337,467,o),
(329,460,o),
(327,452,cs),
(327,451,o),
(326,450,o),
(326,449,c),
(320,445,o),
(316,438,o),
(315,430,cs),
(315,428,o),
(313,425,o),
(311,424,c),
(304,417,o),
(297,411,o),
(290,405,cs),
(288,403,o),
(286,403,o),
(284,403,c),
(283,405,o),
(284,407,o),
(284,409,cs),
(285,414,o),
(287,418,o),
(287,423,cs),
(287,427,o),
(285,431,o),
(286,436,cs),
(287,444,o),
(289,447,o),
(297,446,c),
(304,456,o),
(304,457,o),
(295,458,c),
(295,463,l),
(297,471,o),
(294,481,o),
(306,485,c),
(307,485,o),
(309,489,o),
(309,491,c),
(308,493,o),
(306,494,o),
(304,496,cs),
(300,500,l),
(299,502,o),
(300,505,o),
(299,507,c),
(296,510,o),
(296,514,o),
(298,518,cs),
(299,522,o),
(301,525,o),
(303,528,c),
(298,534,o),
(289,538,o),
(299,546,cs),
(304,550,o),
(309,553,o),
(314,556,c),
(308,556,l),
(304,557,o),
(302,565,o),
(304,570,cs),
(305,572,o),
(304,575,o),
(303,577,c),
(298,580,o),
(298,580,o),
(298,586,c),
(312,582,l),
(316,572,l),
(331,569,o),
(335,573,o),
(332,586,c),
(335,591,o),
(339,596,o),
(341,601,c),
(342,602,o),
(341,605,o),
(339,607,c),
(338,609,o),
(337,612,o),
(336,614,c),
(341,614,l),
(342,613,o),
(344,613,o),
(345,613,c),
(347,611,l),
(348,612,o),
(348,612,o),
(349,613,c),
(361,613,ls),
(363,613,o),
(366,615,o),
(367,617,c),
(372,621,o),
(376,627,o),
(381,632,cs),
(385,636,o),
(387,635,o),
(390,630,c),
(392,630,o),
(394,631,o),
(396,631,cs),
(417,631,o),
(439,631,o),
(460,632,cs),
(468,632,o),
(475,633,o),
(482,634,c),
(486,629,o),
(491,627,o),
(496,626,c),
(499,627,o),
(502,625,o),
(504,622,c),
(510,618,o),
(517,615,o),
(524,613,c),
(528,616,o),
(532,619,o),
(536,623,cs),
(539,626,o),
(543,629,o),
(546,631,cs),
(560,643,l),
(565,646,o),
(570,649,o),
(574,653,cs),
(579,657,o),
(582,662,o),
(587,664,cs),
(601,670,o),
(609,682,o),
(620,690,cs),
(626,695,o),
(632,701,o),
(637,707,c),
(646,714,o),
(654,722,o),
(662,729,cs),
(672,738,ls),
(676,741,o),
(680,745,o),
(685,748,c),
(688,751,o),
(693,754,o),
(695,757,cs),
(700,767,o),
(704,777,o),
(708,788,c),
(675,775,l),
(675,778,l),
(667,775,o),
(660,772,o),
(653,770,cs),
(645,767,o),
(638,765,o),
(631,762,cs),
(621,759,o),
(612,755,o),
(602,752,cs),
(590,749,o),
(578,745,o),
(566,743,cs),
(554,740,o),
(541,739,o),
(529,736,cs),
(523,735,o),
(517,731,o),
(511,729,cs),
(504,727,o),
(496,725,o),
(488,724,cs),
(477,722,o),
(480,722,o),
(479,713,cs),
(478,707,o),
(477,701,o),
(474,695,cs),
(471,690,o),
(467,686,o),
(463,682,cs),
(460,679,l),
(457,672,o),
(450,667,o),
(442,667,cs),
(439,667,o),
(436,666,o),
(433,665,c),
(421,665,ls),
(416,665,o),
(412,665,o),
(408,665,c),
(394,662,l),
(388,662,o),
(382,662,o),
(376,661,cs),
(340,652,l),
(336,650,o),
(332,647,o),
(328,644,cs),
(324,642,o),
(319,639,o),
(314,636,cs),
(308,633,l),
(308,634,o),
(309,635,o),
(309,637,c),
(252,615,l),
(250,616,o),
(247,616,o),
(244,616,cs),
(234,616,o),
(224,614,o),
(214,613,cs),
(207,613,o),
(200,614,o),
(194,616,c),
(192,614,o),
(189,611,o),
(187,609,cs),
(184,607,l),
(183,607,o),
(182,607,o),
(182,606,c),
(180,602,o),
(178,598,o),
(176,593,cs),
(170,579,l),
(170,579,o),
(169,579,o),
(167,578,c),
(168,586,o),
(164,593,o),
(172,600,cs),
(176,603,o),
(179,607,o),
(183,611,c),
(185,616,l),
(185,617,o),
(185,618,o),
(186,619,cs),
(191,625,o),
(196,631,o),
(200,637,cs),
(204,642,o),
(208,647,o),
(211,652,c),
(213,654,o),
(215,656,o),
(218,658,cs),
(226,663,o),
(231,671,o),
(232,681,cs),
(232,684,o),
(234,687,o),
(235,690,c),
(234,691,l),
(228,685,o),
(219,683,o),
(215,675,cs),
(213,672,o),
(212,668,o),
(210,666,cs),
(202,659,o),
(194,654,o),
(186,647,cs),
(182,644,o),
(179,640,o),
(175,637,c),
(173,634,o),
(170,633,o),
(167,631,cs),
(164,629,o),
(160,627,o),
(161,622,c),
(162,620,o),
(160,617,o),
(159,615,cs),
(158,611,o),
(156,608,o),
(155,604,cs),
(155,601,o),
(155,600,o),
(151,600,cs),
(150,600,o),
(149,598,o),
(147,597,c),
(154,593,o),
(150,587,o),
(152,582,c),
(152,580,o),
(153,578,o),
(154,577,cs),
(160,569,l),
(163,573,o),
(168,576,o),
(174,570,c),
(171,567,o),
(164,572,o),
(163,564,c),
(167,563,l),
(165,559,l),
(169,555,l),
(174,559,o),
(177,564,o),
(182,568,c),
(181,563,o),
(182,558,o),
(184,553,cs),
(185,550,o),
(186,547,o),
(186,544,cs),
(186,538,o),
(187,531,o),
(187,524,cs),
(187,523,o),
(188,521,o),
(189,520,cs),
(195,516,o),
(196,511,o),
(195,505,cs),
(194,498,o),
(191,490,o),
(200,486,c),
(198,483,o),
(196,482,o),
(195,479,c),
(195,477,o),
(196,475,o),
(197,473,c),
(193,473,o),
(189,475,o),
(186,476,c),
(180,481,o),
(175,485,o),
(171,490,c),
(165,495,o),
(161,500,o),
(156,506,cs),
(151,511,o),
(146,517,o),
(140,522,c),
(135,529,o),
(130,535,o),
(124,541,cs),
(117,547,o),
(110,552,o),
(102,557,c),
(100,555,l),
(101,553,o),
(101,551,o),
(102,549,cs),
(104,546,o),
(107,544,o),
(109,541,cs),
(115,531,o),
(120,520,o),
(125,509,c),
(130,504,ls),
(132,502,o),
(134,499,o),
(131,497,cs),
(127,495,o),
(122,493,o),
(117,492,cs),
(112,491,o),
(106,491,o),
(101,490,cs),
(92,488,o),
(89,479,o),
(84,473,cs),
(78,464,o),
(72,454,o),
(67,444,cs),
(66,442,o),
(64,441,o),
(62,440,c),
(63,442,o),
(63,445,o),
(64,448,cs),
(65,451,o),
(67,454,o),
(66,456,cs),
(64,459,o),
(61,462,o),
(58,465,cs),
(50,472,o),
(40,469,o),
(31,466,c),
(30,466,o),
(29,465,o),
(28,464,c),
(30,463,o),
(32,461,o),
(34,460,c),
(49,438,ls),
(50,437,o),
(51,436,o),
(52,436,c),
(56,434,o),
(59,433,o),
(64,431,c),
(66,434,o),
(69,435,o),
(73,436,cs),
(76,436,o),
(79,435,o),
(82,433,c),
(81,446,o),
(90,451,o),
(101,454,c),
(105,457,ls),
(109,460,o),
(113,462,o),
(117,464,c),
(126,466,o),
(134,469,o),
(142,473,cs),
(151,477,o),
(154,477,o),
(159,470,cs),
(163,464,o),
(169,461,o),
(175,462,cs),
(178,462,o),
(181,461,o),
(183,459,cs),
(186,455,o),
(188,456,o),
(192,456,cs),
(193,456,o),
(196,455,o),
(197,454,c),
(198,451,o),
(199,446,o),
(198,444,c),
(193,439,o),
(197,435,o),
(198,431,c),
(198,426,o),
(199,422,o),
(200,418,c),
(194,412,o),
(185,411,o),
(178,414,cs),
(175,416,o),
(171,415,o),
(169,412,c),
(164,408,o),
(159,403,o),
(154,398,c),
(153,398,o),
(153,396,o),
(153,395,c),
(157,395,o),
(161,396,o),
(165,396,cs),
(178,396,ls),
(183,396,o),
(188,396,o),
(193,395,cs),
(195,395,o),
(197,393,o),
(197,391,c),
(200,387,o),
(202,382,o),
(204,377,c),
(203,375,o),
(203,372,o),
(202,370,cs),
(201,367,o),
(201,363,o),
(202,360,c),
(205,355,o),
(209,350,o),
(213,345,c),
(212,344,l),
(210,344,o),
(208,346,o),
(207,347,cs),
(204,350,o),
(201,353,o),
(199,356,cs),
(194,365,o),
(186,373,o),
(178,379,cs),
(175,381,o),
(173,382,o),
(170,382,c),
(172,368,o),
(173,355,o),
(175,342,c),
(166,343,l),
(166,344,o),
(166,346,o),
(165,348,c),
(160,346,l),
(152,338,o),
(142,332,o),
(131,328,c),
(130,328,o),
(128,327,o),
(127,326,cs),
(126,324,o),
(126,323,o),
(126,322,c),
(127,321,o),
(128,320,o),
(129,320,cs),
(136,320,o),
(142,321,o),
(149,323,cs),
(161,326,o),
(174,329,o),
(181,342,cs),
(183,345,o),
(186,345,o),
(188,342,cs),
(191,336,l),
(193,335,o),
(195,333,o),
(197,331,c),
(192,330,o),
(188,329,o),
(184,327,cs),
(177,325,o),
(171,321,o),
(165,318,cs),
(154,314,o),
(144,309,o),
(134,305,cs),
(132,304,o),
(129,303,o),
(128,301,c),
(121,295,o),
(113,294,o),
(105,297,c),
(100,289,o),
(100,289,o),
(105,285,c),
(108,288,o),
(108,288,o),
(112,287,cs),
(118,285,o),
(124,284,o),
(130,284,cs),
(141,283,o),
(153,283,o),
(164,283,cs),
(172,283,o),
(179,282,o),
(187,282,cs),
(191,282,o),
(196,283,o),
(201,282,cs),
(202,282,l),
(203,282,l),
(194,273,o),
(185,266,o),
(177,258,c),
(178,256,l),
(181,256,o),
(184,257,o),
(186,258,c),
(191,259,o),
(194,258,o),
(194,253,c),
(195,251,o),
(196,250,o),
(197,249,cs),
(202,246,o),
(204,239,o),
(201,234,c),
(211,230,l),
(211,229,l),
(205,226,ls),
(201,224,o),
(197,220,o),
(193,217,c),
(190,211,o),
(185,207,o),
(179,204,cs),
(173,202,o),
(167,201,o),
(161,201,cs),
(160,201,ls),
(152,200,o),
(145,205,o),
(143,213,c),
(133,215,o),
(133,215,o),
(129,211,c),
(135,207,o),
(135,200,o),
(129,198,cs),
(124,196,o),
(121,192,o),
(121,187,cs),
(120,178,o),
(113,171,o),
(109,163,c),
(109,162,o),
(108,162,o),
(107,161,c),
(101,159,o),
(97,155,o),
(98,150,c),
(96,148,o),
(93,147,o),
(91,146,cs),
(87,143,o),
(82,139,o),
(76,140,cs),
(73,140,o),
(71,139,o),
(69,138,c),
(68,136,l),
(73,137,o),
(75,135,o),
(72,129,c),
(81,133,o),
(89,135,o),
(96,138,cs),
(100,140,o),
(104,144,o),
(108,146,cs),
(114,149,o),
(114,148,o),
(116,142,c),
(124,141,o),
(125,149,o),
(131,152,c),
(125,155,o),
(121,145,o),
(116,151,c),
(117,152,o),
(118,153,o),
(119,155,c),
(123,158,o),
(126,163,o),
(127,168,cs),
(129,183,o),
(136,186,o),
(146,189,cs),
(152,190,o),
(156,186,o),
(158,181,c),
(152,178,l),
(149,173,o),
(143,171,o),
(138,172,c),
(136,173,o),
(134,171,o),
(131,170,c),
(132,168,l),
(138,168,ls),
(145,167,o),
(152,170,o),
(157,174,c),
(160,178,o),
(163,181,o),
(166,184,cs),
(169,187,o),
(171,189,o),
(174,192,cs),
(178,196,l),
(179,195,l),
(179,189,l),
(185,190,o),
(185,195,o),
(188,198,cs),
(191,202,o),
(193,208,o),
(200,207,cs),
(204,206,o),
(205,207,o),
(207,210,cs),
(212,216,o),
(216,223,o),
(224,226,c),
(225,226,o),
(226,227,o),
(226,228,c),
(231,234,o),
(238,234,o),
(245,233,cs),
(251,231,o),
(252,226,o),
(253,221,c),
(247,217,l),
(248,217,o),
(248,216,o),
(248,216,c),
(250,216,o),
(252,216,o),
(254,217,cs),
(257,219,o),
(259,218,o),
(260,215,c),
(263,210,o),
(264,205,o),
(261,200,c),
(258,197,o),
(255,194,o),
(251,192,c),
(250,192,o),
(249,193,o),
(249,193,c),
(250,196,o),
(251,200,o),
(253,203,c),
(251,204,l),
(227,177,l),
(233,177,o),
(239,179,o),
(244,183,c),
(248,189,o),
(255,191,o),
(261,190,c),
(255,176,l),
(258,174,o),
(259,172,o),
(261,170,c),
(259,167,ls),
(257,165,o),
(255,162,o),
(252,159,cs),
(243,149,l),
(238,146,o),
(234,143,o),
(229,139,c),
(229,139,o),
(229,138,o),
(230,138,c),
(237,141,o),
(244,131,o),
(251,140,c),
(255,138,l),
(254,137,o),
(252,137,o),
(251,136,c),
(249,132,o),
(247,130,o),
(243,133,cs),
(242,134,o),
(240,133,o),
(239,133,c),
(240,130,o),
(243,128,o),
(247,128,cs),
(249,128,l),
(248,127,ls),
(247,125,o),
(245,123,o),
(242,122,c),
(240,125,o),
(237,128,o),
(236,132,c),
(231,124,l),
(223,127,o),
(214,125,o),
(206,120,cs),
(205,119,o),
(204,119,o),
(202,119,c),
(201,118,o),
(200,118,o),
(199,118,cs),
(195,119,o),
(191,119,o),
(187,120,cs),
(185,120,o),
(184,119,o),
(183,118,c),
(183,116,o),
(183,115,o),
(184,113,c),
(185,113,o),
(187,112,o),
(188,111,c),
(183,106,l),
(194,102,o),
(199,104,o),
(201,115,c),
(205,111,o),
(209,108,o),
(212,105,c),
(216,109,l),
(221,101,l),
(220,100,o),
(220,100,o),
(220,100,c),
(210,82,l),
(209,81,o),
(209,80,o),
(209,79,c),
(211,74,o),
(208,74,o),
(204,72,cs),
(201,71,o),
(198,70,o),
(195,67,cs),
(192,63,o),
(190,59,o),
(189,54,cs),
(188,48,o),
(184,42,o),
(191,38,c),
(190,36,o),
(188,36,o),
(188,34,c),
(185,29,o),
(179,26,o),
(173,28,c),
(172,28,o),
(170,26,o),
(170,25,c),
(169,24,o),
(170,23,o),
(170,21,c),
(165,23,o),
(161,25,o),
(164,31,c),
(164,32,o),
(162,34,o),
(162,36,c),
(160,36,l),
(159,28,o),
(156,21,o),
(147,20,c),
(147,20,o),
(146,16,o),
(147,16,c),
(151,13,o),
(157,13,o),
(161,16,cs),
(162,17,o),
(164,18,o),
(166,18,c),
(165,13,o),
(165,8,o),
(164,4,c),
(169,2,o),
(169,-2,o),
(168,-8,c),
(166,-4,o),
(164,-2,o),
(162,1,c),
(160,-6,o),
(161,-13,o),
(155,-17,c),
(150,-8,l),
(148,-8,l),
(148,-12,o),
(147,-16,o),
(148,-20,cs),
(150,-25,o),
(146,-27,o),
(144,-31,c),
(144,-31,o),
(145,-32,o),
(145,-33,cs),
(145,-34,o),
(145,-36,o),
(144,-37,c),
(141,-35,o),
(139,-33,o),
(137,-31,c),
(135,-27,o),
(131,-24,o),
(135,-19,cs),
(136,-17,o),
(133,-12,o),
(131,-9,c),
(131,-8,o),
(127,-9,o),
(125,-9,cs),
(122,-9,o),
(119,-11,o),
(117,-10,cs),
(110,-6,o),
(102,-7,o),
(96,-12,cs),
(93,-14,o),
(91,-17,o),
(89,-20,c),
(93,-23,l),
(91,-24,o),
(89,-25,o),
(87,-24,c),
(78,-24,ls),
(76,-24,o),
(73,-25,o),
(71,-26,c),
(69,-26,o),
(66,-28,o),
(65,-30,cs),
(63,-34,o),
(63,-40,o),
(61,-44,cs),
(56,-54,o),
(52,-63,o),
(47,-72,c),
(50,-75,o),
(54,-75,o),
(58,-73,c),
(62,-73,ls),
(67,-74,o),
(71,-74,o),
(75,-73,c),
(80,-70,o),
(85,-67,o),
(89,-63,cs),
(95,-58,o),
(99,-52,o),
(107,-50,c),
(109,-50,o),
(110,-49,o),
(111,-49,c),
(116,-46,o),
(122,-38,o),
(121,-33,cs),
(119,-27,o),
(124,-22,o),
(125,-17,c),
(126,-16,o),
(128,-16,o),
(130,-15,c),
(130,-20,ls),
(130,-21,o),
(128,-22,o),
(128,-23,cs),
(131,-34,ls),
(132,-36,o),
(134,-38,o),
(136,-40,c),
(129,-40,l),
(130,-43,o),
(131,-45,o),
(132,-49,c),
(138,-40,l),
(140,-40,l),
(140,-45,o),
(139,-50,o),
(138,-55,c),
(139,-55,l),
(147,-45,l),
(149,-45,l),
(149,-50,o),
(150,-55,o),
(150,-61,c),
(146,-60,o),
(143,-60,o),
(144,-65,cs),
(144,-66,o),
(141,-68,o),
(140,-68,cs),
(137,-67,o),
(134,-65,o),
(133,-63,cs),
(131,-60,o),
(131,-57,o),
(132,-54,c),
(129,-54,o),
(126,-54,o),
(127,-59,cs),
(127,-61,o),
(127,-62,o),
(125,-63,c),
(120,-68,o),
(115,-72,o),
(117,-81,c),
(123,-81,l),
(120,-88,l),
(114,-87,o),
(109,-90,o),
(110,-95,cs),
(110,-99,o),
(110,-104,o),
(111,-109,cs),
(111,-112,l),
(109,-111,l),
(104,-106,l),
(100,-115,o),
(100,-116,o),
(108,-118,c),
(111,-118,o),
(115,-118,o),
(118,-117,c),
(118,-115,o),
(119,-113,o),
(120,-111,cs),
(121,-107,o),
(123,-103,o),
(126,-99,c),
(132,-102,l),
(131,-104,o),
(131,-105,o),
(130,-108,c),
(145,-114,ls),
(148,-115,o),
(151,-114,o),
(150,-110,cs),
(149,-105,o),
(152,-103,o),
(156,-105,c),
(157,-105,o),
(158,-106,o),
(157,-106,c),
(165,-100,l),
(166,-101,l),
(164,-107,o),
(164,-107,o),
(158,-110,c),
(154,-115,o),
(151,-121,o),
(150,-127,cs),
(150,-128,o),
(150,-128,o),
(151,-128,c),
(151,-127,l),
(174,-132,l),
(173,-135,o),
(172,-137,o),
(173,-139,c),
(173,-140,o),
(173,-142,o),
(172,-143,c),
(172,-144,o),
(170,-145,o),
(169,-145,cs),
(164,-146,o),
(165,-149,o),
(166,-152,c),
(166,-154,o),
(167,-155,o),
(168,-157,c),
(175,-155,l),
(174,-158,o),
(174,-160,o),
(174,-161,c),
(175,-162,l)
);
},
{
closed = 1;
nodes = (
(58,-59,l),
(69,-42,ls),
(70,-41,o),
(71,-40,o),
(73,-40,cs),
(74,-40,o),
(75,-40,o),
(77,-41,c),
(76,-43,o),
(76,-45,o),
(75,-46,cs),
(72,-50,o),
(69,-53,o),
(65,-57,c),
(59,-61,l)
);
},
{
closed = 1;
nodes = (
(134,-95,l),
(133,-94,o),
(132,-91,o),
(131,-89,c),
(133,-90,o),
(134,-90,o),
(136,-90,cs),
(139,-90,o),
(142,-91,o),
(145,-91,c),
(141,-86,o),
(142,-81,o),
(147,-79,c),
(151,-80,l),
(153,-84,o),
(155,-83,o),
(158,-83,cs),
(162,-83,o),
(165,-83,o),
(168,-84,c),
(168,-85,l),
(167,-86,o),
(166,-88,o),
(164,-89,c),
(163,-91,o),
(162,-92,o),
(161,-94,c),
(159,-91,ls),
(157,-86,o),
(155,-87,o),
(152,-90,cs),
(150,-93,o),
(147,-96,o),
(145,-98,c)
);
},
{
closed = 1;
nodes = (
(160,-34,o),
(157,-34,o),
(155,-33,cs),
(154,-32,o),
(152,-32,o),
(151,-31,c),
(151,-29,o),
(151,-27,o),
(152,-26,cs),
(154,-25,o),
(155,-24,o),
(157,-24,c),
(160,-25,o),
(163,-27,o),
(166,-29,cs),
(167,-30,o),
(168,-33,o),
(168,-35,c),
(167,-37,o),
(164,-38,o),
(161,-35,cs)
);
},
{
closed = 1;
nodes = (
(187,-36,o),
(187,-33,o),
(186,-31,c),
(184,-30,l),
(193,-20,l),
(195,-20,l),
(195,-23,o),
(198,-26,o),
(197,-28,c),
(196,-28,l),
(194,-32,o),
(195,-39,o),
(188,-39,c)
);
},
{
closed = 1;
nodes = (
(175,-13,l),
(174,-10,o),
(174,-6,o),
(173,-3,cs),
(172,-1,o),
(172,2,o),
(174,4,c),
(175,6,o),
(177,7,o),
(179,7,c),
(179,-14,l)
);
},
{
closed = 1;
nodes = (
(214,24,o),
(212,28,o),
(211,32,c),
(210,33,o),
(210,34,o),
(209,34,c),
(203,40,o),
(203,40,o),
(208,47,c),
(208,48,o),
(209,49,o),
(209,51,c),
(217,48,o),
(219,45,o),
(215,38,cs),
(213,35,o),
(215,34,o),
(215,31,c),
(217,28,o),
(218,24,o),
(219,20,c),
(216,19,l)
);
},
{
closed = 1;
nodes = (
(222,23,o),
(222,27,o),
(223,32,cs),
(223,34,o),
(224,36,o),
(224,36,c),
(226,36,o),
(228,36,o),
(229,35,c),
(235,18,l),
(233,18,l),
(230,21,l),
(221,16,l)
);
},
{
closed = 1;
nodes = (
(318,161,o),
(317,162,o),
(315,161,c),
(313,161,o),
(312,162,o),
(310,162,c),
(310,164,o),
(311,166,o),
(310,169,c),
(313,176,l),
(315,175,o),
(317,174,o),
(319,172,cs),
(322,170,o),
(324,168,o),
(327,166,c),
(320,160,l)
);
},
{
closed = 1;
nodes = (
(288,244,o),
(280,246,o),
(272,247,cs),
(270,247,o),
(267,248,o),
(266,250,cs),
(263,256,o),
(263,263,o),
(266,269,c),
(272,263,l),
(274,260,o),
(276,258,o),
(280,258,cs),
(282,258,o),
(285,258,o),
(287,256,cs),
(291,253,o),
(294,249,o),
(298,245,c),
(297,245,o),
(297,244,o),
(297,244,c),
(296,243,o),
(296,242,o),
(296,241,c)
);
},
{
closed = 1;
nodes = (
(191,596,o),
(192,600,o),
(194,600,c),
(199,602,o),
(204,601,o),
(209,599,c),
(190,592,l)
);
},
{
closed = 1;
nodes = (
(313,590,o),
(311,592,o),
(309,593,c),
(310,594,o),
(312,594,o),
(313,595,cs),
(316,597,o),
(319,598,o),
(322,600,c),
(322,595,ls),
(322,591,o),
(318,590,o),
(315,590,cs)
);
},
{
closed = 1;
nodes = (
(328,611,o),
(330,613,o),
(334,614,c),
(334,612,ls),
(334,610,o),
(330,608,o),
(328,607,c),
(327,607,o),
(327,606,o),
(326,606,c)
);
},
{
closed = 1;
nodes = (
(502,633,o),
(501,634,o),
(500,635,c),
(514,637,l),
(512,635,o),
(510,633,o),
(508,632,cs),
(506,631,o),
(504,631,o),
(503,632,cs)
);
},
{
closed = 1;
nodes = (
(537,654,o),
(538,655,o),
(538,657,c),
(540,660,o),
(544,663,o),
(541,668,c),
(532,667,o),
(522,666,o),
(512,664,cs),
(503,662,o),
(493,660,o),
(484,658,cs),
(473,655,l),
(471,655,o),
(469,656,o),
(468,657,c),
(468,658,o),
(469,661,o),
(470,662,cs),
(477,669,o),
(484,675,o),
(490,682,cs),
(493,685,o),
(496,687,o),
(499,689,cs),
(504,691,o),
(508,694,o),
(509,699,cs),
(509,701,o),
(510,702,o),
(511,703,c),
(523,707,o),
(534,713,o),
(545,717,cs),
(550,719,o),
(556,719,o),
(562,720,cs),
(577,724,o),
(592,729,o),
(607,733,cs),
(617,736,o),
(626,739,o),
(636,743,c),
(635,741,o),
(634,740,o),
(633,739,cs),
(628,734,o),
(624,729,o),
(620,724,cs),
(614,716,o),
(609,707,o),
(603,699,cs),
(601,696,o),
(598,693,o),
(594,691,c),
(588,686,o),
(581,682,o),
(575,677,cs),
(570,674,o),
(566,671,o),
(562,668,cs),
(555,664,o),
(547,660,o),
(541,655,c),
(539,655,o),
(538,654,o),
(537,653,c)
);
}
);
width = 622;
}
);
note = F;
unicode = (70,102);
},
{
glyphname = G;
lastChange = "2022-12-26 01:24:04 +0000";
layers = (
{
layerId = m01;
shapes = (
{
closed = 1;
nodes = (
(182,-33,o),
(188,-32,o),
(194,-30,cs),
(198,-29,o),
(202,-27,o),
(206,-25,c),
(206,-12,o),
(213,0,o),
(225,6,cs),
(277,34,o),
(328,64,o),
(380,93,c),
(387,96,o),
(398,96,o),
(405,98,cs),
(412,100,o),
(418,103,o),
(423,108,c),
(432,121,o),
(438,136,o),
(450,147,cs),
(456,153,o),
(473,150,o),
(484,152,cs),
(497,153,o),
(510,154,o),
(522,156,cs),
(539,158,o),
(555,161,o),
(572,163,cs),
(577,164,o),
(582,164,o),
(587,165,cs),
(599,166,o),
(618,164,o),
(623,170,c),
(646,192,o),
(664,217,o),
(683,241,c),
(644,273,l),
(644,272,o),
(645,270,o),
(645,268,c),
(629,271,o),
(610,270,o),
(597,278,cs),
(564,297,o),
(564,285,o),
(557,278,cs),
(549,271,o),
(546,260,o),
(534,259,cs),
(497,255,o),
(460,255,o),
(424,259,cs),
(372,266,o),
(323,272,o),
(294,254,c),
(293,253,o),
(292,252,o),
(291,252,c),
(290,251,ls),
(278,238,o),
(281,224,o),
(279,211,c),
(302,201,o),
(326,196,o),
(350,186,cs),
(363,180,o),
(376,172,o),
(388,163,c),
(383,158,o),
(382,149,o),
(372,149,cs),
(356,149,o),
(334,155,o),
(315,159,cs),
(310,160,o),
(304,160,o),
(298,160,cs),
(279,158,o),
(260,156,o),
(241,153,c),
(230,159,l),
(233,173,o),
(236,188,o),
(239,202,cs),
(242,213,l),
(241,219,o),
(242,222,o),
(246,223,c),
(246,231,o),
(246,238,o),
(247,246,c),
(243,246,o),
(240,246,o),
(236,245,c),
(234,259,o),
(230,268,o),
(233,274,cs),
(242,292,o),
(241,315,o),
(234,341,cs),
(230,353,o),
(237,356,o),
(251,352,c),
(251,354,ls),
(251,357,o),
(251,361,o),
(251,364,c),
(243,364,l),
(240,368,o),
(239,373,o),
(238,377,c),
(237,395,o),
(234,414,o),
(253,421,c),
(254,421,l),
(254,422,ls),
(254,432,o),
(253,442,o),
(253,452,cs),
(253,463,o),
(254,473,o),
(255,484,c),
(256,486,o),
(264,488,o),
(268,489,cs),
(269,489,o),
(270,489,o),
(270,489,c),
(270,495,ls),
(271,504,o),
(272,508,o),
(291,501,cs),
(301,497,o),
(311,498,o),
(322,496,cs),
(331,494,o),
(342,491,o),
(354,487,c),
(344,471,o),
(336,458,o),
(327,445,c),
(325,443,o),
(324,441,o),
(323,439,c),
(322,432,o),
(321,425,o),
(321,418,cs),
(321,409,ls),
(321,407,o),
(322,405,o),
(321,404,cs),
(311,393,o),
(308,381,o),
(305,370,cs),
(302,360,o),
(298,351,o),
(300,342,c),
(301,341,o),
(301,341,o),
(301,340,c),
(327,340,o),
(353,340,o),
(378,341,cs),
(392,342,o),
(406,345,o),
(419,350,cs),
(430,354,o),
(439,360,o),
(442,368,cs),
(446,381,o),
(444,397,o),
(443,413,cs),
(443,415,o),
(437,422,o),
(431,426,cs),
(412,440,o),
(396,459,o),
(385,480,cs),
(380,489,o),
(379,500,o),
(380,510,c),
(383,520,o),
(388,529,o),
(395,537,cs),
(401,543,o),
(407,548,o),
(414,552,c),
(415,552,o),
(414,555,o),
(413,556,c),
(388,569,l),
(429,589,o),
(429,628,o),
(418,669,c),
(375,702,l),
(373,696,o),
(371,690,o),
(369,684,c),
(360,676,l),
(353,681,o),
(346,687,o),
(339,693,cs),
(335,697,o),
(332,702,o),
(329,708,c),
(319,707,o),
(313,703,o),
(304,706,cs),
(278,713,o),
(273,703,o),
(267,694,cs),
(258,682,o),
(259,663,o),
(248,653,cs),
(235,640,o),
(240,620,o),
(243,601,c),
(243,596,o),
(242,590,o),
(240,585,cs),
(237,578,o),
(232,571,o),
(230,564,cs),
(226,555,o),
(229,541,o),
(219,538,cs),
(199,531,o),
(208,510,o),
(205,495,c),
(190,498,o),
(166,475,o),
(174,464,cs),
(177,460,o),
(185,455,o),
(188,451,cs),
(195,441,o),
(207,428,o),
(208,420,cs),
(209,404,o),
(205,391,o),
(203,377,cs),
(200,352,o),
(198,328,o),
(197,303,cs),
(197,290,o),
(187,287,o),
(166,297,cs),
(160,300,o),
(153,304,o),
(146,307,c),
(143,307,o),
(140,308,o),
(137,308,c),
(125,313,o),
(112,317,o),
(100,321,cs),
(98,322,o),
(97,323,o),
(96,324,cs),
(82,334,o),
(66,343,o),
(49,349,cs),
(39,353,o),
(28,356,o),
(18,357,cs),
(8,359,o),
(2,356,o),
(3,350,cs),
(3,344,o),
(5,339,o),
(7,334,c),
(18,329,o),
(29,323,o),
(39,316,cs),
(55,307,o),
(72,299,o),
(89,292,cs),
(123,280,o),
(156,269,o),
(196,256,c),
(194,248,o),
(194,239,o),
(195,231,cs),
(203,189,o),
(186,160,o),
(173,129,cs),
(165,110,o),
(153,92,o),
(169,62,cs),
(178,43,o),
(162,37,o),
(137,43,cs),
(128,46,o),
(118,48,o),
(109,51,c),
(107,50,o),
(106,50,o),
(105,49,c),
(103,49,o),
(101,48,o),
(99,48,cs),
(80,46,o),
(60,42,o),
(41,36,cs),
(35,34,o),
(29,31,o),
(23,28,c),
(48,22,ls),
(83,15,o),
(117,7,o),
(153,-1,c),
(161,-5,o),
(169,-11,o),
(175,-18,c),
(176,-23,o),
(176,-28,o),
(175,-34,c)
);
},
{
closed = 1;
nodes = (
(-103,322,o),
(-102,322,o),
(-102,323,c),
(-103,324,l),
(-103,323,o),
(-103,322,o),
(-104,321,c)
);
}
);
width = 705;
}
);
note = G;
unicode = (71,103);
},
{
glyphname = H;
lastChange = "2022-12-26 01:24:06 +0000";
layers = (
{
layerId = m01;
shapes = (
{
closed = 1;
nodes = (
(325,-13,o),
(328,-13,o),
(331,-8,c),
(336,5,o),
(342,17,o),
(348,29,cs),
(356,44,o),
(364,59,o),
(372,74,cs),
(399,132,ls),
(402,139,o),
(403,146,o),
(407,153,cs),
(415,167,o),
(425,181,o),
(434,195,cs),
(435,196,o),
(436,197,o),
(438,198,c),
(446,197,o),
(450,202,o),
(454,208,cs),
(457,212,o),
(461,215,o),
(465,218,cs),
(476,225,o),
(486,233,o),
(497,240,cs),
(499,241,o),
(502,242,o),
(503,242,c),
(505,240,o),
(506,237,o),
(506,235,c),
(504,230,o),
(501,226,o),
(499,221,cs),
(494,209,o),
(535,71,o),
(531,59,cs),
(526,46,o),
(522,33,o),
(518,20,c),
(524,16,o),
(529,20,o),
(535,22,cs),
(542,24,o),
(549,24,o),
(556,26,cs),
(563,28,o),
(563,34,o),
(565,40,c),
(567,53,o),
(571,66,o),
(574,79,cs),
(578,92,o),
(536,232,o),
(539,245,cs),
(545,274,o),
(549,303,o),
(555,331,c),
(555,334,o),
(556,337,o),
(557,339,c),
(551,344,o),
(550,347,o),
(557,352,cs),
(564,357,o),
(572,361,o),
(580,366,cs),
(583,368,o),
(585,371,o),
(586,374,cs),
(588,383,o),
(589,392,o),
(589,401,cs),
(590,415,o),
(592,417,o),
(606,420,c),
(608,420,o),
(609,421,o),
(610,422,cs),
(618,429,o),
(624,439,o),
(629,449,cs),
(631,454,o),
(633,459,o),
(634,464,cs),
(636,471,o),
(640,479,o),
(633,486,cs),
(632,487,o),
(632,490,o),
(633,493,c),
(633,496,o),
(634,499,o),
(634,502,cs),
(634,510,o),
(634,518,o),
(635,525,cs),
(636,531,o),
(637,537,o),
(640,542,cs),
(641,544,o),
(645,543,o),
(648,544,cs),
(650,545,o),
(652,546,o),
(653,548,cs),
(656,553,o),
(658,559,o),
(661,565,cs),
(664,572,o),
(665,581,o),
(672,586,c),
(677,588,o),
(680,593,o),
(681,599,cs),
(681,600,o),
(683,602,o),
(685,603,c),
(691,608,o),
(698,612,o),
(705,616,c),
(701,623,l),
(695,621,l),
(695,624,o),
(694,625,o),
(694,627,c),
(684,627,o),
(689,617,o),
(684,613,c),
(677,623,o),
(682,629,o),
(689,633,c),
(685,636,o),
(683,639,o),
(680,642,cs),
(678,644,o),
(675,645,o),
(673,647,c),
(667,650,o),
(658,646,o),
(655,657,c),
(652,654,o),
(649,653,o),
(649,651,cs),
(649,647,o),
(647,647,o),
(643,647,cs),
(638,647,o),
(633,646,o),
(628,645,cs),
(625,644,o),
(621,643,o),
(618,644,cs),
(611,646,o),
(608,641,o),
(604,638,cs),
(601,635,o),
(599,632,o),
(595,629,cs),
(590,625,o),
(584,622,o),
(579,617,cs),
(568,608,o),
(559,598,o),
(549,590,cs),
(545,587,o),
(540,587,o),
(535,585,cs),
(524,581,o),
(519,571,o),
(510,563,c),
(511,562,l),
(515,563,o),
(520,564,o),
(524,564,cs),
(537,562,o),
(549,567,o),
(557,577,cs),
(560,580,o),
(564,582,o),
(567,584,cs),
(574,588,o),
(582,591,o),
(589,595,cs),
(616,610,l),
(617,611,o),
(619,611,o),
(620,611,cs),
(623,611,o),
(625,612,o),
(627,613,cs),
(634,616,o),
(640,620,o),
(645,624,cs),
(655,633,o),
(665,626,o),
(676,625,c),
(674,623,o),
(673,621,o),
(673,621,c),
(666,620,o),
(659,618,o),
(653,617,cs),
(647,615,o),
(640,614,o),
(634,612,c),
(633,612,o),
(633,610,o),
(632,609,c),
(632,608,o),
(631,607,o),
(630,607,c),
(626,604,o),
(622,601,o),
(618,599,c),
(620,590,o),
(620,580,o),
(618,571,cs),
(614,558,o),
(610,544,o),
(607,531,cs),
(606,523,o),
(607,515,o),
(605,507,cs),
(600,489,o),
(591,471,o),
(578,457,cs),
(565,442,ls),
(560,437,o),
(556,431,o),
(551,425,cs),
(547,421,o),
(543,417,o),
(540,412,c),
(538,414,o),
(537,415,o),
(536,415,cs),
(521,412,o),
(506,408,o),
(492,403,c),
(478,400,o),
(465,395,o),
(452,391,cs),
(440,387,o),
(428,384,o),
(416,381,cs),
(398,377,o),
(379,372,o),
(360,367,cs),
(342,363,o),
(325,357,o),
(307,353,cs),
(295,350,l),
(293,356,o),
(295,362,o),
(300,362,cs),
(305,361,o),
(309,364,o),
(310,368,c),
(314,376,o),
(323,380,o),
(329,386,c),
(332,386,ls),
(338,386,o),
(342,388,o),
(343,394,c),
(346,394,o),
(348,395,o),
(350,395,cs),
(356,396,o),
(361,398,o),
(366,395,cs),
(368,394,o),
(370,394,o),
(373,394,c),
(374,395,l),
(369,396,o),
(368,399,o),
(373,403,c),
(364,403,o),
(356,404,o),
(349,403,cs),
(345,403,o),
(340,401,o),
(336,400,cs),
(330,399,o),
(329,400,o),
(330,406,c),
(323,410,o),
(320,403,o),
(314,402,c),
(318,398,o),
(325,406,o),
(327,398,c),
(326,397,o),
(325,397,o),
(323,396,c),
(318,395,o),
(314,391,o),
(312,387,cs),
(305,374,o),
(298,374,o),
(288,375,cs),
(283,376,o),
(280,381,o),
(280,385,c),
(283,386,o),
(285,386,o),
(287,387,cs),
(291,390,o),
(297,390,o),
(301,387,cs),
(302,386,o),
(305,387,o),
(307,387,c),
(307,387,o),
(307,388,o),
(307,388,c),
(302,391,l),
(296,393,o),
(290,394,o),
(284,392,c),
(280,389,o),
(276,388,o),
(272,386,cs),
(269,385,o),
(266,383,o),
(263,382,cs),
(257,379,l),
(257,381,l),
(259,386,l),
(254,387,o),
(252,383,o),
(249,381,cs),
(245,378,o),
(240,374,o),
(235,377,cs),
(232,379,o),
(230,378,o),
(228,377,c),
(222,372,o),
(215,369,o),
(208,368,cs),
(205,368,l),
(199,363,o),
(193,366,o),
(187,369,cs),
(182,372,o),
(183,377,o),
(184,382,c),
(190,384,l),
(190,385,l),
(188,386,o),
(186,386,o),
(184,386,cs),
(181,386,o),
(180,387,o),
(179,390,cs),
(178,395,o),
(180,400,o),
(184,403,cs),
(187,405,o),
(191,406,o),
(195,407,cs),
(196,407,o),
(196,406,o),
(197,406,c),
(190,398,l),
(191,396,l),
(221,412,l),
(216,414,o),
(210,414,o),
(204,413,c),
(199,409,o),
(192,409,o),
(187,412,c),
(196,423,l),
(194,427,o),
(192,431,o),
(196,435,c),
(197,435,o),
(197,436,o),
(197,437,cs),
(197,444,o),
(200,446,o),
(207,445,c),
(206,451,o),
(206,456,o),
(214,456,c),
(214,457,l),
(217,459,o),
(219,460,o),
(222,456,c),
(222,455,o),
(224,455,o),
(225,455,c),
(225,458,o),
(223,461,o),
(220,462,cs),
(218,463,o),
(210,465,o),
(217,470,cs),
(219,471,o),
(219,474,o),
(219,477,c),
(224,471,o),
(227,463,o),
(228,455,c),
(231,457,o),
(233,458,o),
(235,460,cs),
(241,466,o),
(247,472,o),
(252,478,c),
(268,490,l),
(268,491,o),
(269,492,o),
(269,492,c),
(269,497,o),
(272,497,o),
(276,497,cs),
(279,497,o),
(282,497,o),
(285,498,c),
(289,501,o),
(293,504,o),
(296,508,cs),
(298,512,o),
(304,517,o),
(299,523,c),
(300,523,o),
(301,524,o),
(303,525,c),
(307,529,o),
(314,529,o),
(318,525,c),
(319,525,o),
(321,526,o),
(322,527,c),
(322,530,l),
(327,527,o),
(330,524,o),
(325,520,cs),
(324,519,o),
(325,516,o),
(325,515,c),
(327,514,l),
(330,521,o),
(335,526,o),
(344,524,c),
(345,527,l),
(342,532,o),
(337,533,o),
(333,532,cs),
(331,531,o),
(329,531,o),
(327,532,c),
(330,536,o),
(332,540,o),
(334,544,c),
(330,547,o),
(331,550,o),
(334,555,c),
(337,545,l),
(340,551,o),
(342,557,o),
(349,559,c),
(349,555,o),
(349,552,o),
(350,549,c),
(352,549,l),
(356,559,l),
(356,564,o),
(360,565,o),
(362,567,cs),
(363,568,o),
(362,569,o),
(363,570,c),
(363,571,o),
(364,572,o),
(365,573,c),
(366,570,o),
(368,568,o),
(369,565,cs),
(370,561,o),
(372,558,o),
(367,554,cs),
(365,553,o),
(366,547,o),
(367,544,cs),
(367,543,o),
(370,543,o),
(372,542,cs),
(375,541,o),
(379,542,o),
(380,540,cs),
(384,535,o),
(392,533,o),
(398,535,cs),
(402,536,o),
(405,538,o),
(408,540,c),
(405,544,l),
(407,544,o),
(409,544,o),
(411,543,cs),
(418,540,ls),
(421,539,o),
(423,539,o),
(425,539,c),
(428,538,o),
(430,539,o),
(432,540,c),
(435,544,o),
(437,548,o),
(441,552,cs),
(447,559,o),
(455,565,o),
(462,571,c),
(460,575,o),
(456,577,o),
(453,576,c),
(451,576,o),
(450,577,o),
(449,578,c),
(445,579,o),
(441,582,o),
(437,582,cs),
(432,581,o),
(427,580,o),
(422,577,cs),
(416,574,o),
(409,572,o),
(401,572,c),
(400,573,o),
(399,573,o),
(398,572,c),
(392,572,o),
(384,566,o),
(384,562,cs),
(384,555,o),
(378,554,o),
(375,549,cs),
(374,548,o),
(372,549,o),
(370,549,c),
(371,550,o),
(371,552,o),
(372,553,c),
(372,554,o),
(374,554,o),
(374,555,cs),
(375,559,o),
(375,562,o),
(375,566,cs),
(375,568,o),
(374,570,o),
(373,573,c),
(379,570,l),
(379,573,o),
(379,576,o),
(380,579,c),
(371,573,l),
(369,574,l),
(376,587,l),
(375,588,l),
(365,580,l),
(364,582,l),
(367,596,l),
(370,594,o),
(373,593,o),
(374,598,c),
(376,599,o),
(377,599,o),
(379,598,cs),
(381,597,o),
(383,595,o),
(383,592,c),
(384,589,o),
(383,586,o),
(381,584,c),
(384,583,o),
(386,582,o),
(387,587,c),
(390,590,l),
(396,592,o),
(402,594,o),
(403,602,c),
(398,605,l),
(403,610,l),
(408,607,o),
(413,608,o),
(414,612,cs),
(416,616,o),
(417,621,o),
(418,625,cs),
(418,626,o),
(418,627,o),
(419,628,c),
(420,627,l),
(423,621,l),
(430,626,o),
(430,627,o),
(423,632,c),
(420,633,o),
(417,634,o),
(414,635,c),
(411,630,l),
(408,627,o),
(405,624,o),
(401,621,c),
(397,626,l),
(401,630,l),
(397,634,o),
(393,638,o),
(389,641,cs),
(387,642,o),
(385,643,o),
(384,639,cs),
(383,634,o),
(380,633,o),
(377,637,c),
(376,637,o),
(376,638,o),
(376,638,c),
(367,635,l),
(367,637,l),
(371,641,o),
(371,641,o),
(376,642,cs),
(382,644,o),
(387,649,o),
(390,654,c),
(390,655,o),
(389,655,o),
(389,655,c),
(388,654,l),
(370,666,l),
(374,672,l),
(373,673,o),
(374,675,o),
(375,675,c),
(376,676,o),
(378,676,o),
(379,676,cs),
(383,675,o),
(384,678,o),
(384,681,cs),
(384,686,l),
(377,687,l),
(380,692,l),
(379,693,l),
(374,690,l),
(371,694,o),
(368,695,o),
(365,690,c),
(362,687,o),
(359,685,o),
(356,683,cs),
(345,675,l),
(341,670,o),
(338,664,o),
(332,660,cs),
(329,658,o),
(326,655,o),
(325,652,c),
(321,645,o),
(319,636,o),
(309,634,cs),
(308,634,o),
(308,632,o),
(307,631,cs),
(305,628,o),
(303,624,o),
(298,624,cs),
(296,624,o),
(295,623,o),
(294,622,c),
(288,619,o),
(283,616,o),
(276,613,c),
(276,607,o),
(273,602,o),
(269,599,cs),
(265,596,o),
(261,592,o),
(257,588,cs),
(255,586,o),
(256,582,o),
(254,580,cs),
(249,576,o),
(244,571,o),
(240,566,cs),
(236,562,o),
(232,558,o),
(227,555,cs),
(222,551,o),
(217,546,o),
(209,549,c),
(207,547,ls),
(203,543,o),
(200,538,o),
(194,537,cs),
(190,536,o),
(186,535,o),
(183,533,cs),
(178,530,o),
(171,530,o),
(166,534,c),
(165,534,o),
(164,533,o),
(162,533,c),
(166,529,l),
(165,529,o),
(165,528,o),
(165,528,c),
(161,528,o),
(156,528,o),
(152,528,c),
(148,524,l),
(149,523,o),
(151,521,o),
(152,521,cs),
(156,521,o),
(160,522,o),
(164,523,cs),
(168,524,o),
(171,526,o),
(175,527,cs),
(183,530,o),
(191,532,o),
(199,534,cs),
(203,535,l),
(204,526,o),
(201,518,o),
(195,512,cs),
(191,507,o),
(186,503,o),
(180,502,cs),
(169,499,o),
(158,497,o),
(148,497,cs),
(144,497,o),
(141,497,o),
(137,496,cs),
(131,495,o),
(124,494,o),
(121,488,cs),
(119,481,o),
(113,479,o),
(107,476,cs),
(102,473,o),
(98,470,o),
(93,468,c),
(102,459,o),
(107,451,o),
(105,445,c),
(110,447,o),
(114,448,o),
(118,450,c),
(124,451,o),
(130,453,o),
(136,455,cs),
(139,456,o),
(142,457,o),
(145,458,c),
(156,458,l),
(154,455,o),
(152,451,o),
(150,447,cs),
(149,443,o),
(145,442,o),
(142,439,cs),
(136,434,o),
(130,430,o),
(123,427,cs),
(119,426,o),
(113,423,o),
(111,419,cs),
(109,413,o),
(104,410,o),
(102,405,cs),
(100,401,o),
(100,399,o),
(102,397,cs),
(104,395,o),
(106,392,o),
(107,390,cs),
(108,387,o),
(109,383,o),
(109,380,c),
(107,378,o),
(105,377,o),
(103,382,cs),
(100,391,o),
(94,400,o),
(88,407,cs),
(84,411,o),
(78,411,o),
(74,409,c),
(72,414,o),
(68,417,o),
(63,419,cs),
(58,421,o),
(53,421,o),
(48,419,c),
(57,411,l),
(61,413,l),
(63,413,l),
(60,407,o),
(60,401,o),
(62,395,cs),
(65,386,o),
(72,386,o),
(78,385,c),
(78,384,l),
(71,374,o),
(66,363,o),
(55,357,c),
(54,356,o),
(53,355,o),
(53,354,cs),
(52,349,o),
(47,348,o),
(44,344,c),
(40,341,o),
(32,340,o),
(33,332,c),
(36,331,o),
(40,331,o),
(43,333,cs),
(47,336,o),
(51,337,o),
(56,337,cs),
(65,337,o),
(74,341,o),
(80,348,cs),
(81,349,o),
(82,351,o),
(82,353,cs),
(82,356,o),
(83,358,o),
(87,359,cs),
(91,359,o),
(90,362,o),
(89,365,cs),
(89,366,o),
(88,366,o),
(87,367,c),
(88,369,l),
(90,368,o),
(93,366,o),
(93,365,cs),
(93,360,o),
(95,353,o),
(90,349,cs),
(88,347,o),
(88,345,o),
(87,343,c),
(89,342,o),
(91,341,o),
(93,341,cs),
(96,341,o),
(99,340,o),
(101,339,c),
(103,337,o),
(104,334,o),
(104,331,c),
(105,332,o),
(106,332,o),
(106,332,c),
(108,338,o),
(109,343,o),
(111,348,c),
(111,349,o),
(112,350,o),
(112,352,c),
(113,350,o),
(114,347,o),
(116,345,c),
(117,343,o),
(118,341,o),
(118,339,c),
(117,337,o),
(116,335,o),
(114,334,c),
(111,330,l),
(112,329,l),
(127,336,l),
(127,335,o),
(127,334,o),
(128,334,c),
(128,333,o),
(129,332,o),
(130,331,c),
(131,332,o),
(131,333,o),
(132,334,c),
(132,338,l),
(133,341,o),
(134,347,o),
(137,347,c),
(145,349,o),
(141,355,o),
(142,359,c),
(135,359,l),
(136,367,o),
(129,365,o),
(126,368,c),
(123,364,l),
(111,376,l),
(117,385,l),
(111,388,l),
(112,389,l),
(115,390,o),
(118,389,o),
(121,389,cs),
(128,388,o),
(123,380,o),
(127,376,c),
(128,381,o),
(128,385,o),
(129,389,c),
(131,389,l),
(131,386,o),
(132,383,o),
(132,379,cs),
(132,378,o),
(133,376,o),
(133,376,c),
(135,376,o),
(136,376,o),
(138,377,c),
(139,377,o),
(139,378,o),
(139,379,c),
(145,374,o),
(152,370,o),
(158,366,cs),
(161,364,o),
(162,364,o),
(162,361,c),
(164,353,o),
(158,347,o),
(154,342,cs),
(144,330,o),
(141,315,o),
(135,301,c),
(135,300,o),
(134,300,o),
(134,299,c),
(131,299,ls),
(124,299,o),
(116,298,o),
(109,296,c),
(102,292,l),
(109,287,o),
(116,282,o),
(123,279,c),
(121,276,o),
(119,273,o),
(117,270,cs),
(114,263,ls),
(112,259,o),
(112,255,o),
(110,251,c),
(109,250,o),
(107,249,o),
(105,248,c),
(102,255,o),
(100,260,o),
(98,267,c),
(91,261,l),
(92,260,l),
(85,261,l),
(87,255,o),
(87,254,o),
(81,255,cs),
(76,255,o),
(70,252,o),
(67,248,cs),
(64,245,ls),
(60,242,o),
(56,240,o),
(52,237,cs),
(43,231,l),
(34,229,o),
(27,222,o),
(24,213,cs),
(23,208,o),
(20,203,o),
(18,197,c),
(19,197,o),
(19,196,o),
(20,196,cs),
(28,194,o),
(37,197,o),
(42,204,cs),
(43,205,o),
(43,206,o),
(44,206,cs),
(51,208,o),
(56,213,o),
(60,219,cs),
(61,221,o),
(63,223,o),
(65,224,cs),
(90,233,ls),
(92,234,o),
(94,233,o),
(96,233,c),
(96,231,o),
(95,229,o),
(94,227,c),
(91,224,o),
(89,220,o),
(87,217,cs),
(85,213,o),
(86,209,o),
(84,204,cs),
(80,197,o),
(77,196,o),
(70,199,c),
(61,193,o),
(60,192,o),
(68,188,c),
(66,183,l),
(62,177,o),
(61,167,o),
(50,168,cs),
(48,168,o),
(46,166,o),
(45,164,c),
(45,162,o),
(46,160,o),
(47,158,cs),
(48,156,o),
(49,155,o),
(49,153,cs),
(49,151,o),
(48,149,o),
(49,147,cs),
(50,143,o),
(48,139,o),
(46,136,cs),
(42,132,o),
(39,128,o),
(33,128,cs),
(27,127,o),
(21,127,o),
(16,129,cs),
(7,133,o),
(-2,138,o),
(-10,144,cs),
(-11,145,o),
(-12,146,o),
(-13,146,c),
(-15,140,o),
(-17,133,o),
(-21,127,c),
(-15,125,o),
(-9,121,o),
(-3,118,cs),
(3,116,o),
(9,113,o),
(14,110,c),
(17,109,o),
(21,108,o),
(24,106,cs),
(27,104,o),
(26,97,o),
(23,93,cs),
(21,91,o),
(21,89,o),
(22,86,c),
(25,82,o),
(25,82,o),
(23,76,c),
(12,84,l),
(12,94,l),
(-1,102,o),
(-6,100,o),
(-7,88,c),
(-12,85,o),
(-16,82,o),
(-20,78,cs),
(-21,77,o),
(-21,74,o),
(-21,72,c),
(-19,66,o),
(-19,61,o),
(-27,59,c),
(-27,63,o),
(-28,67,o),
(-28,71,c),
(-35,68,o),
(-37,66,o),
(-35,60,cs),
(-33,54,o),
(-34,47,o),
(-38,43,cs),
(-41,40,o),
(-46,39,o),
(-48,36,c),
(-34,36,l),
(-35,39,o),
(-33,41,o),
(-29,41,cs),
(-21,41,o),
(-21,41,o),
(-21,49,cs),
(-20,55,o),
(-19,60,o),
(-17,65,c),
(-17,67,o),
(-13,68,o),
(-10,68,cs),
(-6,68,o),
(-4,65,o),
(-4,62,cs),
(-3,58,o),
(-3,54,o),
(-2,49,c),
(1,53,l),
(5,51,o),
(4,48,o),
(3,45,c),
(-3,36,l),
(76,36,l),
(77,38,o),
(78,41,o),
(80,44,c),
(74,45,l),
(74,47,l),
(78,48,o),
(82,47,o),
(85,47,c),
(88,46,o),
(88,42,o),
(87,39,c),
(86,38,o),
(86,37,o),
(87,36,c),
(128,36,l),
(128,47,ls),
(128,48,o),
(129,49,o),
(129,50,c),
(133,56,o),
(135,62,o),
(135,68,c),
(134,71,o),
(135,73,o),
(135,76,c),
(137,82,o),
(139,88,o),
(141,94,c),
(141,99,l),
(136,104,o),
(138,108,o),
(141,114,cs),
(144,120,o),
(149,126,o),
(142,133,c),
(145,134,o),
(147,135,o),
(148,136,cs),
(149,138,o),
(150,141,o),
(150,143,c),
(153,141,o),
(156,139,o),
(158,136,cs),
(167,119,ls),
(170,113,o),
(172,107,o),
(174,100,cs),
(177,94,o),
(179,87,o),
(183,81,c),
(185,73,o),
(188,66,o),
(191,59,cs),
(195,51,o),
(200,44,o),
(205,37,c),
(207,38,l),
(208,40,o),
(208,42,o),
(208,45,c),
(207,48,o),
(205,50,o),
(204,54,cs),
(203,65,o),
(202,76,o),
(200,87,cs),
(200,89,o),
(199,91,o),
(198,93,cs),
(197,96,o),
(196,99,o),
(200,100,cs),
(204,100,o),
(209,100,o),
(213,99,cs),
(218,98,o),
(223,96,o),
(228,96,cs),
(236,95,o),
(242,101,o),
(248,105,cs),
(257,111,o),
(265,118,o),
(273,125,c),
(275,126,o),
(277,127,o),
(279,127,c),
(274,121,l),
(273,118,o),
(270,116,o),
(270,114,cs),
(271,110,o),
(272,107,o),
(274,104,cs),
(279,95,o),
(288,94,o),
(297,93,cs),
(298,93,o),
(299,94,o),
(300,94,c),
(299,96,o),
(298,98,o),
(297,100,c),
(291,124,ls),
(291,125,o),
(290,126,o),
(289,127,cs),
(286,130,o),
(284,132,o),
(280,135,c),
(278,134,o),
(274,133,o),
(271,134,cs),
(268,135,o),
(265,137,o),
(264,140,c),
(260,128,o),
(251,127,o),
(240,127,cs),
(239,127,o),
(237,127,o),
(235,126,cs),
(231,125,o),
(227,124,o),
(223,124,cs),
(214,125,o),
(206,125,o),
(197,124,cs),
(189,124,o),
(185,125,o),
(184,133,cs),
(182,140,o),
(177,142,o),
(172,145,cs),
(170,146,o),
(167,148,o),
(166,151,cs),
(165,155,o),
(163,155,o),
(160,156,c),
(158,156,o),
(156,158,o),
(156,159,cs),
(156,162,o),
(156,167,o),
(158,168,cs),
(164,171,o),
(162,176,o),
(163,180,cs),
(163,184,o),
(164,188,o),
(165,192,c),
(172,195,o),
(180,193,o),
(186,188,cs),
(188,186,o),
(191,185,o),
(194,186,cs),
(200,189,o),
(206,191,o),
(212,194,c),
(213,194,o),
(213,196,o),
(214,197,c),
(203,200,ls),
(199,201,o),
(195,202,o),
(192,204,c),
(187,205,o),
(183,207,o),
(178,209,c),
(177,210,o),
(176,213,o),
(176,215,cs),
(175,219,o),
(175,224,o),
(175,229,c),
(179,235,ls),
(181,237,o),
(182,240,o),
(182,243,cs),
(181,249,o),
(179,255,o),
(177,260,c),
(179,261,l),
(180,260,o),
(182,258,o),
(183,257,c),
(186,246,ls),
(188,236,o),
(192,227,o),
(197,219,cs),
(198,217,o),
(201,215,o),
(203,213,c),
(212,250,l),
(219,247,l),
(219,246,o),
(219,244,o),
(219,242,c),
(224,242,l),
(234,246,o),
(244,248,o),
(255,248,cs),
(256,248,o),
(258,248,o),
(260,249,cs),
(261,250,o),
(262,251,o),
(262,252,cs),
(262,253,o),
(261,254,o),
(260,255,c),
(254,256,o),
(248,258,o),
(241,259,cs),
(229,259,o),
(217,261,o),
(206,252,cs),
(204,250,o),
(201,251,o),
(201,255,cs),
(201,257,o),
(200,259,o),
(200,261,c),
(196,267,o),
(194,275,o),
(194,282,c),
(193,285,o),
(194,288,o),
(195,291,c),
(207,295,o),
(220,296,o),
(232,293,cs),
(236,292,o),
(239,293,o),
(242,294,c),
(250,301,o),
(258,298,o),
(266,296,cs),
(271,294,o),
(274,296,o),
(276,300,cs),
(277,303,o),
(279,304,o),
(282,305,c),
(289,305,o),
(296,304,o),
(302,303,c),
(307,301,o),
(311,303,o),
(313,307,c),
(316,310,o),
(318,311,o),
(321,312,cs),
(332,317,o),
(345,314,o),
(357,320,c),
(369,324,o),
(382,327,o),
(395,327,cs),
(411,328,o),
(428,331,o),
(445,326,c),
(447,326,o),
(449,326,o),
(452,327,cs),
(456,329,o),
(459,330,o),
(463,331,cs),
(478,335,o),
(495,338,o),
(509,344,c),
(510,345,o),
(512,346,o),
(514,347,c),
(514,345,o),
(513,343,o),
(513,341,c),
(511,336,o),
(508,330,o),
(507,324,c),
(505,319,o),
(504,313,o),
(503,307,cs),
(502,302,o),
(502,296,o),
(500,291,cs),
(499,287,o),
(497,283,o),
(496,279,cs),
(493,268,o),
(488,259,o),
(476,257,cs),
(475,257,o),
(473,255,o),
(472,254,cs),
(466,250,o),
(459,246,o),
(452,243,cs),
(444,241,o),
(436,240,o),
(427,241,cs),
(414,241,o),
(416,246,o),
(410,232,cs),
(406,221,o),
(403,211,o),
(398,202,cs),
(394,194,o),
(388,187,o),
(385,180,cs),
(379,164,o),
(374,147,o),
(368,131,cs),
(362,116,o),
(355,101,o),
(348,86,cs),
(341,73,o),
(334,62,o),
(328,50,cs),
(323,41,o),
(318,31,o),
(313,22,cs),
(297,-6,l),
(301,-7,o),
(305,-7,o),
(309,-6,cs),
(313,-5,o),
(318,-6,o),
(321,-9,cs)
);
},
{
closed = 1;
nodes = (
(-3,73,o),
(-2,74,o),
(-1,76,cs),
(0,78,o),
(1,79,o),
(2,79,c),
(4,80,o),
(6,79,o),
(7,79,c),
(9,78,o),
(10,75,o),
(12,73,c),
(-3,71,l)
);
},
{
closed = 1;
nodes = (
(73,401,l),
(76,402,o),
(78,403,o),
(80,402,cs),
(90,399,l),
(89,397,o),
(89,395,o),
(88,394,c),
(81,391,l)
);
},
{
closed = 1;
nodes = (
(224,335,l),
(225,336,o),
(225,338,o),
(224,339,cs),
(220,344,o),
(221,350,o),
(225,354,c),
(217,360,l),
(217,361,o),
(218,361,o),
(218,362,c),
(224,362,ls),
(229,363,o),
(233,364,o),
(238,366,c),
(243,370,o),
(249,372,o),
(255,373,c),
(271,370,l),
(272,369,o),
(272,369,o),
(273,369,cs),
(280,367,o),
(284,360,o),
(283,353,c),
(285,351,o),
(287,350,o),
(290,349,c),
(274,345,o),
(259,342,o),
(244,338,cs),
(240,337,o),
(236,334,o),
(231,333,c),
(229,332,o),
(227,332,o),
(224,331,c)
);
},
{
closed = 1;
nodes = (
(177,435,o),
(176,436,o),
(176,436,c),
(177,441,o),
(175,445,o),
(171,447,c),
(186,450,l),
(186,440,l),
(183,438,o),
(181,437,o),
(180,435,c),
(178,435,ls)
);
},
{
closed = 1;
nodes = (
(273,522,o),
(272,526,o),
(278,530,cs),
(280,532,o),
(280,534,o),
(280,537,cs),
(280,547,l),
(283,547,l),
(283,543,o),
(283,539,o),
(284,534,cs),
(284,532,l),
(288,525,o),
(288,525,o),
(281,520,c),
(280,520,o),
(280,518,o),
(279,517,c)
);
},
{
closed = 1;
nodes = (
(269,535,o),
(267,537,o),
(266,538,c),
(266,543,o),
(267,549,o),
(267,554,c),
(268,554,l),
(269,553,o),
(270,551,o),
(270,550,c),
(280,552,l),
(273,538,l),
(272,537,o),
(271,535,o),
(270,535,cs)
);
},
{
closed = 1;
nodes = (
(322,552,o),
(324,558,o),
(327,564,c),
(330,562,l),
(329,559,o),
(329,556,o),
(328,552,cs),
(328,550,o),
(327,548,o),
(325,547,cs),
(324,546,o),
(321,545,o),
(319,546,c)
);
},
{
closed = 1;
nodes = (
(315,577,o),
(314,581,o),
(316,582,c),
(319,585,o),
(321,591,o),
(327,589,c),
(326,586,o),
(326,584,o),
(326,581,c),
(327,580,l),
(316,574,l),
(315,574,l)
);
},
{
closed = 1;
nodes = (
(347,568,o),
(345,570,o),
(343,573,cs),
(342,575,o),
(343,577,o),
(344,579,cs),
(345,580,o),
(348,581,o),
(349,577,c),
(350,576,o),
(352,574,o),
(354,573,c),
(357,570,l),
(356,568,o),
(355,566,o),
(354,566,c),
(352,565,o),
(351,565,o),
(349,566,c)
);
},
{
closed = 1;
nodes = (
(428,552,o),
(426,553,o),
(425,554,c),
(428,558,l),
(440,564,ls),
(443,565,o),
(445,566,o),
(447,566,c),
(448,565,o),
(448,564,o),
(448,564,c),
(443,560,o),
(438,556,o),
(433,553,cs),
(432,552,o),
(430,552,o),
(429,552,cs)
);
},
{
closed = 1;
nodes = (
(375,611,o),
(373,612,o),
(373,613,cs),
(373,617,o),
(370,617,o),
(368,618,cs),
(365,619,o),
(362,620,o),
(360,622,c),
(360,623,l),
(361,624,o),
(363,625,o),
(364,625,c),
(366,626,o),
(367,627,o),
(369,629,c),
(369,627,o),
(369,626,o),
(370,625,c),
(369,620,o),
(371,620,o),
(375,622,cs),
(378,624,o),
(382,626,o),
(385,627,c),
(388,625,o),
(390,623,o),
(393,620,cs),
(394,619,o),
(393,616,o),
(393,615,c),
(392,615,o),
(391,616,o),
(390,617,c),
(382,620,l),
(384,615,o),
(382,611,o),
(376,611,cs)
);
},
{
closed = 1;
nodes = (
(636,575,o),
(636,585,o),
(639,595,c),
(641,598,o),
(656,599,o),
(664,598,c),
(664,588,o),
(658,579,o),
(649,575,cs),
(646,573,o),
(644,569,o),
(641,566,c)
);
}
);
width = 667;
}
);
note = H;
unicode = (72,104);
},
{
glyphname = I;
lastChange = "2022-12-26 01:24:08 +0000";
layers = (
{
layerId = m01;
shapes = (
{
closed = 1;
nodes = (
(475,-15,l),
(474,-10,o),
(473,-5,o),
(471,-1,cs),
(468,7,o),
(464,14,o),
(461,22,cs),
(455,39,o),
(449,55,o),
(444,72,c),
(455,78,l),
(459,74,o),
(464,71,o),
(469,67,cs),
(472,65,o),
(479,63,o),
(480,64,cs),
(489,77,o),
(503,67,o),
(514,71,c),
(517,71,o),
(521,71,o),
(524,68,cs),
(542,54,o),
(563,57,o),
(583,57,c),
(591,58,o),
(599,58,o),
(607,58,cs),
(613,58,o),
(619,57,o),
(628,56,c),
(617,74,l),
(627,82,l),
(607,92,l),
(625,105,l),
(623,109,l),
(614,109,o),
(606,108,o),
(597,109,cs),
(554,111,o),
(510,114,o),
(466,117,c),
(460,116,o),
(453,115,o),
(447,114,cs),
(430,111,l),
(428,117,o),
(426,124,o),
(423,130,c),
(413,159,o),
(400,186,o),
(388,213,cs),
(383,227,o),
(378,242,o),
(373,256,cs),
(355,300,l),
(352,305,o),
(347,308,o),
(345,314,cs),
(341,328,o),
(338,342,o),
(334,356,c),
(313,345,o),
(292,333,o),
(278,311,c),
(276,309,o),
(271,308,o),
(268,307,c),
(266,310,o),
(265,314,o),
(265,318,cs),
(266,328,o),
(271,338,o),
(278,346,cs),
(286,355,o),
(292,366,o),
(297,378,cs),
(301,385,o),
(302,393,o),
(305,400,cs),
(318,425,ls),
(319,427,o),
(320,431,o),
(322,432,cs),
(337,443,o),
(352,454,o),
(365,462,c),
(366,471,o),
(365,480,o),
(368,482,cs),
(380,492,o),
(381,505,o),
(385,517,cs),
(386,519,o),
(387,522,o),
(389,524,cs),
(395,531,o),
(401,536,o),
(408,543,c),
(395,555,o),
(384,532,o),
(370,543,c),
(380,548,o),
(389,554,o),
(398,560,c),
(401,564,o),
(405,567,o),
(408,572,c),
(420,565,o),
(429,573,o),
(439,588,cs),
(448,602,o),
(459,613,o),
(473,611,cs),
(489,609,o),
(499,592,o),
(500,568,c),
(506,571,o),
(513,575,o),
(519,579,cs),
(527,583,o),
(533,588,o),
(540,592,cs),
(551,599,o),
(573,594,o),
(579,584,cs),
(589,568,o),
(589,568,o),
(602,582,c),
(603,584,o),
(605,585,o),
(607,585,c),
(615,590,o),
(624,594,o),
(633,599,cs),
(649,610,o),
(661,630,o),
(673,648,c),
(674,653,o),
(675,657,o),
(675,662,c),
(651,641,l),
(646,648,l),
(643,644,o),
(640,640,o),
(636,637,cs),
(626,630,o),
(615,625,o),
(605,619,cs),
(591,611,o),
(574,607,o),
(558,608,cs),
(527,610,o),
(500,630,o),
(466,624,c),
(468,629,o),
(469,635,o),
(471,636,cs),
(476,639,o),
(482,641,o),
(488,642,c),
(524,654,ls),
(529,656,o),
(536,660,o),
(540,658,cs),
(552,652,o),
(558,662,o),
(563,674,c),
(550,693,ls),
(549,694,o),
(548,694,o),
(547,694,cs),
(535,695,o),
(522,693,o),
(511,686,cs),
(494,676,o),
(479,656,o),
(461,653,cs),
(458,653,o),
(455,650,o),
(453,648,c),
(457,638,l),
(454,626,o),
(454,626,o),
(445,626,cs),
(434,625,o),
(423,623,o),
(411,622,cs),
(405,622,o),
(399,621,o),
(393,620,c),
(393,622,o),
(392,624,o),
(392,626,c),
(390,634,o),
(390,642,o),
(390,649,cs),
(392,664,o),
(401,678,o),
(394,693,cs),
(393,696,o),
(393,701,o),
(391,701,cs),
(388,701,o),
(385,700,o),
(382,698,cs),
(380,697,o),
(378,695,o),
(376,693,c),
(372,696,l),
(376,703,o),
(379,710,o),
(383,717,c),
(374,746,l),
(367,741,o),
(357,738,o),
(353,731,cs),
(345,715,o),
(330,711,o),
(316,705,c),
(306,699,o),
(298,693,o),
(290,685,c),
(289,683,o),
(288,680,o),
(289,677,c),
(298,673,o),
(297,663,o),
(300,656,cs),
(307,644,o),
(313,631,o),
(320,619,c),
(319,619,l),
(316,619,ls),
(297,619,o),
(279,617,o),
(260,617,cs),
(247,617,o),
(234,617,o),
(220,619,cs),
(210,621,o),
(201,618,o),
(192,607,cs),
(183,597,o),
(169,601,o),
(165,580,cs),
(165,579,o),
(161,578,o),
(159,577,cs),
(142,570,o),
(126,562,o),
(110,555,cs),
(97,551,o),
(84,547,o),
(71,544,cs),
(60,541,o),
(49,541,o),
(37,540,c),
(38,535,l),
(39,534,o),
(41,533,o),
(42,533,cs),
(65,531,o),
(84,516,o),
(109,524,cs),
(121,528,o),
(132,525,o),
(144,526,cs),
(153,527,o),
(161,528,o),
(170,530,cs),
(182,532,o),
(195,539,o),
(205,536,cs),
(222,532,o),
(238,543,o),
(252,549,cs),
(271,559,o),
(287,551,o),
(305,558,cs),
(315,562,o),
(324,563,o),
(334,564,cs),
(350,564,l),
(354,549,o),
(353,532,o),
(346,518,cs),
(336,495,o),
(327,472,o),
(304,459,cs),
(300,456,o),
(297,451,o),
(293,448,cs),
(291,446,o),
(289,443,o),
(287,443,cs),
(265,440,o),
(247,431,o),
(241,407,c),
(240,405,o),
(238,404,o),
(237,403,c),
(229,413,l),
(221,392,l),
(207,391,o),
(207,391,o),
(207,381,c),
(220,378,o),
(233,396,o),
(248,379,c),
(220,352,l),
(232,346,l),
(217,315,o),
(225,290,o),
(249,267,c),
(243,258,l),
(249,251,l),
(247,247,o),
(244,243,o),
(242,238,cs),
(241,234,o),
(240,227,o),
(241,226,cs),
(246,223,o),
(254,220,o),
(258,222,c),
(264,227,o),
(268,233,o),
(270,240,cs),
(272,247,o),
(272,254,o),
(272,261,c),
(277,253,o),
(280,248,o),
(284,243,cs),
(289,237,o),
(294,230,o),
(298,223,cs),
(306,209,o),
(312,194,o),
(318,179,c),
(322,163,o),
(326,147,o),
(329,130,c),
(330,128,o),
(327,125,o),
(325,121,c),
(302,153,o),
(297,194,o),
(259,217,c),
(262,204,l),
(266,197,o),
(271,192,o),
(274,185,cs),
(281,173,o),
(287,160,o),
(294,147,cs),
(301,135,o),
(308,124,o),
(316,112,c),
(316,108,l),
(312,98,o),
(318,90,o),
(322,82,c),
(325,78,o),
(329,74,o),
(333,70,c),
(346,82,l),
(347,77,o),
(348,72,o),
(350,67,c),
(343,61,o),
(337,62,o),
(331,69,cs),
(322,77,o),
(311,82,o),
(300,83,cs),
(291,85,o),
(282,87,o),
(274,90,cs),
(263,94,o),
(251,95,o),
(239,96,c),
(231,95,o),
(224,90,o),
(214,95,cs),
(207,98,o),
(199,98,o),
(191,97,cs),
(175,94,o),
(158,83,o),
(141,97,c),
(137,74,l),
(143,71,o),
(150,70,o),
(152,66,cs),
(154,62,o),
(150,56,o),
(150,50,cs),
(149,45,o),
(148,37,o),
(151,34,cs),
(154,31,o),
(161,32,o),
(167,32,cs),
(172,31,o),
(176,32,o),
(181,33,cs),
(184,33,o),
(188,33,o),
(192,32,c),
(199,32,o),
(205,30,o),
(212,28,c),
(217,25,o),
(222,22,o),
(226,18,c),
(228,24,o),
(228,28,o),
(229,33,c),
(236,29,o),
(242,23,o),
(247,23,cs),
(267,24,o),
(287,27,o),
(307,29,c),
(311,31,o),
(315,31,o),
(319,30,c),
(332,22,o),
(348,19,o),
(363,19,c),
(364,16,o),
(366,13,o),
(368,10,cs),
(373,1,o),
(387,-2,o),
(395,-11,cs),
(399,-16,o),
(412,-15,o),
(422,-17,c),
(420,-12,o),
(420,-7,o),
(422,-2,cs),
(424,3,o),
(428,6,o),
(433,8,cs),
(441,10,o),
(451,6,o),
(454,-2,cs),
(457,-9,o),
(465,-13,o),
(471,-18,c)
);
}
);
width = 687;
}
);
note = I;
unicode = (73,105,204,205,206,207,236,237,238,239);
},
{
glyphname = J;
lastChange = "2022-12-26 01:24:09 +0000";
layers = (
{
layerId = m01;
shapes = (
{
closed = 1;
nodes = (
(361,2,o),
(364,3,o),
(368,4,c),
(368,11,o),
(367,18,o),
(367,25,cs),
(368,45,o),
(370,64,o),
(371,84,cs),
(374,131,ls),
(374,139,o),
(375,147,o),
(376,155,cs),
(382,219,ls),
(384,237,o),
(385,256,o),
(386,274,cs),
(386,281,o),
(389,287,o),
(394,291,c),
(406,305,ls),
(408,308,o),
(410,311,o),
(411,314,c),
(381,314,l),
(389,332,o),
(405,340,o),
(417,351,c),
(416,352,l),
(413,351,o),
(410,350,o),
(406,349,c),
(419,375,l),
(423,387,o),
(426,399,o),
(430,411,cs),
(436,429,o),
(441,447,o),
(448,464,cs),
(453,479,o),
(461,493,o),
(468,507,cs),
(474,520,o),
(479,534,o),
(485,548,cs),
(488,555,o),
(492,562,o),
(496,570,cs),
(500,579,o),
(503,589,o),
(508,598,cs),
(535,642,l),
(532,643,o),
(528,643,o),
(525,643,c),
(509,640,o),
(494,633,o),
(482,623,cs),
(448,594,o),
(420,561,o),
(398,523,cs),
(388,506,o),
(379,488,o),
(372,469,cs),
(366,454,o),
(352,441,o),
(359,423,c),
(359,423,o),
(358,423,o),
(358,422,c),
(349,396,ls),
(345,382,o),
(341,368,o),
(338,354,cs),
(336,348,o),
(335,342,o),
(334,336,cs),
(331,325,l),
(328,320,o),
(326,315,o),
(325,310,cs),
(320,295,o),
(318,280,o),
(316,265,c),
(316,251,o),
(311,237,o),
(301,227,c),
(300,225,o),
(299,222,o),
(299,220,cs),
(298,207,o),
(293,194,o),
(285,184,cs),
(279,175,o),
(271,168,o),
(265,160,cs),
(262,156,o),
(260,153,o),
(258,149,c),
(253,155,o),
(249,154,o),
(243,153,cs),
(221,151,o),
(201,150,o),
(183,168,cs),
(167,184,o),
(147,197,o),
(130,212,cs),
(123,218,o),
(118,224,o),
(112,229,cs),
(103,238,o),
(93,246,o),
(83,255,cs),
(68,268,o),
(54,281,o),
(39,293,cs),
(31,300,o),
(22,306,o),
(13,312,c),
(6,315,o),
(6,315,o),
(7,322,c),
(-5,323,o),
(-5,323,o),
(-8,307,c),
(6,302,o),
(15,289,o),
(16,275,cs),
(16,270,o),
(17,266,o),
(19,262,cs),
(27,245,o),
(35,228,o),
(42,210,cs),
(46,198,o),
(51,187,o),
(56,176,cs),
(67,155,o),
(80,134,o),
(93,114,cs),
(100,105,o),
(108,96,o),
(117,88,c),
(122,81,o),
(125,71,o),
(135,69,cs),
(137,69,o),
(139,67,o),
(140,68,c),
(161,70,o),
(181,74,o),
(202,76,cs),
(215,77,o),
(228,78,o),
(241,79,c),
(241,75,l),
(239,67,o),
(234,59,o),
(238,50,c),
(239,45,o),
(240,41,o),
(240,36,c),
(241,33,o),
(241,29,o),
(241,26,c),
(258,29,o),
(275,32,o),
(292,34,cs),
(296,35,o),
(303,36,o),
(304,34,cs),
(316,16,o),
(337,14,o),
(354,4,c),
(355,4,o),
(357,3,o),
(358,2,c)
);
}
);
width = 488;
}
);
note = J;
unicode = (74,106);
},
{
glyphname = K;
lastChange = "2022-12-26 01:24:10 +0000";
layers = (
{
layerId = m01;
shapes = (
{
closed = 1;
nodes = (
(117,-26,o),
(120,-25,o),
(122,-24,cs),
(134,-17,o),
(144,-7,o),
(151,4,cs),
(178,51,o),
(194,103,o),
(196,157,cs),
(196,170,o),
(204,184,o),
(194,197,c),
(194,198,ls),
(194,206,o),
(194,214,o),
(194,222,cs),
(191,259,ls),
(191,264,o),
(190,269,o),
(189,274,c),
(189,283,ls),
(189,288,o),
(190,292,o),
(190,297,cs),
(189,310,o),
(187,323,o),
(184,335,cs),
(182,341,o),
(181,348,o),
(181,354,c),
(189,347,o),
(197,340,o),
(206,334,cs),
(217,328,o),
(228,323,o),
(241,320,cs),
(247,318,o),
(254,317,o),
(260,317,c),
(259,313,o),
(260,311,o),
(259,309,c),
(250,299,o),
(250,281,o),
(232,278,c),
(230,277,o),
(228,268,o),
(229,264,cs),
(232,254,o),
(240,246,o),
(250,245,cs),
(254,244,o),
(259,249,o),
(262,251,c),
(253,275,l),
(268,271,o),
(284,265,o),
(299,258,cs),
(321,246,o),
(348,250,o),
(367,230,cs),
(373,224,o),
(379,218,o),
(385,213,cs),
(445,160,ls),
(453,153,o),
(462,145,o),
(470,137,cs),
(506,107,ls),
(517,98,o),
(528,89,o),
(540,80,cs),
(555,69,o),
(570,57,o),
(584,45,c),
(590,38,o),
(598,35,o),
(607,35,c),
(606,41,o),
(606,47,o),
(606,53,cs),
(606,81,o),
(600,109,o),
(589,135,cs),
(576,171,o),
(558,205,o),
(543,240,cs),
(541,244,o),
(540,248,o),
(540,252,c),
(533,279,o),
(519,301,o),
(490,308,cs),
(470,313,o),
(450,317,o),
(429,309,cs),
(426,308,o),
(421,311,o),
(418,312,c),
(419,315,o),
(419,320,o),
(421,322,cs),
(429,328,o),
(437,333,o),
(446,338,cs),
(461,345,o),
(469,358,o),
(463,370,cs),
(456,383,o),
(458,398,o),
(469,408,c),
(456,413,l),
(434,382,ls),
(427,372,o),
(421,362,o),
(415,351,cs),
(409,336,o),
(405,320,o),
(400,304,cs),
(396,292,o),
(379,288,o),
(372,297,cs),
(365,306,o),
(359,316,o),
(354,326,cs),
(342,351,o),
(325,368,o),
(296,366,c),
(292,371,o),
(290,376,o),
(286,378,cs),
(271,384,o),
(255,388,o),
(238,391,cs),
(220,394,o),
(203,401,o),
(187,411,c),
(189,418,o),
(193,425,o),
(196,433,cs),
(197,437,o),
(197,441,o),
(198,445,cs),
(198,448,o),
(199,450,o),
(201,452,cs),
(207,457,o),
(215,458,o),
(221,455,cs),
(223,454,o),
(226,453,o),
(228,453,cs),
(243,453,o),
(258,453,o),
(273,452,cs),
(288,452,o),
(303,450,o),
(318,449,cs),
(319,449,o),
(320,450,o),
(322,451,cs),
(329,453,o),
(330,460,o),
(334,465,cs),
(340,471,o),
(345,478,o),
(350,485,c),
(358,500,o),
(366,515,o),
(373,531,cs),
(377,539,o),
(379,548,o),
(381,556,c),
(396,595,ls),
(397,598,o),
(397,601,o),
(398,604,c),
(398,614,o),
(403,624,o),
(413,628,c),
(410,639,o),
(410,640,o),
(402,638,c),
(403,633,o),
(402,634,o),
(398,631,cs),
(391,626,o),
(385,621,o),
(380,616,cs),
(370,607,o),
(360,596,o),
(350,587,cs),
(343,580,o),
(337,573,o),
(330,567,c),
(326,562,o),
(323,558,o),
(319,554,cs),
(307,542,o),
(293,532,o),
(282,519,cs),
(271,506,o),
(256,506,o),
(241,506,cs),
(236,506,o),
(233,507,o),
(230,502,c),
(228,500,o),
(225,498,o),
(222,498,cs),
(216,497,o),
(209,498,o),
(203,498,c),
(200,497,o),
(197,498,o),
(195,500,cs),
(193,502,o),
(191,504,o),
(191,507,cs),
(191,514,o),
(192,522,o),
(187,528,cs),
(184,531,o),
(182,535,o),
(181,539,cs),
(178,547,o),
(174,556,o),
(169,563,cs),
(166,567,o),
(165,571,o),
(167,576,cs),
(168,580,o),
(168,584,o),
(168,589,cs),
(168,592,o),
(165,595,o),
(165,598,cs),
(164,602,o),
(164,607,o),
(164,611,cs),
(163,617,o),
(163,623,o),
(163,629,cs),
(163,635,o),
(164,642,o),
(165,649,c),
(163,650,l),
(161,641,o),
(145,642,o),
(148,629,c),
(140,626,l),
(139,631,o),
(139,637,o),
(138,642,cs),
(136,648,o),
(139,656,o),
(145,658,cs),
(157,663,o),
(166,673,o),
(167,686,c),
(168,688,o),
(168,690,o),
(169,691,cs),
(170,693,o),
(171,694,o),
(172,695,cs),
(176,698,o),
(180,701,o),
(183,704,cs),
(185,706,o),
(185,708,o),
(185,709,c),
(183,711,o),
(182,711,o),
(180,711,cs),
(178,711,o),
(176,711,o),
(175,710,c),
(175,719,l),
(161,712,o),
(159,706,o),
(167,695,c),
(148,694,l),
(148,692,o),
(149,690,o),
(149,687,c),
(129,691,ls),
(126,692,o),
(121,692,o),
(120,694,c),
(120,697,o),
(120,700,o),
(121,703,c),
(121,706,o),
(122,708,o),
(123,711,c),
(114,710,o),
(114,711,o),
(104,704,cs),
(102,702,o),
(101,697,o),
(99,694,c),
(102,693,o),
(105,693,o),
(108,693,c),
(109,692,l),
(113,690,o),
(105,682,o),
(114,682,c),
(115,685,o),
(115,687,o),
(116,689,c),
(128,685,l),
(124,680,o),
(120,675,o),
(115,671,c),
(109,668,o),
(102,666,o),
(96,665,c),
(98,659,o),
(96,655,o),
(90,655,c),
(79,659,l),
(79,658,o),
(79,657,o),
(80,655,cs),
(84,649,o),
(84,646,o),
(77,642,c),
(76,641,o),
(75,641,o),
(75,640,cs),
(73,629,o),
(63,621,o),
(66,609,cs),
(69,599,o),
(68,598,o),
(78,602,c),
(78,594,o),
(77,586,o),
(76,577,c),
(80,579,o),
(83,582,o),
(86,584,cs),
(90,588,o),
(92,592,o),
(95,596,cs),
(96,597,o),
(97,599,o),
(98,601,c),
(99,608,o),
(99,615,o),
(101,622,cs),
(105,634,o),
(116,643,o),
(129,643,c),
(128,638,o),
(128,634,o),
(128,629,cs),
(127,621,o),
(126,612,o),
(124,604,c),
(124,602,o),
(120,601,o),
(118,600,c),
(114,591,o),
(111,582,o),
(107,573,cs),
(106,571,o),
(104,568,o),
(102,568,c),
(94,566,o),
(87,563,o),
(81,558,cs),
(73,553,o),
(73,553,o),
(78,546,c),
(84,549,o),
(91,552,o),
(97,554,c),
(99,554,o),
(101,554,o),
(103,552,cs),
(107,548,o),
(109,549,o),
(113,553,cs),
(116,555,o),
(119,558,o),
(123,560,c),
(125,554,o),
(127,549,o),
(129,542,c),
(126,541,o),
(122,540,o),
(119,540,c),
(111,538,o),
(102,538,o),
(93,538,cs),
(84,538,o),
(78,533,o),
(70,529,c),
(73,523,o),
(75,518,o),
(77,512,cs),
(81,496,o),
(85,480,o),
(90,464,cs),
(93,451,o),
(97,439,o),
(101,426,cs),
(102,420,o),
(105,413,o),
(106,406,cs),
(110,389,o),
(114,371,o),
(119,354,cs),
(122,339,o),
(126,323,o),
(131,308,cs),
(132,303,o),
(132,297,o),
(129,293,c),
(123,279,ls),
(122,276,o),
(122,273,o),
(121,270,c),
(146,278,l),
(144,262,o),
(134,251,o),
(127,239,c),
(129,238,l),
(136,243,l),
(135,234,o),
(133,227,o),
(133,219,cs),
(132,208,o),
(133,198,o),
(133,187,cs),
(134,171,o),
(135,156,o),
(134,140,cs),
(134,127,o),
(131,113,o),
(130,100,cs),
(129,88,o),
(129,75,o),
(128,63,cs),
(125,43,ls),
(124,34,o),
(124,25,o),
(123,17,cs),
(114,-26,l)
);
}
);
width = 676;
}
);
note = K;
unicode = (75,107);
},
{
glyphname = L;
lastChange = "2022-12-26 01:24:12 +0000";
layers = (
{
layerId = m01;
shapes = (
{
closed = 1;
nodes = (
(426,-20,o),
(427,-12,o),
(417,7,c),
(432,18,ls),
(452,33,o),
(441,54,o),
(439,71,cs),
(437,89,o),
(429,107,o),
(423,124,cs),
(422,127,o),
(419,129,o),
(418,132,cs),
(406,156,ls),
(403,161,o),
(400,167,o),
(396,173,c),
(393,180,o),
(391,187,o),
(389,195,cs),
(386,203,o),
(378,214,o),
(381,220,cs),
(388,236,o),
(377,245,o),
(374,257,c),
(361,253,o),
(364,246,o),
(365,237,cs),
(366,230,o),
(359,222,o),
(356,214,c),
(347,224,o),
(341,236,o),
(338,249,c),
(332,250,l),
(330,242,o),
(328,233,o),
(327,225,c),
(328,214,o),
(329,203,o),
(331,192,c),
(321,200,o),
(313,205,o),
(308,211,c),
(304,219,o),
(301,227,o),
(300,235,c),
(277,226,o),
(281,197,o),
(266,180,c),
(265,180,o),
(268,177,o),
(268,175,cs),
(268,161,o),
(269,147,o),
(253,141,c),
(252,148,o),
(248,155,o),
(249,161,cs),
(253,179,o),
(261,197,o),
(265,216,cs),
(269,234,o),
(270,252,o),
(260,270,c),
(256,261,o),
(251,251,o),
(254,243,cs),
(258,230,o),
(251,228,o),
(242,228,cs),
(233,227,o),
(232,223,o),
(232,214,cs),
(232,191,o),
(217,174,o),
(205,156,c),
(205,155,o),
(201,155,o),
(198,154,c),
(196,168,o),
(194,179,o),
(209,184,c),
(213,187,o),
(215,191,o),
(216,196,cs),
(219,221,o),
(221,247,o),
(224,273,c),
(244,275,o),
(233,291,o),
(238,302,c),
(222,298,l),
(224,317,o),
(228,336,o),
(225,354,cs),
(221,378,o),
(211,400,o),
(206,424,cs),
(201,447,o),
(188,464,o),
(172,481,cs),
(164,490,o),
(151,503,o),
(159,516,cs),
(173,537,o),
(162,558,o),
(162,578,cs),
(161,592,o),
(143,606,o),
(130,618,cs),
(122,627,o),
(119,633,o),
(128,642,cs),
(137,652,ls),
(145,661,o),
(141,669,o),
(134,677,c),
(127,645,o),
(119,639,o),
(99,657,c),
(98,655,o),
(96,654,o),
(96,652,cs),
(94,636,o),
(100,619,o),
(86,606,cs),
(85,605,o),
(87,601,o),
(87,600,c),
(84,590,o),
(93,577,o),
(78,570,c),
(63,595,l),
(59,582,o),
(56,574,o),
(54,566,c),
(53,565,o),
(59,560,o),
(60,560,c),
(76,567,o),
(78,559,o),
(79,546,cs),
(80,534,o),
(82,521,o),
(86,509,cs),
(92,487,o),
(103,465,o),
(84,444,cs),
(75,434,o),
(75,424,o),
(87,415,cs),
(90,413,o),
(93,408,o),
(92,406,cs),
(83,391,o),
(95,385,o),
(104,378,cs),
(115,369,o),
(129,360,o),
(135,348,cs),
(148,323,o),
(152,294,o),
(147,267,cs),
(139,226,o),
(142,182,o),
(139,139,cs),
(138,117,o),
(133,94,o),
(130,74,c),
(138,69,o),
(149,67,o),
(152,61,cs),
(156,55,o),
(152,45,o),
(152,34,c),
(159,35,o),
(169,34,o),
(174,38,cs),
(190,53,o),
(164,58,o),
(165,71,c),
(171,70,o),
(178,66,o),
(182,68,cs),
(199,76,o),
(215,87,o),
(232,93,cs),
(244,98,o),
(257,98,o),
(269,95,cs),
(285,89,o),
(300,82,o),
(315,74,c),
(349,122,l),
(363,91,l),
(396,72,l),
(373,61,o),
(355,53,o),
(337,43,cs),
(319,35,o),
(298,27,o),
(308,-1,c),
(325,4,l),
(323,10,o),
(321,15,o),
(321,16,c),
(342,23,l),
(348,-28,l),
(364,-22,o),
(376,-8,o),
(379,9,cs),
(380,16,o),
(388,22,o),
(394,28,c),
(395,28,o),
(405,23,o),
(405,19,cs),
(406,12,o),
(405,5,o),
(403,-2,c),
(403,-6,o),
(401,-11,o),
(403,-14,cs),
(415,-33,l)
);
},
{
closed = 1;
nodes = (
(189,87,o),
(185,91,o),
(184,119,cs),
(184,123,o),
(180,127,o),
(179,131,cs),
(178,135,o),
(179,139,o),
(181,143,c),
(183,145,o),
(189,145,o),
(193,145,c),
(208,139,l),
(209,124,o),
(211,109,o),
(212,94,c)
);
}
);
width = 512;
}
);
note = L;
unicode = (76,108);
},
{
glyphname = M;
lastChange = "2022-12-26 01:24:14 +0000";
layers = (
{
layerId = m01;
shapes = (
{
closed = 1;
nodes = (
(76,10,l),
(80,7,o),
(82,7,o),
(84,12,c),
(86,14,o),
(88,17,o),
(91,19,cs),
(94,21,o),
(96,24,o),
(99,27,c),
(101,32,o),
(104,37,o),
(108,42,cs),
(110,44,o),
(112,47,o),
(113,50,cs),
(115,56,o),
(116,64,o),
(124,67,c),
(124,67,o),
(125,69,o),
(125,70,cs),
(126,73,o),
(128,76,o),
(132,77,cs),
(133,77,o),
(134,79,o),
(135,79,c),
(139,83,o),
(144,86,o),
(148,90,c),
(148,94,o),
(150,99,o),
(153,103,cs),
(156,106,o),
(159,110,o),
(161,114,c),
(163,115,o),
(162,119,o),
(163,121,c),
(167,125,o),
(170,130,o),
(173,135,cs),
(182,146,ls),
(186,150,o),
(190,155,o),
(196,154,cs),
(197,154,o),
(198,155,o),
(198,156,c),
(201,159,o),
(203,164,o),
(208,166,cs),
(211,167,o),
(214,169,o),
(216,171,c),
(221,174,o),
(226,175,o),
(231,173,c),
(232,173,o),
(233,173,o),
(234,174,c),
(231,177,l),
(231,178,l),
(235,179,o),
(239,179,o),
(242,180,cs),
(243,180,o),
(244,182,o),
(245,184,c),
(244,184,o),
(242,186,o),
(241,186,cs),
(238,185,o),
(234,184,o),
(231,182,c),
(228,181,o),
(226,178,o),
(223,177,cs),
(203,168,l),
(202,167,o),
(201,167,o),
(200,167,c),
(198,174,o),
(199,181,o),
(203,187,cs),
(206,192,o),
(210,196,o),
(215,198,cs),
(224,202,o),
(232,205,o),
(242,207,c),
(245,207,o),
(248,208,o),
(250,209,cs),
(255,211,o),
(262,212,o),
(263,218,cs),
(264,225,o),
(269,227,o),
(273,230,cs),
(277,233,o),
(280,236,o),
(284,240,c),
(274,246,o),
(269,252,o),
(270,257,c),
(266,255,o),
(263,253,o),
(260,251,cs),
(255,249,o),
(250,246,o),
(246,244,cs),
(238,241,ls),
(236,240,o),
(233,239,o),
(229,238,c),
(232,249,ls),
(233,253,o),
(236,254,o),
(238,257,cs),
(242,262,o),
(247,266,o),
(252,270,c),
(256,272,o),
(261,275,o),
(261,278,cs),
(262,284,o),
(266,287,o),
(267,292,cs),
(268,295,o),
(268,296,o),
(266,298,cs),
(264,300,o),
(262,302,o),
(261,304,c),
(259,306,o),
(258,309,o),
(257,312,c),
(259,313,o),
(260,315,o),
(263,311,c),
(267,303,o),
(273,297,o),
(280,292,cs),
(283,289,o),
(288,289,o),
(292,292,c),
(294,289,o),
(298,286,o),
(302,285,cs),
(307,284,o),
(311,285,o),
(315,287,c),
(306,293,l),
(303,290,l),
(302,290,l),
(303,296,o),
(302,301,o),
(300,306,c),
(296,312,o),
(290,312,o),
(285,312,c),
(285,313,o),
(284,313,o),
(285,313,c),
(289,322,o),
(292,332,o),
(300,339,cs),
(301,340,o),
(302,341,o),
(302,342,cs),
(302,346,o),
(306,348,o),
(308,351,cs),
(311,355,o),
(317,357,o),
(316,363,c),
(313,364,o),
(310,363,o),
(307,361,cs),
(304,358,o),
(301,356,o),
(297,356,c),
(289,354,o),
(282,350,o),
(278,344,cs),
(277,342,o),
(276,340,o),
(276,339,cs),
(277,336,o),
(277,334,o),
(274,333,cs),
(270,332,o),
(271,330,o),
(272,328,cs),
(273,327,o),
(274,326,o),
(275,326,c),
(274,324,l),
(269,326,l),
(269,331,o),
(266,336,o),
(270,341,cs),
(271,343,o),
(271,345,o),
(271,347,c),
(266,347,ls),
(263,347,o),
(261,347,o),
(259,348,cs),
(257,349,o),
(255,351,o),
(255,354,c),
(254,353,o),
(253,353,o),
(253,353,c),
(253,348,o),
(252,343,o),
(252,339,cs),
(251,335,l),
(247,341,l),
(245,342,o),
(244,343,o),
(244,345,cs),
(244,347,o),
(245,349,o),
(247,350,cs),
(248,351,o),
(249,353,o),
(249,354,c),
(248,355,l),
(236,347,l),
(236,347,o),
(236,348,o),
(235,348,c),
(234,349,o),
(234,350,o),
(233,350,c),
(233,349,o),
(232,348,o),
(232,347,cs),
(232,344,l),
(231,341,o),
(231,336,o),
(230,336,c),
(223,333,o),
(227,329,o),
(227,325,c),
(232,326,l),
(233,319,o),
(239,322,o),
(241,319,c),
(243,324,l),
(255,314,l),
(252,306,l),
(257,305,l),
(257,304,l),
(254,303,o),
(252,302,o),
(249,302,cs),
(243,303,o),
(246,310,o),
(242,312,c),
(242,301,l),
(240,301,l),
(240,304,o),
(239,306,o),
(238,309,cs),
(238,310,o),
(237,312,o),
(236,312,cs),
(235,312,o),
(234,311,o),
(233,310,c),
(232,310,o),
(232,309,o),
(232,308,c),
(226,312,o),
(220,315,o),
(214,317,c),
(212,317,o),
(210,319,o),
(210,320,c),
(207,327,o),
(211,333,o),
(214,338,cs),
(221,350,o),
(221,363,o),
(224,376,c),
(226,380,o),
(227,385,o),
(229,390,cs),
(235,404,ls),
(236,406,o),
(236,408,o),
(237,411,cs),
(238,414,o),
(238,418,o),
(238,421,c),
(239,423,o),
(241,424,o),
(242,425,c),
(245,419,o),
(248,415,o),
(251,409,c),
(256,416,l),
(255,416,l),
(262,416,l),
(259,421,o),
(259,422,o),
(263,422,cs),
(268,423,o),
(272,426,o),
(275,430,c),
(275,431,o),
(276,433,o),
(277,434,cs),
(286,441,l),
(288,444,o),
(290,446,o),
(293,448,cs),
(300,451,o),
(305,458,o),
(306,466,cs),
(309,480,l),
(308,481,o),
(308,481,o),
(307,481,cs),
(300,482,o),
(293,478,o),
(289,471,c),
(289,470,o),
(289,470,o),
(288,469,cs),
(283,466,o),
(279,461,o),
(277,456,cs),
(276,454,o),
(274,452,o),
(273,451,c),
(266,447,o),
(259,443,o),
(253,439,cs),
(251,438,o),
(249,439,o),
(247,439,c),
(249,444,ls),
(250,447,o),
(252,450,o),
(253,454,cs),
(254,457,o),
(253,461,o),
(254,465,c),
(257,471,o),
(259,473,o),
(265,471,c),
(272,478,o),
(272,478,o),
(265,481,c),
(266,483,o),
(266,484,o),
(266,485,c),
(269,491,o),
(268,500,o),
(278,501,cs),
(279,501,o),
(281,503,o),
(281,505,cs),
(281,506,o),
(279,508,o),
(278,509,cs),
(277,511,o),
(277,512,o),
(276,514,c),
(276,519,l),
(274,522,o),
(275,526,o),
(277,528,c),
(279,532,o),
(281,536,o),
(286,537,cs),
(291,539,o),
(296,539,o),
(301,539,c),
(309,537,o),
(317,534,o),
(325,530,cs),
(331,526,o),
(339,524,o),
(346,524,c),
(350,509,o),
(349,494,o),
(353,479,cs),
(358,459,o),
(366,439,o),
(373,419,cs),
(375,413,o),
(376,408,o),
(377,403,cs),
(379,388,o),
(384,384,o),
(398,384,cs),
(402,384,o),
(409,378,o),
(409,375,cs),
(409,353,o),
(408,331,o),
(408,308,c),
(388,310,o),
(375,325,o),
(368,347,cs),
(364,361,o),
(358,375,o),
(351,388,c),
(350,391,o),
(346,392,o),
(339,393,c),
(345,353,l),
(352,328,o),
(360,305,o),
(368,281,c),
(371,277,o),
(376,275,o),
(381,276,c),
(405,290,o),
(421,282,o),
(422,253,cs),
(422,251,o),
(421,249,o),
(421,247,c),
(457,252,l),
(456,258,o),
(456,265,o),
(456,272,cs),
(457,292,o),
(458,312,o),
(461,332,cs),
(463,354,o),
(467,376,o),
(470,397,cs),
(471,407,o),
(473,417,o),
(475,427,cs),
(481,447,o),
(473,464,o),
(464,481,cs),
(457,495,o),
(450,508,o),
(442,521,cs),
(438,528,o),
(433,535,o),
(428,542,c),
(429,542,o),
(430,543,o),
(432,544,cs),
(436,546,o),
(441,547,o),
(445,550,cs),
(450,553,l),
(462,552,o),
(473,550,o),
(485,547,cs),
(494,545,o),
(501,534,o),
(510,528,cs),
(533,514,o),
(537,492,o),
(539,467,c),
(542,451,o),
(546,435,o),
(552,420,cs),
(558,401,o),
(565,383,o),
(572,364,cs),
(580,339,o),
(587,313,o),
(596,288,cs),
(603,269,o),
(614,251,o),
(621,231,cs),
(627,214,o),
(636,198,o),
(648,185,cs),
(660,170,o),
(667,152,o),
(678,136,cs),
(684,127,o),
(684,112,o),
(701,112,c),
(703,96,o),
(709,82,o),
(725,75,cs),
(733,72,o),
(740,70,o),
(747,67,cs),
(761,61,o),
(764,52,o),
(760,37,cs),
(758,32,o),
(761,25,o),
(763,16,c),
(775,26,o),
(782,32,o),
(780,47,cs),
(778,56,o),
(786,67,o),
(791,76,cs),
(796,86,o),
(810,92,o),
(803,106,c),
(824,126,o),
(800,140,o),
(797,158,c),
(812,157,o),
(816,167,o),
(817,179,c),
(821,189,l),
(821,193,o),
(821,199,o),
(819,200,cs),
(815,201,o),
(811,201,o),
(807,199,c),
(802,193,o),
(797,188,o),
(793,182,c),
(790,179,o),
(787,177,o),
(784,175,c),
(778,184,ls),
(775,190,o),
(772,197,o),
(767,203,cs),
(751,221,o),
(762,238,o),
(769,255,c),
(770,261,o),
(771,266,o),
(771,271,c),
(776,287,o),
(781,303,o),
(784,319,cs),
(787,337,o),
(789,354,o),
(791,373,c),
(760,370,o),
(758,367,o),
(758,340,cs),
(758,330,o),
(757,320,o),
(755,310,cs),
(754,302,o),
(753,294,o),
(753,286,cs),
(755,270,o),
(756,253,o),
(742,238,c),
(690,333,ls),
(674,361,o),
(657,388,o),
(642,417,cs),
(633,434,o),
(626,453,o),
(618,471,cs),
(610,487,o),
(601,502,o),
(593,518,cs),
(584,534,o),
(575,550,o),
(568,566,cs),
(564,578,o),
(553,586,o),
(540,586,c),
(533,588,o),
(526,590,o),
(519,593,c),
(522,596,o),
(526,598,o),
(530,599,cs),
(541,601,o),
(549,610,o),
(560,615,cs),
(565,618,o),
(571,621,o),
(576,625,cs),
(584,630,o),
(592,634,o),
(599,639,cs),
(602,641,o),
(605,643,o),
(608,644,c),
(612,647,o),
(616,649,o),
(620,651,cs),
(624,652,o),
(627,654,o),
(630,656,c),
(645,678,l),
(607,672,l),
(606,671,o),
(606,670,o),
(605,670,c),
(595,666,o),
(586,659,o),
(577,651,cs),
(573,648,o),
(569,645,o),
(565,642,c),
(548,625,l),
(545,623,o),
(542,621,o),
(539,620,c),
(534,617,o),
(527,614,o),
(522,612,cs),
(510,606,ls),
(504,604,o),
(497,602,o),
(491,600,cs),
(484,597,l),
(483,597,o),
(482,596,o),
(481,595,c),
(477,594,o),
(474,592,o),
(471,591,cs),
(467,589,o),
(464,587,o),
(461,586,cs),
(460,586,o),
(458,586,o),
(458,587,c),
(455,592,o),
(450,596,o),
(444,597,cs),
(441,598,o),
(441,596,o),
(441,594,cs),
(442,589,o),
(446,585,o),
(451,583,c),
(453,583,o),
(454,583,o),
(455,582,c),
(450,582,o),
(445,582,o),
(440,583,cs),
(415,586,o),
(415,587,o),
(390,577,c),
(394,565,o),
(397,552,o),
(401,540,c),
(398,538,l),
(397,539,l),
(398,540,o),
(398,542,o),
(399,544,c),
(392,543,ls),
(390,543,o),
(388,544,o),
(386,545,c),
(379,545,l),
(384,537,l),
(381,534,o),
(378,534,o),
(375,535,cs),
(372,536,o),
(369,536,o),
(366,537,c),
(348,588,ls),
(347,592,o),
(344,596,o),
(342,599,c),
(333,607,l),
(332,611,o),
(332,616,o),
(335,620,c),
(336,623,o),
(340,624,o),
(342,628,c),
(330,625,l),
(304,621,l),
(237,610,l),
(235,602,l),
(239,602,l),
(240,600,l),
(237,599,o),
(233,599,o),
(230,599,cs),
(227,599,o),
(227,602,o),
(228,605,cs),
(228,606,o),
(228,607,o),
(227,608,c),
(192,602,l),
(193,599,o),
(193,596,o),
(194,592,cs),
(194,591,o),
(194,590,o),
(193,589,c),
(191,585,o),
(190,579,o),
(191,574,cs),
(192,571,o),
(192,569,o),
(192,567,cs),
(191,561,o),
(190,556,o),
(190,551,c),
(189,549,o),
(190,548,o),
(191,547,cs),
(195,543,o),
(194,539,o),
(193,534,cs),
(191,528,o),
(187,522,o),
(194,518,c),
(192,516,o),
(190,515,o),
(189,513,c),
(189,508,l),
(186,509,o),
(183,511,o),
(181,513,cs),
(177,517,o),
(174,521,o),
(171,526,cs),
(168,530,o),
(165,535,o),
(162,540,cs),
(159,546,o),
(156,551,o),
(152,556,c),
(149,562,o),
(146,568,o),
(142,574,cs),
(138,579,o),
(133,585,o),
(127,590,c),
(125,589,l),
(125,587,o),
(125,585,o),
(126,583,cs),
(127,581,o),
(129,579,o),
(130,576,cs),
(133,567,o),
(135,558,o),
(138,548,c),
(141,544,l),
(142,541,o),
(144,538,o),
(140,537,cs),
(137,536,o),
(133,536,o),
(129,536,cs),
(125,536,o),
(120,537,o),
(116,537,cs),
(108,536,o),
(104,530,o),
(100,526,cs),
(93,520,o),
(87,513,o),
(82,505,c),
(80,504,o),
(79,503,o),
(77,503,c),
(80,509,ls),
(81,511,o),
(83,513,o),
(82,515,cs),
(81,518,o),
(80,521,o),
(77,523,c),
(72,530,o),
(64,530,o),
(57,529,cs),
(56,529,o),
(55,528,o),
(54,527,c),
(55,526,o),
(56,525,o),
(57,523,cs),
(60,517,o),
(63,510,o),
(66,504,cs),
(68,501,l),
(71,499,o),
(74,498,o),
(77,495,c),
(79,497,o),
(82,498,o),
(85,498,cs),
(87,498,o),
(90,496,o),
(92,494,c),
(93,505,o),
(101,507,o),
(110,508,cs),
(114,509,l),
(117,511,o),
(121,513,o),
(124,513,cs),
(132,514,o),
(139,515,o),
(146,517,cs),
(153,519,o),
(156,518,o),
(159,511,cs),
(161,505,o),
(165,504,o),
(170,503,cs),
(173,502,o),
(175,501,o),
(176,499,cs),
(178,495,o),
(180,496,o),
(183,496,c),
(184,495,o),
(186,494,o),
(186,493,cs),
(186,490,o),
(187,486,o),
(185,485,cs),
(181,482,o),
(183,478,o),
(183,474,cs),
(183,464,l),
(177,460,o),
(170,461,o),
(165,464,c),
(163,466,o),
(160,466,o),
(158,464,c),
(153,462,o),
(148,459,o),
(143,456,c),
(143,455,o),
(143,454,o),
(142,453,c),
(145,452,o),
(149,452,o),
(152,452,c),
(155,451,o),
(159,451,o),
(162,450,cs),
(174,447,l),
(176,447,o),
(177,444,o),
(177,443,cs),
(180,431,l),
(180,429,o),
(178,427,o),
(177,425,cs),
(176,423,o),
(175,420,o),
(176,418,c),
(177,413,o),
(180,408,o),
(182,404,c),
(181,403,l),
(177,406,l),
(176,409,o),
(174,412,o),
(173,415,cs),
(170,423,o),
(165,430,o),
(159,437,cs),
(158,438,o),
(156,439,o),
(154,440,c),
(153,429,o),
(152,418,o),
(152,407,c),
(145,409,l),
(145,410,o),
(144,412,o),
(144,413,c),
(140,413,l),
(132,408,o),
(124,404,o),
(115,403,cs),
(113,403,o),
(112,403,o),
(111,402,cs),
(110,401,o),
(109,400,o),
(109,399,cs),
(109,398,o),
(111,397,o),
(111,397,c),
(117,396,o),
(122,396,o),
(128,396,cs),
(138,397,o),
(149,398,o),
(156,407,c),
(158,408,o),
(161,408,o),
(162,405,cs),
(162,404,o),
(162,402,o),
(163,401,cs),
(168,396,o),
(170,389,o),
(172,383,cs),
(174,377,o),
(172,370,o),
(167,366,cs),
(165,364,o),
(162,363,o),
(161,361,cs),
(160,360,o),
(163,357,o),
(164,355,c),
(140,340,l),
(141,339,ls),
(143,338,o),
(145,339,o),
(147,339,cs),
(151,339,o),
(153,338,o),
(153,334,cs),
(153,332,o),
(153,331,o),
(154,330,cs),
(158,327,o),
(158,321,o),
(155,318,c),
(163,313,l),
(162,312,ls),
(161,311,o),
(159,311,o),
(157,310,cs),
(153,309,o),
(150,307,o),
(146,305,c),
(143,301,o),
(138,299,o),
(133,297,c),
(118,297,l),
(118,297,o),
(117,297,o),
(117,298,c),
(111,298,o),
(106,304,o),
(106,310,c),
(98,313,o),
(98,313,o),
(95,311,c),
(98,306,o),
(97,300,o),
(92,300,cs),
(88,300,o),
(85,297,o),
(85,293,c),
(82,285,o),
(76,281,o),
(71,275,c),
(69,275,ls),
(64,274,o),
(60,271,o),
(61,267,c),
(54,264,ls),
(50,263,o),
(46,260,o),
(41,262,cs),
(39,263,o),
(37,263,o),
(35,262,cs),
(34,261,l),
(39,260,o),
(40,259,o),
(36,255,c),
(44,256,o),
(51,256,o),
(57,257,cs),
(61,258,o),
(64,261,o),
(67,262,cs),
(72,264,o),
(73,263,o),
(74,258,c),
(80,256,o),
(81,262,o),
(87,263,c),
(82,267,o),
(78,259,o),
(74,265,c),
(76,266,o),
(77,267,o),
(78,267,c),
(82,269,o),
(85,273,o),
(86,277,cs),
(90,288,o),
(96,290,o),
(105,290,cs),
(109,290,o),
(112,287,o),
(113,283,c),
(111,282,o),
(109,281,o),
(108,280,cs),
(104,277,o),
(99,276,o),
(95,278,c),
(94,279,o),
(92,278,o),
(90,277,c),
(90,276,l),
(92,276,o),
(93,275,o),
(95,275,c),
(100,273,o),
(106,274,o),
(111,277,c),
(113,279,o),
(117,281,o),
(120,283,cs),
(122,285,o),
(124,287,o),
(127,288,c),
(131,291,l),
(132,290,l),
(131,285,l),
(136,285,o),
(137,289,o),
(139,291,cs),
(142,294,o),
(145,298,o),
(150,296,cs),
(153,294,o),
(154,296,o),
(156,297,c),
(160,302,o),
(166,306,o),
(172,307,c),
(173,308,o),
(174,308,o),
(174,308,c),
(179,312,o),
(185,313,o),
(190,310,cs),
(194,308,o),
(194,303,o),
(195,299,c),
(190,297,l),
(190,296,l),
(192,295,o),
(193,295,o),
(195,296,cs),
(198,297,o),
(198,295,o),
(199,293,cs),
(201,289,o),
(200,284,o),
(198,281,c),
(195,279,o),
(192,277,o),
(188,276,c),
(187,277,l),
(192,285,l),
(191,286,l),
(167,268,l),
(172,267,o),
(177,268,o),
(181,270,c),
(185,274,o),
(191,275,o),
(196,273,c),
(189,263,l),
(192,260,o),
(195,257,o),
(191,253,c),
(191,250,ls),
(192,245,o),
(190,242,o),
(184,242,c),
(185,237,o),
(186,233,o),
(180,232,c),
(179,231,ls),
(177,229,o),
(175,228,o),
(173,231,cs),
(172,232,o),
(171,231,o),
(170,232,c),
(170,229,o),
(172,226,o),
(175,226,c),
(177,225,o),
(184,225,o),
(178,219,c),
(178,214,l),
(172,218,o),
(169,224,o),
(167,231,c),
(165,229,o),
(163,227,o),
(162,225,cs),
(158,220,o),
(154,214,o),
(150,208,cs),
(146,203,o),
(142,199,o),
(138,195,c),
(138,194,o),
(137,194,o),
(137,193,cs),
(138,189,o),
(135,189,o),
(133,188,c),
(130,188,o),
(127,187,o),
(125,186,c),
(122,183,o),
(119,180,o),
(117,176,cs),
(116,172,o),
(112,168,o),
(117,163,c),
(114,161,l),
(111,157,o),
(105,156,o),
(100,158,c),
(100,159,o),
(98,157,o),
(98,156,c),
(97,156,o),
(98,154,o),
(98,153,c),
(93,155,o),
(91,157,o),
(94,162,c),
(93,166,l),
(92,167,l),
(89,160,o),
(86,155,o),
(79,156,c),
(78,152,l),
(81,149,o),
(86,149,o),
(89,151,c),
(91,151,o),
(92,151,o),
(94,152,c),
(92,147,o),
(91,144,o),
(90,140,c),
(93,138,o),
(93,135,o),
(91,130,c),
(90,134,o),
(89,136,o),
(88,139,c),
(86,133,o),
(85,128,o),
(80,125,c),
(77,133,l),
(76,133,l),
(74,130,o),
(74,127,o),
(74,124,cs),
(74,120,o),
(71,118,o),
(69,116,c),
(69,114,ls),
(69,113,o),
(68,112,o),
(68,111,c),
(66,113,o),
(64,115,o),
(63,117,cs),
(62,120,o),
(59,123,o),
(63,127,cs),
(64,128,o),
(63,133,o),
(62,135,c),
(62,136,o),
(59,136,o),
(57,136,cs),
(55,136,o),
(52,136,o),
(50,137,cs),
(45,141,o),
(39,141,o),
(34,139,c),
(26,133,l),
(29,130,l),
(28,129,o),
(26,129,o),
(24,130,c),
(22,130,o),
(20,131,o),
(17,131,c),
(15,132,o),
(13,132,o),
(11,132,c),
(9,131,o),
(7,131,o),
(6,129,cs),
(4,126,o),
(3,122,o),
(0,118,cs),
(-5,111,o),
(-10,105,o),
(-15,99,c),
(-13,96,o),
(-10,95,o),
(-7,96,c),
(-5,96,o),
(-4,96,o),
(-3,95,c),
(0,94,o),
(4,93,o),
(7,93,cs),
(12,94,o),
(16,96,o),
(20,99,cs),
(24,103,o),
(30,105,o),
(36,106,cs),
(38,106,o),
(39,106,o),
(40,107,c),
(44,108,o),
(50,114,o),
(50,118,cs),
(49,123,o),
(54,126,o),
(56,130,c),
(56,131,o),
(58,130,o),
(60,131,c),
(59,127,ls),
(59,126,o),
(57,126,o),
(57,125,cs),
(57,122,o),
(57,119,o),
(58,116,c),
(58,114,o),
(59,112,o),
(60,110,c),
(55,111,l),
(56,104,l),
(62,110,l),
(64,109,l),
(63,105,o),
(62,101,o),
(60,97,c),
(61,97,l),
(69,105,l),
(70,104,l),
(70,100,o),
(69,96,o),
(69,91,c),
(66,92,o),
(63,93,o),
(63,88,c),
(62,88,o),
(61,87,o),
(60,87,cs),
(57,88,o),
(56,90,o),
(55,92,cs),
(54,95,o),
(54,97,o),
(55,99,c),
(53,100,o),
(50,100,o),
(51,96,c),
(49,93,l),
(43,91,o),
(39,88,o),
(40,81,c),
(44,79,l),
(40,74,l),
(36,76,o),
(32,74,o),
(31,71,c),
(31,67,o),
(30,63,o),
(30,59,cs),
(30,56,l),
(28,57,l),
(25,62,l),
(20,56,o),
(20,55,o),
(26,52,c),
(29,52,o),
(32,51,o),
(34,51,c),
(35,53,o),
(36,54,o),
(36,56,c),
(39,59,o),
(41,61,o),
(43,65,c),
(48,62,l),
(45,57,l),
(49,54,o),
(53,52,o),
(56,50,cs),
(58,49,o),
(61,49,o),
(61,52,cs),
(61,56,o),
(63,57,o),
(67,55,c),
(68,54,l),
(74,58,l),
(75,57,l),
(72,52,o),
(72,52,o),
(68,51,c),
(63,48,o),
(60,43,o),
(58,38,c),
(59,38,l),
(59,39,l),
(77,31,l),
(76,28,o),
(74,27,o),
(74,26,c),
(75,24,o),
(74,23,o),
(73,22,c),
(73,22,o),
(72,21,o),
(70,21,cs),
(67,21,o),
(67,19,o),
(67,16,cs),
(68,12,l),
(74,12,l),
(72,8,l),
(72,7,l)
);
},
{
closed = 1;
nodes = (
(-5,107,l),
(7,119,l),
(8,119,o),
(9,120,o),
(10,120,cs),
(11,120,o),
(12,119,o),
(13,119,c),
(13,117,o),
(12,116,o),
(11,115,cs),
(8,112,o),
(5,110,o),
(2,108,cs),
(-4,105,l)
);
},
{
closed = 1;
nodes = (
(56,64,o),
(53,65,o),
(51,67,cs),
(50,68,o),
(50,70,o),
(49,72,c),
(50,71,o),
(52,71,o),
(53,70,c),
(55,70,o),
(57,69,o),
(60,68,c),
(57,73,o),
(59,77,o),
(63,77,cs),
(64,77,o),
(66,76,o),
(66,76,c),
(67,72,o),
(69,73,o),
(72,73,c),
(74,72,o),
(77,72,o),
(79,71,c),
(79,69,l),
(76,67,ls),
(74,66,o),
(73,64,o),
(72,63,c),
(72,64,o),
(71,65,o),
(71,66,cs),
(70,70,o),
(69,70,o),
(66,68,cs),
(58,62,l)
);
},
{
closed = 1;
nodes = (
(85,108,o),
(83,107,o),
(82,110,c),
(81,111,o),
(78,112,o),
(77,113,c),
(76,113,o),
(75,114,o),
(74,115,c),
(74,117,o),
(75,118,o),
(76,119,cs),
(77,120,o),
(79,120,o),
(80,119,cs),
(82,118,o),
(84,116,o),
(86,114,cs),
(87,113,o),
(87,111,o),
(86,109,cs)
);
},
{
closed = 1;
nodes = (
(102,110,l),
(101,110,l),
(109,117,l),
(110,117,l),
(111,115,o),
(112,112,o),
(111,110,c),
(108,107,o),
(107,102,o),
(102,103,c)
);
},
{
closed = 1;
nodes = (
(96,125,l),
(96,134,l),
(95,136,o),
(96,138,o),
(97,139,cs),
(99,140,o),
(101,141,o),
(102,141,c),
(99,124,l)
);
},
{
closed = 1;
nodes = (
(131,156,l),
(131,156,o),
(131,157,o),
(130,158,cs),
(126,163,o),
(126,163,o),
(131,168,cs),
(132,169,o),
(132,170,o),
(132,171,c),
(139,167,o),
(140,164,o),
(136,160,cs),
(134,158,o),
(135,156,o),
(135,154,cs),
(135,151,o),
(136,148,o),
(136,145,c),
(134,145,l)
);
},
{
closed = 1;
nodes = (
(138,147,o),
(140,150,o),
(141,154,cs),
(141,155,o),
(142,157,o),
(143,157,cs),
(144,157,o),
(146,156,o),
(146,155,cs),
(147,151,o),
(147,146,o),
(148,141,c),
(147,141,l),
(145,144,l),
(137,141,l)
);
},
{
closed = 1;
nodes = (
(201,250,l),
(203,252,o),
(204,253,o),
(206,255,cs),
(207,256,l),
(208,255,o),
(209,255,o),
(209,254,cs),
(208,250,o),
(211,247,o),
(214,246,c),
(202,241,l)
);
},
{
closed = 1;
nodes = (
(283,297,o),
(280,298,o),
(277,298,c),
(277,300,o),
(277,302,o),
(278,303,cs),
(279,304,o),
(281,306,o),
(283,307,c),
(291,300,l),
(289,298,o),
(287,297,o),
(286,297,cs)
);
},
{
closed = 1;
nodes = (
(404,406,o),
(401,411,o),
(400,415,cs),
(396,430,o),
(394,445,o),
(391,459,cs),
(387,474,o),
(383,488,o),
(378,502,cs),
(371,521,l),
(379,519,l),
(374,515,l),
(381,512,l),
(385,517,o),
(389,521,o),
(394,526,cs),
(403,534,l),
(410,508,o),
(418,482,o),
(426,456,cs),
(430,440,o),
(424,426,o),
(417,412,c),
(416,408,o),
(410,404,o),
(407,405,cs)
);
},
{
closed = 1;
nodes = (
(335,545,o),
(333,545,o),
(332,546,c),
(332,545,l),
(315,551,ls),
(310,552,o),
(305,554,o),
(299,555,cs),
(296,556,o),
(293,556,o),
(291,557,cs),
(287,558,o),
(287,565,o),
(290,569,cs),
(291,571,o),
(290,573,o),
(290,574,c),
(287,578,o),
(286,577,o),
(287,583,c),
(298,577,l),
(298,575,o),
(299,572,o),
(299,569,c),
(311,564,o),
(315,566,o),
(314,577,c),
(319,582,l),
(323,573,o),
(326,564,o),
(330,555,cs),
(332,552,o),
(334,548,o),
(337,544,c)
);
},
{
closed = 1;
nodes = (
(299,583,o),
(298,585,o),
(296,587,c),
(309,591,l),
(309,589,o),
(308,588,o),
(308,586,c),
(307,585,o),
(306,584,o),
(305,583,c),
(301,583,ls)
);
},
{
closed = 1;
nodes = (
(368,531,l),
(370,530,l),
(370,523,l)
);
},
{
closed = 1;
nodes = (
(311,594,o),
(308,596,o),
(308,599,c),
(305,610,l),
(304,608,o),
(303,607,o),
(302,606,c),
(299,607,o),
(299,610,o),
(300,612,cs),
(303,619,l),
(307,611,o),
(310,603,o),
(314,594,c)
);
},
{
closed = 1;
nodes = (
(431,554,l),
(430,554,o),
(428,555,o),
(426,555,c),
(427,556,l),
(432,555,o),
(436,555,o),
(441,554,c),
(438,551,l)
);
},
{
closed = 1;
nodes = (
(504,586,l),
(504,586,o),
(504,587,o),
(505,587,c),
(508,589,o),
(512,590,o),
(516,592,c),
(526,577,l),
(525,574,l)
);
}
);
width = 873;
}
);
note = M;
unicode = (77,109);
},
{
glyphname = N;
lastChange = "2022-12-26 01:24:16 +0000";
layers = (
{
layerId = m01;
shapes = (
{
closed = 1;
nodes = (
(11,25,o),
(14,32,o),
(16,40,cs),
(18,47,o),
(20,54,o),
(22,62,c),
(46,77,ls),
(77,100,o),
(105,126,o),
(135,150,cs),
(138,153,o),
(142,155,o),
(146,156,c),
(170,170,o),
(187,189,o),
(186,219,cs),
(185,239,o),
(184,260,o),
(171,278,cs),
(169,281,o),
(171,286,o),
(170,290,c),
(174,290,o),
(179,291,o),
(182,289,cs),
(189,283,o),
(196,276,o),
(203,269,cs),
(214,257,o),
(229,252,o),
(239,261,cs),
(249,271,o),
(265,273,o),
(277,266,c),
(278,272,o),
(278,277,o),
(278,280,c),
(265,284,o),
(254,289,o),
(242,292,c),
(231,297,o),
(220,300,o),
(208,302,cs),
(191,304,o),
(175,304,o),
(158,305,cs),
(145,305,o),
(137,320,o),
(144,330,cs),
(151,339,o),
(159,347,o),
(167,354,cs),
(188,373,o),
(200,394,o),
(191,421,c),
(194,426,o),
(199,430,o),
(199,434,cs),
(201,450,o),
(201,467,o),
(199,484,cs),
(199,499,l),
(201,490,o),
(204,481,o),
(215,479,c),
(223,486,l),
(235,477,ls),
(237,476,o),
(240,476,o),
(242,477,c),
(245,484,l),
(245,486,o),
(246,488,o),
(246,490,c),
(248,488,o),
(251,486,o),
(252,484,c),
(252,469,o),
(264,460,o),
(269,447,cs),
(273,437,o),
(276,428,o),
(270,418,c),
(269,415,o),
(269,412,o),
(270,410,cs),
(276,399,o),
(281,389,o),
(287,379,c),
(292,373,ls),
(300,364,o),
(308,355,o),
(315,345,c),
(329,318,ls),
(333,310,o),
(339,301,o),
(343,292,cs),
(345,288,o),
(344,284,o),
(338,284,c),
(334,283,l),
(337,275,o),
(340,268,o),
(342,264,c),
(361,254,l),
(364,256,l),
(359,267,l),
(356,270,o),
(353,273,o),
(351,276,c),
(352,278,l),
(359,273,o),
(365,273,o),
(369,283,c),
(383,266,l),
(385,267,l),
(384,271,o),
(384,275,o),
(386,278,c),
(387,281,o),
(390,284,o),
(394,285,c),
(396,266,l),
(407,275,l),
(408,263,o),
(408,253,o),
(409,243,cs),
(409,225,o),
(410,206,o),
(411,188,cs),
(412,175,o),
(414,162,o),
(416,149,cs),
(417,137,o),
(417,124,o),
(419,112,cs),
(420,103,o),
(421,95,o),
(423,85,c),
(420,86,o),
(418,87,o),
(417,87,c),
(415,88,o),
(413,88,o),
(410,89,c),
(410,82,l),
(412,73,o),
(413,64,o),
(413,56,cs),
(413,45,o),
(413,35,o),
(412,24,c),
(414,27,l),
(415,35,o),
(417,44,o),
(418,53,cs),
(419,57,o),
(419,62,o),
(422,65,cs),
(432,73,o),
(433,84,o),
(435,94,c),
(432,98,l),
(431,101,o),
(431,105,o),
(432,108,c),
(435,130,l),
(436,133,o),
(434,137,o),
(435,140,cs),
(439,156,o),
(440,172,o),
(439,187,cs),
(438,206,o),
(439,224,o),
(437,242,cs),
(437,257,o),
(434,270,o),
(428,283,cs),
(424,293,o),
(421,304,o),
(421,315,cs),
(420,329,o),
(422,342,o),
(423,356,c),
(422,366,o),
(423,375,o),
(424,385,c),
(427,394,o),
(431,403,o),
(435,412,cs),
(437,417,o),
(438,422,o),
(439,427,c),
(448,451,ls),
(450,459,o),
(452,468,o),
(452,476,cs),
(452,488,o),
(448,499,o),
(456,511,cs),
(459,517,o),
(461,524,o),
(461,531,c),
(464,553,o),
(465,575,o),
(463,597,cs),
(461,618,o),
(462,640,o),
(461,661,cs),
(461,673,o),
(459,685,o),
(459,697,cs),
(460,711,o),
(462,726,o),
(464,741,cs),
(466,753,o),
(471,764,o),
(473,776,cs),
(474,782,o),
(481,790,o),
(474,795,cs),
(466,802,o),
(468,810,o),
(468,817,c),
(487,819,l),
(491,810,l),
(494,815,o),
(500,822,o),
(498,823,c),
(493,832,o),
(497,838,o),
(500,844,c),
(498,849,o),
(499,854,o),
(498,858,cs),
(496,864,o),
(494,871,o),
(490,873,cs),
(480,877,o),
(471,880,o),
(461,882,c),
(457,887,o),
(465,898,o),
(451,899,c),
(448,894,o),
(446,889,o),
(443,883,c),
(434,875,l),
(436,872,l),
(454,879,l),
(460,870,o),
(458,867,o),
(448,866,c),
(442,828,l),
(438,815,o),
(437,802,o),
(436,789,c),
(438,762,o),
(429,735,o),
(437,708,c),
(436,707,l),
(434,696,o),
(431,686,o),
(429,676,cs),
(427,662,o),
(426,649,o),
(425,635,cs),
(422,569,ls),
(421,547,o),
(419,524,o),
(418,501,cs),
(417,490,o),
(418,479,o),
(418,468,cs),
(418,455,o),
(417,443,o),
(417,430,cs),
(417,418,o),
(416,407,o),
(416,395,cs),
(415,386,o),
(413,378,o),
(412,369,cs),
(412,355,o),
(413,341,o),
(412,327,cs),
(411,320,o),
(409,313,o),
(407,305,c),
(377,322,l),
(378,323,o),
(380,326,o),
(382,327,c),
(391,328,o),
(392,334,o),
(392,341,cs),
(392,353,l),
(394,367,o),
(395,380,o),
(395,394,cs),
(394,411,o),
(392,428,o),
(389,445,cs),
(388,448,o),
(386,451,o),
(384,454,c),
(381,452,o),
(377,450,o),
(376,448,cs),
(372,441,o),
(371,434,o),
(367,428,cs),
(360,420,o),
(360,409,o),
(367,401,c),
(367,399,l),
(363,387,o),
(376,382,o),
(379,373,cs),
(382,359,l),
(382,356,o),
(382,353,o),
(381,350,cs),
(375,329,l),
(372,330,l),
(362,343,o),
(373,357,o),
(372,371,c),
(366,371,l),
(351,394,l),
(345,401,o),
(341,411,o),
(341,421,cs),
(341,425,o),
(337,429,o),
(336,433,cs),
(334,440,o),
(332,447,o),
(333,453,cs),
(335,465,o),
(338,476,o),
(342,487,cs),
(347,502,o),
(355,515,o),
(364,527,cs),
(371,539,o),
(377,551,o),
(383,563,cs),
(385,567,o),
(386,573,o),
(389,575,cs),
(397,580,o),
(395,586,o),
(393,593,c),
(386,592,o),
(382,591,o),
(379,584,cs),
(375,574,o),
(369,565,o),
(362,558,cs),
(345,541,o),
(329,524,o),
(323,501,cs),
(322,496,o),
(321,492,o),
(321,487,c),
(318,473,o),
(316,458,o),
(314,443,c),
(300,445,l),
(300,448,l),
(307,451,l),
(306,451,o),
(306,452,o),
(306,452,c),
(300,465,o),
(295,478,o),
(303,492,cs),
(306,498,o),
(301,499,o),
(296,501,c),
(293,486,l),
(292,485,o),
(289,484,o),
(287,482,c),
(284,488,ls),
(280,500,o),
(277,511,o),
(273,525,c),
(278,525,o),
(283,524,o),
(288,524,c),
(289,523,o),
(290,524,o),
(291,524,c),
(291,526,o),
(291,527,o),
(290,528,cs),
(289,529,o),
(288,531,o),
(286,532,c),
(281,537,o),
(273,539,o),
(271,548,c),
(271,551,o),
(269,553,o),
(266,555,cs),
(264,556,o),
(261,556,o),
(258,555,cs),
(242,548,l),
(245,560,o),
(245,568,o),
(237,575,c),
(236,577,o),
(235,581,o),
(237,583,c),
(242,594,o),
(236,603,o),
(233,612,cs),
(230,623,o),
(216,629,o),
(221,643,c),
(211,642,o),
(204,634,o),
(194,637,c),
(193,638,o),
(186,631,o),
(186,627,cs),
(185,622,o),
(184,614,o),
(194,615,c),
(194,632,l),
(198,631,o),
(201,628,o),
(203,624,cs),
(204,620,o),
(204,616,o),
(201,613,cs),
(198,609,o),
(196,605,o),
(194,600,c),
(194,598,o),
(193,596,o),
(193,594,c),
(192,594,o),
(192,594,o),
(191,593,cs),
(179,579,o),
(168,563,o),
(158,547,cs),
(149,532,o),
(142,516,o),
(136,500,cs),
(134,492,o),
(132,484,o),
(132,476,c),
(123,468,o),
(115,458,o),
(110,446,c),
(101,446,o),
(93,452,o),
(89,460,c),
(88,461,o),
(78,461,o),
(74,459,cs),
(65,454,o),
(60,444,o),
(61,433,c),
(62,430,o),
(68,426,o),
(71,424,c),
(92,439,l),
(91,423,o),
(90,406,o),
(87,390,cs),
(85,380,o),
(85,369,o),
(86,359,c),
(82,347,o),
(79,335,o),
(75,323,cs),
(72,314,o),
(67,305,o),
(64,297,cs),
(61,290,o),
(60,284,o),
(57,278,c),
(57,276,o),
(56,275,o),
(56,273,c),
(48,257,o),
(40,240,o),
(32,223,cs),
(16,193,ls),
(10,179,o),
(3,164,o),
(-3,150,cs),
(-21,111,l),
(-27,93,o),
(-34,75,o),
(-43,59,cs),
(-48,51,o),
(-49,42,o),
(-46,34,c),
(-29,40,l),
(-28,40,o),
(-27,40,o),
(-25,41,c),
(9,16,l)
);
},
{
closed = 1;
nodes = (
(349,309,o),
(345,316,o),
(342,324,cs),
(341,327,o),
(343,331,o),
(343,334,c),
(346,332,o),
(348,330,o),
(350,327,cs),
(353,322,o),
(355,317,o),
(357,313,cs),
(361,306,o),
(357,304,o),
(353,302,c)
);
},
{
closed = 1;
nodes = (
(348,346,o),
(347,350,o),
(346,353,c),
(346,364,o),
(338,368,o),
(329,372,cs),
(326,374,o),
(324,376,o),
(323,379,cs),
(322,382,o),
(325,385,o),
(326,388,c),
(328,386,o),
(332,385,o),
(333,383,c),
(334,377,o),
(341,373,o),
(347,373,cs),
(352,373,o),
(355,371,o),
(357,367,cs),
(359,363,o),
(359,359,o),
(357,355,cs),
(355,351,o),
(353,347,o),
(350,343,c)
);
},
{
closed = 1;
nodes = (
(226,503,o),
(225,510,o),
(225,519,cs),
(224,525,o),
(224,532,o),
(221,536,cs),
(214,543,o),
(211,552,o),
(212,561,cs),
(212,563,o),
(213,565,o),
(213,567,c),
(219,585,l),
(220,585,l),
(220,584,o),
(221,583,o),
(221,582,cs),
(223,575,o),
(224,566,o),
(228,560,c),
(232,556,o),
(235,551,o),
(235,545,c),
(237,538,o),
(237,531,o),
(237,523,c),
(253,525,o),
(252,523,o),
(248,504,c),
(237,510,l),
(237,506,o),
(237,503,o),
(236,499,c)
);
}
);
width = 509;
}
);
note = N;
unicode = (78,110,209,241);
},
{
glyphname = O;
lastChange = "2022-12-26 01:24:27 +0000";
layers = (
{
layerId = m01;
shapes = (
{
closed = 1;
nodes = (
(83,-17,o),
(99,-10,o),
(114,3,cs),
(122,10,o),
(130,42,o),
(137,-11,cs),
(138,-21,o),
(146,-11,o),
(149,2,cs),
(154,18,o),
(157,53,o),
(161,68,cs),
(170,93,o),
(183,143,o),
(188,125,cs),
(206,58,o),
(220,129,o),
(233,164,cs),
(251,212,o),
(266,299,o),
(284,378,c),
(274,413,o),
(255,397,o),
(272,486,c),
(274,511,o),
(275,535,o),
(273,560,c),
(258,600,o),
(246,688,o),
(227,677,cs),
(188,654,o),
(149,641,o),
(110,614,cs),
(99,607,o),
(85,577,o),
(81,532,cs),
(76,465,o),
(68,441,o),
(58,416,cs),
(49,392,o),
(39,377,o),
(31,345,cs),
(15,287,o),
(35,245,o),
(34,192,c),
(33,186,o),
(34,180,o),
(34,175,cs),
(36,95,o),
(53,-13,o),
(67,-15,cs)
);
},
{
closed = 1;
nodes = (
(98,319,l),
(136,445,o),
(178,456,o),
(219,501,c),
(181,377,o),
(142,280,o),
(98,318,c)
);
}
);
width = 309;
}
);
note = O;
unicode = (79,111,210,211,212,213,214,216,242,243,244,245,246,248);
},
{
glyphname = P;
lastChange = "2022-12-26 01:24:29 +0000";
layers = (
{
layerId = m01;
shapes = (
{
closed = 1;
nodes = (
(113,-193,o),
(116,-188,o),
(119,-169,c),
(135,-169,ls),
(157,-167,o),
(159,-147,o),
(166,-133,cs),
(173,-119,o),
(176,-103,o),
(180,-87,c),
(180,-84,o),
(180,-81,o),
(180,-79,cs),
(183,-56,ls),
(184,-50,o),
(184,-45,o),
(184,-39,cs),
(185,-32,o),
(187,-26,o),
(190,-19,cs),
(192,-12,o),
(191,0,o),
(196,3,cs),
(209,11,o),
(206,23,o),
(209,34,c),
(198,37,o),
(197,30,o),
(193,23,cs),
(190,17,o),
(181,15,o),
(175,11,c),
(173,23,o),
(175,34,o),
(179,45,c),
(175,48,l),
(169,44,o),
(164,38,o),
(159,33,c),
(154,24,o),
(150,16,o),
(146,7,c),
(143,15,o),
(140,23,o),
(139,32,c),
(140,39,o),
(142,47,o),
(144,54,c),
(136,54,l),
(144,61,o),
(151,68,o),
(160,74,cs),
(170,81,o),
(179,90,o),
(187,100,cs),
(191,105,o),
(196,111,o),
(201,115,cs),
(214,127,l),
(205,138,o),
(196,149,o),
(188,161,cs),
(184,166,o),
(181,171,o),
(179,177,cs),
(175,185,o),
(172,194,o),
(169,203,cs),
(168,207,o),
(168,213,o),
(170,214,cs),
(176,217,o),
(183,222,o),
(191,219,cs),
(197,217,o),
(202,216,o),
(207,215,c),
(207,224,o),
(213,231,o),
(221,233,c),
(225,235,o),
(228,238,o),
(230,241,cs),
(233,246,o),
(236,251,o),
(238,256,cs),
(239,259,o),
(237,262,o),
(237,264,c),
(234,264,o),
(232,264,o),
(230,262,c),
(225,259,o),
(221,255,o),
(217,252,c),
(214,253,l),
(215,256,o),
(215,258,o),
(216,262,c),
(200,263,o),
(183,258,o),
(171,246,c),
(171,248,ls),
(171,249,o),
(172,249,o),
(172,250,c),
(235,316,ls),
(245,326,o),
(247,325,o),
(257,317,cs),
(263,313,o),
(268,314,o),
(271,321,c),
(275,327,o),
(279,333,o),
(284,338,c),
(286,327,o),
(290,327,o),
(296,332,cs),
(307,342,o),
(314,341,o),
(325,331,cs),
(329,328,l),
(330,326,o),
(332,325,o),
(334,325,c),
(334,333,o),
(331,342,o),
(335,349,c),
(332,350,o),
(328,350,o),
(324,352,cs),
(318,355,o),
(309,357,o),
(306,362,cs),
(302,368,o),
(310,372,o),
(314,377,cs),
(319,382,o),
(324,387,o),
(329,393,c),
(331,393,o),
(333,394,o),
(335,396,cs),
(337,398,o),
(337,400,o),
(337,403,c),
(338,403,o),
(338,404,o),
(339,404,c),
(342,408,o),
(345,413,o),
(349,418,c),
(347,423,l),
(351,425,o),
(354,428,o),
(357,431,c),
(375,461,ls),
(380,470,o),
(384,480,o),
(391,489,cs),
(397,498,o),
(407,506,o),
(413,516,cs),
(422,529,o),
(429,544,o),
(437,558,c),
(440,560,o),
(443,563,o),
(446,566,c),
(446,568,o),
(445,570,o),
(444,572,c),
(449,582,o),
(453,593,o),
(459,603,cs),
(461,607,o),
(463,614,o),
(472,609,c),
(472,636,l),
(466,637,o),
(459,636,o),
(452,635,cs),
(446,633,o),
(444,637,o),
(445,640,cs),
(449,648,o),
(454,656,o),
(459,663,cs),
(465,672,o),
(471,679,o),
(477,687,cs),
(478,688,o),
(476,692,o),
(475,696,c),
(471,691,o),
(468,685,o),
(464,684,cs),
(448,678,o),
(447,661,o),
(438,649,cs),
(432,642,o),
(435,632,o),
(436,623,cs),
(436,620,o),
(435,616,o),
(434,613,c),
(429,605,o),
(425,597,o),
(421,589,c),
(413,591,o),
(404,593,o),
(396,596,cs),
(389,599,o),
(384,603,o),
(380,609,cs),
(375,617,o),
(372,626,o),
(368,635,c),
(336,628,l),
(341,643,l),
(342,644,o),
(343,645,o),
(345,645,c),
(352,648,o),
(358,652,o),
(363,658,c),
(371,656,ls),
(381,653,o),
(393,649,o),
(400,664,c),
(390,668,l),
(388,662,l),
(376,667,l),
(393,691,l),
(385,693,o),
(377,693,o),
(370,689,c),
(368,691,o),
(367,693,o),
(367,694,c),
(370,699,o),
(375,704,o),
(378,710,cs),
(380,713,o),
(381,719,o),
(379,720,cs),
(374,723,o),
(368,727,o),
(361,723,cs),
(352,718,o),
(345,711,o),
(340,703,c),
(326,703,o),
(323,691,o),
(318,683,c),
(316,685,o),
(316,687,o),
(315,689,c),
(315,690,o),
(314,692,o),
(314,694,cs),
(312,709,o),
(306,713,o),
(291,712,cs),
(284,712,o),
(281,714,o),
(286,725,c),
(279,723,o),
(272,721,o),
(266,718,cs),
(259,715,o),
(254,717,o),
(252,724,cs),
(249,737,o),
(247,738,o),
(234,736,cs),
(203,732,o),
(173,727,o),
(143,722,cs),
(142,722,o),
(141,721,o),
(139,720,c),
(156,722,o),
(173,716,o),
(186,705,c),
(183,702,o),
(181,701,o),
(178,699,c),
(179,698,o),
(180,697,o),
(180,696,c),
(186,696,o),
(191,697,o),
(197,697,cs),
(199,697,o),
(201,696,o),
(203,694,c),
(202,692,o),
(201,689,o),
(199,687,cs),
(195,684,o),
(190,682,o),
(184,680,cs),
(180,678,o),
(176,678,o),
(172,679,c),
(164,683,o),
(155,680,o),
(150,673,c),
(146,677,o),
(143,681,o),
(140,686,cs),
(135,694,o),
(127,693,o),
(120,695,c),
(118,695,o),
(114,690,o),
(112,687,c),
(109,678,o),
(106,669,o),
(104,660,cs),
(101,642,l),
(101,627,o),
(102,611,o),
(102,596,c),
(103,595,o),
(102,593,o),
(102,592,c),
(95,583,o),
(99,576,o),
(107,570,c),
(103,563,o),
(98,557,o),
(108,550,c),
(109,554,o),
(110,558,o),
(110,562,c),
(118,556,l),
(119,548,o),
(119,539,o),
(118,531,cs),
(117,524,o),
(115,517,o),
(113,510,c),
(112,509,o),
(111,507,o),
(111,506,cs),
(113,493,o),
(113,480,o),
(112,468,cs),
(110,453,o),
(118,439,o),
(114,423,cs),
(112,411,o),
(111,398,o),
(111,385,c),
(111,385,o),
(111,384,o),
(110,383,c),
(109,375,o),
(107,367,o),
(105,359,c),
(104,347,o),
(102,335,o),
(98,323,cs),
(97,320,o),
(96,316,o),
(96,312,c),
(93,311,o),
(91,310,o),
(89,310,c),
(77,306,o),
(72,299,o),
(77,287,cs),
(78,285,o),
(77,279,o),
(76,278,c),
(62,271,o),
(68,262,o),
(71,252,cs),
(75,240,o),
(81,227,o),
(79,215,cs),
(77,191,o),
(66,168,o),
(49,150,cs),
(23,124,o),
(4,91,o),
(-19,62,cs),
(-31,46,o),
(-45,32,o),
(-57,18,c),
(-54,11,o),
(-47,5,o),
(-47,-2,cs),
(-48,-8,o),
(-55,-14,o),
(-61,-21,c),
(-55,-24,o),
(-48,-30,o),
(-43,-29,cs),
(-24,-26,o),
(-40,-10,o),
(-34,-1,c),
(-30,-5,o),
(-27,-10,o),
(-23,-11,cs),
(-6,-14,o),
(11,-13,o),
(27,-17,c),
(29,-18,o),
(32,-18,o),
(34,-19,c),
(37,-24,o),
(42,-27,o),
(47,-30,cs),
(55,-34,o),
(61,-39,o),
(57,-51,c),
(63,-48,l),
(68,-56,o),
(73,-64,o),
(77,-72,c),
(125,-53,l),
(120,-82,l),
(135,-112,l),
(113,-109,o),
(96,-106,o),
(78,-104,cs),
(61,-102,o),
(42,-97,o),
(35,-123,c),
(51,-127,l),
(53,-117,l),
(72,-121,l),
(52,-162,l),
(66,-165,o),
(82,-160,o),
(92,-149,cs),
(96,-145,o),
(105,-144,o),
(112,-143,c),
(115,-147,o),
(116,-151,o),
(116,-155,c),
(113,-160,o),
(109,-165,o),
(104,-169,c),
(102,-172,o),
(99,-175,o),
(99,-177,cs),
(98,-184,o),
(98,-191,o),
(98,-197,c)
);
},
{
closed = 1;
nodes = (
(-8,0,o),
(-9,4,o),
(4,25,c),
(5,28,o),
(5,33,o),
(6,36,c),
(8,39,o),
(10,44,o),
(13,44,c),
(16,45,o),
(20,42,o),
(22,40,cs),
(26,36,o),
(28,32,o),
(31,28,c),
(12,-6,l)
);
},
{
closed = 1;
nodes = (
(33,43,o),
(32,44,o),
(31,44,c),
(32,46,o),
(33,48,o),
(34,50,c),
(34,43,l)
);
},
{
closed = 1;
nodes = (
(169,304,o),
(169,307,o),
(169,309,c),
(172,309,l),
(172,307,o),
(171,304,o),
(170,302,c)
);
},
{
closed = 1;
nodes = (
(227,378,l),
(233,387,o),
(237,393,o),
(241,400,c),
(250,394,o),
(246,385,o),
(232,373,c)
);
},
{
closed = 1;
nodes = (
(119,354,o),
(121,357,o),
(121,359,cs),
(121,362,o),
(122,364,o),
(122,367,cs),
(121,385,o),
(120,403,o),
(120,420,cs),
(120,421,o),
(120,422,o),
(120,423,cs),
(126,450,ls),
(128,460,o),
(129,470,o),
(131,480,cs),
(136,496,o),
(138,513,o),
(137,530,cs),
(137,535,o),
(139,541,o),
(139,546,cs),
(139,549,o),
(139,553,o),
(137,554,cs),
(130,558,o),
(131,565,o),
(131,571,cs),
(132,578,o),
(133,586,o),
(135,593,cs),
(135,594,o),
(136,594,o),
(137,594,c),
(142,580,l),
(147,583,o),
(152,585,o),
(154,588,cs),
(161,598,o),
(170,590,o),
(178,594,cs),
(183,596,o),
(190,593,o),
(195,594,cs),
(203,596,o),
(210,601,o),
(218,603,cs),
(227,605,o),
(236,606,o),
(245,607,cs),
(251,608,o),
(257,609,o),
(259,617,c),
(259,619,o),
(264,621,o),
(267,621,c),
(298,627,l),
(298,626,o),
(297,625,o),
(297,624,cs),
(296,620,o),
(294,616,o),
(292,612,cs),
(290,607,o),
(289,600,o),
(286,598,cs),
(277,594,o),
(278,586,o),
(275,580,c),
(282,577,o),
(283,581,o),
(286,585,cs),
(288,588,o),
(294,589,o),
(299,591,c),
(297,580,ls),
(296,576,o),
(295,573,o),
(293,570,c),
(295,567,l),
(300,570,o),
(303,573,o),
(307,576,c),
(311,581,o),
(314,586,o),
(317,591,c),
(319,586,o),
(320,580,o),
(320,575,cs),
(319,570,o),
(317,565,o),
(315,561,c),
(328,557,o),
(337,571,o),
(349,572,cs),
(350,572,o),
(350,574,o),
(351,575,cs),
(356,581,o),
(361,587,o),
(369,584,c),
(368,580,o),
(367,576,o),
(364,574,cs),
(355,568,o),
(345,563,o),
(336,556,c),
(327,551,o),
(321,542,o),
(319,532,c),
(324,533,o),
(328,537,o),
(331,541,c),
(334,548,o),
(338,546,o),
(342,543,cs),
(346,540,o),
(348,541,o),
(351,545,cs),
(360,554,o),
(372,556,o),
(384,559,c),
(385,560,o),
(386,558,o),
(388,557,c),
(384,551,o),
(380,545,o),
(372,549,c),
(369,549,o),
(366,548,o),
(365,546,c),
(354,537,o),
(343,527,o),
(332,517,c),
(323,524,o),
(322,512,o),
(315,510,c),
(324,506,l),
(315,499,o),
(308,492,o),
(302,483,c),
(299,480,o),
(297,476,o),
(296,472,c),
(291,469,o),
(289,464,o),
(289,459,c),
(288,455,o),
(286,450,o),
(283,446,c),
(282,443,o),
(280,440,o),
(279,437,c),
(274,434,o),
(268,432,o),
(266,425,cs),
(266,424,o),
(263,424,o),
(261,423,cs),
(257,422,o),
(253,422,o),
(248,421,c),
(233,421,o),
(219,413,o),
(212,399,c),
(212,398,o),
(211,398,o),
(211,397,cs),
(210,403,o),
(208,409,o),
(207,414,cs),
(205,424,o),
(206,431,o),
(217,433,c),
(221,433,o),
(224,435,o),
(228,435,c),
(239,438,o),
(239,445,o),
(238,455,c),
(218,435,o),
(209,435,o),
(203,458,c),
(198,455,l),
(189,445,o),
(185,429,o),
(168,426,c),
(168,426,o),
(168,423,o),
(167,422,cs),
(160,416,o),
(159,402,o),
(146,404,c),
(146,412,o),
(146,419,o),
(147,429,c),
(137,422,o),
(131,418,o),
(126,413,c),
(125,413,o),
(127,406,o),
(128,406,cs),
(143,403,o),
(140,396,o),
(135,386,cs),
(129,377,o),
(125,367,o),
(122,357,cs),
(121,355,o),
(121,354,o),
(120,352,c)
);
},
{
closed = 1;
nodes = (
(397,555,o),
(395,557,o),
(394,559,cs),
(392,562,o),
(390,565,o),
(389,568,c),
(404,588,l),
(417,582,o),
(417,579,o),
(407,567,cs),
(405,565,o),
(406,562,o),
(404,560,c),
(403,558,o),
(401,556,o),
(399,555,c)
);
}
);
width = 420;
}
);
note = P;
unicode = (80,112);
},
{
glyphname = Q;
lastChange = "2022-12-26 01:24:30 +0000";
layers = (
{
layerId = m01;
shapes = (
{
closed = 1;
nodes = (
(654,-69,o),
(661,-60,o),
(667,-51,cs),
(669,-48,o),
(674,-41,o),
(672,-40,c),
(660,-29,o),
(649,-19,o),
(636,-10,cs),
(625,-2,o),
(613,6,o),
(601,15,cs),
(591,23,o),
(582,31,o),
(572,39,cs),
(527,76,ls),
(513,88,o),
(498,99,o),
(483,111,cs),
(482,112,o),
(480,114,o),
(479,115,c),
(480,116,l),
(493,123,o),
(491,138,o),
(498,147,cs),
(500,149,o),
(496,155,o),
(494,159,c),
(499,165,o),
(503,172,o),
(508,178,cs),
(511,181,o),
(514,183,o),
(517,183,cs),
(518,183,o),
(521,178,o),
(522,176,c),
(522,172,o),
(524,168,o),
(525,164,c),
(530,173,o),
(526,189,o),
(548,187,c),
(531,202,o),
(537,222,o),
(523,235,cs),
(517,241,o),
(517,254,o),
(514,263,cs),
(507,293,o),
(504,324,o),
(506,355,cs),
(507,374,o),
(507,393,o),
(507,412,cs),
(507,415,o),
(506,418,o),
(505,421,c),
(503,416,o),
(501,412,o),
(498,408,c),
(492,396,o),
(485,387,o),
(471,383,cs),
(465,381,o),
(458,377,o),
(452,373,c),
(449,372,o),
(445,369,o),
(443,370,cs),
(440,372,o),
(438,375,o),
(437,379,c),
(438,392,o),
(431,392,o),
(421,393,cs),
(403,395,o),
(385,399,o),
(368,404,c),
(361,405,o),
(354,403,o),
(348,400,c),
(372,393,o),
(372,393,o),
(375,370,cs),
(375,367,o),
(376,364,o),
(378,361,c),
(386,358,o),
(393,354,o),
(399,352,c),
(409,331,l),
(426,323,l),
(426,319,l),
(422,318,o),
(419,318,o),
(415,318,c),
(415,317,o),
(416,316,o),
(416,315,cs),
(418,308,o),
(421,300,o),
(423,292,c),
(430,287,o),
(438,283,o),
(446,278,c),
(451,276,o),
(455,274,o),
(460,273,c),
(458,268,o),
(455,264,o),
(453,260,c),
(442,249,o),
(443,232,o),
(453,221,cs),
(455,219,o),
(457,216,o),
(461,211,c),
(447,211,ls),
(446,211,o),
(445,211,o),
(445,212,c),
(446,208,o),
(448,205,o),
(450,202,cs),
(452,199,o),
(453,196,o),
(455,192,c),
(460,192,o),
(464,190,o),
(468,186,cs),
(470,184,o),
(473,181,o),
(473,179,c),
(472,176,o),
(470,173,o),
(466,171,c),
(465,171,o),
(464,170,o),
(462,170,c),
(468,147,ls),
(470,141,o),
(468,137,o),
(460,137,cs),
(453,137,l),
(446,142,o),
(440,148,o),
(433,153,cs),
(430,156,o),
(425,158,o),
(421,161,cs),
(382,192,ls),
(379,195,o),
(376,197,o),
(373,199,cs),
(363,206,o),
(353,211,o),
(342,216,cs),
(338,218,o),
(334,219,o),
(331,223,cs),
(327,229,o),
(322,234,o),
(316,239,cs),
(313,241,o),
(311,242,o),
(308,243,c),
(307,232,o),
(301,222,o),
(310,214,cs),
(319,204,o),
(331,196,o),
(340,186,cs),
(351,174,o),
(366,165,o),
(375,152,c),
(367,153,o),
(358,153,o),
(350,154,cs),
(339,155,o),
(328,154,o),
(318,153,cs),
(315,153,o),
(312,153,o),
(309,152,c),
(297,145,o),
(285,139,o),
(272,133,cs),
(263,130,o),
(253,131,o),
(245,135,cs),
(229,143,o),
(217,160,o),
(196,156,cs),
(194,156,o),
(192,158,o),
(190,159,cs),
(184,163,o),
(178,166,o),
(172,168,cs),
(170,169,o),
(168,169,o),
(167,169,cs),
(164,169,o),
(161,170,o),
(159,171,cs),
(155,172,o),
(151,174,o),
(146,176,c),
(147,178,l),
(141,184,l),
(135,188,o),
(135,194,o),
(141,198,cs),
(148,202,o),
(152,210,o),
(151,219,cs),
(150,227,o),
(154,231,o),
(163,232,cs),
(171,233,o),
(180,237,o),
(186,242,cs),
(189,245,o),
(191,247,o),
(194,249,c),
(197,259,o),
(204,267,o),
(214,271,cs),
(233,278,l),
(253,290,o),
(273,301,o),
(293,314,cs),
(301,320,o),
(309,326,o),
(315,334,cs),
(317,336,l),
(316,338,o),
(315,339,o),
(313,340,cs),
(307,344,o),
(305,349,o),
(306,353,c),
(282,353,o),
(257,351,o),
(232,354,cs),
(227,354,o),
(221,355,o),
(216,356,cs),
(214,356,o),
(213,356,o),
(211,357,c),
(197,360,o),
(184,364,o),
(170,367,c),
(168,368,o),
(165,368,o),
(163,369,c),
(167,366,o),
(166,361,o),
(161,358,cs),
(156,355,o),
(151,353,o),
(145,350,c),
(147,366,o),
(133,363,o),
(125,367,c),
(123,369,o),
(115,362,o),
(111,358,cs),
(108,354,o),
(107,350,o),
(108,345,c),
(121,328,o),
(116,310,o),
(111,293,cs),
(110,289,o),
(101,287,o),
(96,286,cs),
(91,285,o),
(85,286,o),
(80,286,c),
(85,278,o),
(95,271,o),
(83,266,cs),
(76,263,o),
(68,262,o),
(60,261,c),
(60,259,o),
(61,257,o),
(61,255,c),
(69,241,o),
(65,230,o),
(49,224,cs),
(47,223,o),
(45,221,o),
(43,219,c),
(36,208,o),
(31,196,o),
(23,186,cs),
(16,175,o),
(0,174,o),
(-12,181,c),
(-16,182,o),
(-20,183,o),
(-24,183,c),
(-23,179,o),
(-23,174,o),
(-23,170,cs),
(-23,168,l),
(-4,159,o),
(18,153,o),
(38,146,cs),
(56,140,o),
(75,135,o),
(93,131,cs),
(153,116,o),
(208,93,o),
(263,71,c),
(265,76,o),
(266,82,o),
(267,87,cs),
(270,100,l),
(275,96,o),
(285,92,o),
(285,89,cs),
(284,77,o),
(292,78,o),
(298,77,cs),
(314,74,o),
(330,72,o),
(346,68,cs),
(352,67,o),
(357,61,o),
(363,59,cs),
(369,58,o),
(376,58,o),
(382,59,cs),
(385,59,o),
(388,62,o),
(390,61,c),
(403,58,o),
(416,54,o),
(430,50,cs),
(438,47,o),
(447,40,o),
(456,41,cs),
(477,43,o),
(493,34,o),
(508,21,cs),
(511,18,o),
(514,16,o),
(517,14,c),
(522,7,o),
(526,-1,o),
(529,-9,c),
(529,-11,o),
(532,-12,o),
(534,-14,cs),
(538,-17,o),
(541,-19,o),
(545,-21,c),
(557,-31,o),
(568,-43,o),
(583,-51,cs),
(591,-55,o),
(598,-61,o),
(603,-68,c),
(611,-66,l),
(613,-70,o),
(614,-74,o),
(615,-77,c),
(643,-61,l),
(644,-68,o),
(646,-73,o),
(647,-78,c)
);
},
{
closed = 1;
nodes = (
(138,380,o),
(137,383,o),
(137,386,c),
(130,385,l),
(130,384,o),
(130,383,o),
(129,382,c),
(136,379,l),
(137,378,o),
(138,378,o),
(139,378,c)
);
},
{
closed = 1;
nodes = (
(454,47,o),
(445,59,o),
(437,76,c),
(441,77,o),
(445,77,o),
(449,78,c),
(449,79,o),
(450,79,o),
(450,79,c),
(459,73,o),
(463,63,o),
(473,57,c)
);
},
{
closed = 1;
nodes = (
(255,415,o),
(251,423,o),
(251,432,c),
(249,432,o),
(247,431,o),
(245,431,cs),
(239,431,o),
(234,430,o),
(228,428,c),
(236,417,o),
(249,411,o),
(263,412,c)
);
},
{
closed = 1;
nodes = (
(599,247,o),
(600,250,o),
(602,255,c),
(614,250,l),
(614,255,o),
(614,259,o),
(615,263,c),
(613,264,o),
(609,265,o),
(609,266,cs),
(600,301,ls),
(599,305,o),
(597,309,o),
(595,316,c),
(599,320,o),
(603,322,o),
(608,324,cs),
(618,327,o),
(615,332,o),
(612,338,cs),
(611,341,o),
(609,344,o),
(607,347,c),
(611,349,l),
(621,340,l),
(621,346,o),
(623,351,o),
(621,354,cs),
(612,366,o),
(612,381,o),
(607,395,c),
(598,411,ls),
(596,414,o),
(594,418,o),
(594,421,cs),
(593,429,o),
(592,437,o),
(590,445,cs),
(589,448,o),
(582,449,o),
(579,450,c),
(581,455,o),
(582,461,o),
(583,466,cs),
(583,469,o),
(579,472,o),
(576,474,cs),
(575,475,o),
(573,477,o),
(572,476,cs),
(558,467,o),
(562,479,o),
(561,485,cs),
(558,502,o),
(559,521,o),
(552,536,cs),
(546,550,o),
(538,567,o),
(520,574,cs),
(516,575,o),
(514,581,o),
(511,585,c),
(496,576,o),
(495,572,o),
(505,557,c),
(506,552,o),
(507,548,o),
(507,543,c),
(504,541,l),
(500,544,o),
(495,546,o),
(494,550,cs),
(489,563,o),
(486,577,o),
(483,591,c),
(483,595,o),
(488,600,o),
(489,605,c),
(490,607,o),
(490,609,o),
(490,611,c),
(484,611,l),
(478,604,o),
(471,597,o),
(463,589,c),
(463,590,o),
(461,592,o),
(459,593,cs),
(456,594,o),
(452,593,o),
(449,592,cs),
(447,591,o),
(445,588,o),
(446,585,cs),
(447,583,o),
(450,581,o),
(452,580,c),
(455,577,o),
(459,574,o),
(459,572,c),
(449,543,l),
(446,551,o),
(445,556,o),
(443,562,c),
(428,549,o),
(428,549,o),
(416,565,c),
(413,557,l),
(413,555,o),
(412,552,o),
(410,547,c),
(406,557,l),
(401,562,o),
(395,572,o),
(390,572,cs),
(371,572,o),
(358,583,o),
(342,589,c),
(340,589,o),
(339,592,o),
(337,594,cs),
(334,597,o),
(331,600,o),
(327,603,c),
(317,608,o),
(307,613,o),
(296,617,cs),
(288,620,o),
(278,623,o),
(269,627,cs),
(257,631,o),
(246,636,o),
(234,640,cs),
(230,641,o),
(227,642,o),
(223,641,c),
(209,641,o),
(198,649,o),
(188,657,cs),
(182,662,o),
(176,667,o),
(170,671,cs),
(165,674,o),
(158,675,o),
(153,672,cs),
(148,669,o),
(144,663,o),
(144,657,cs),
(145,649,o),
(147,640,o),
(149,632,c),
(150,621,o),
(150,609,o),
(150,598,c),
(151,593,o),
(151,588,o),
(152,583,c),
(155,576,o),
(158,570,o),
(160,563,cs),
(164,551,o),
(166,538,o),
(170,526,cs),
(174,515,o),
(174,503,o),
(171,492,cs),
(167,475,o),
(151,468,o),
(148,450,c),
(135,468,o),
(135,486,o),
(136,505,cs),
(137,524,o),
(137,542,o),
(134,560,c),
(133,582,o),
(129,603,o),
(128,624,cs),
(127,640,o),
(131,655,o),
(123,670,cs),
(120,675,o),
(123,683,o),
(122,689,cs),
(121,695,o),
(119,704,o),
(116,705,cs),
(107,707,o),
(104,700,o),
(104,692,cs),
(103,670,o),
(103,649,o),
(104,627,cs),
(107,604,o),
(114,582,o),
(117,559,cs),
(120,541,o),
(120,523,o),
(121,506,c),
(113,505,o),
(106,505,o),
(106,504,cs),
(105,497,o),
(105,490,o),
(105,483,c),
(110,484,o),
(111,485,o),
(113,485,cs),
(128,488,o),
(132,485,o),
(127,470,cs),
(124,461,o),
(127,456,o),
(133,449,c),
(138,440,o),
(142,430,o),
(144,420,cs),
(147,397,l),
(156,404,o),
(164,413,o),
(176,415,cs),
(179,415,o),
(181,419,o),
(183,421,c),
(192,427,o),
(201,434,o),
(209,441,cs),
(212,444,o),
(221,445,o),
(217,455,c),
(215,457,o),
(221,466,o),
(224,467,c),
(239,467,o),
(243,480,o),
(252,488,cs),
(253,489,o),
(255,491,o),
(256,491,cs),
(271,488,o),
(278,500,o),
(286,508,cs),
(300,519,o),
(310,519,o),
(321,504,c),
(289,483,l),
(289,479,l),
(294,477,o),
(298,476,o),
(303,475,c),
(320,475,o),
(338,475,o),
(356,476,cs),
(377,477,o),
(392,465,o),
(404,448,cs),
(411,439,o),
(419,430,o),
(426,421,c),
(436,412,ls),
(441,408,o),
(448,400,o),
(450,401,cs),
(457,406,o),
(468,408,o),
(467,421,c),
(468,427,o),
(472,432,o),
(477,434,cs),
(484,437,o),
(491,442,o),
(497,448,c),
(496,453,o),
(494,457,o),
(491,461,cs),
(485,470,o),
(483,482,o),
(486,493,c),
(489,499,o),
(491,505,o),
(492,511,cs),
(493,519,o),
(492,526,o),
(503,526,cs),
(506,526,o),
(508,530,o),
(512,534,c),
(518,518,o),
(506,493,o),
(539,494,c),
(536,491,ls),
(533,487,o),
(530,483,o),
(528,479,c),
(527,478,o),
(527,476,o),
(526,475,c),
(532,468,o),
(533,459,o),
(529,451,c),
(529,450,l),
(530,449,o),
(538,453,o),
(543,455,c),
(546,455,o),
(549,456,o),
(552,456,c),
(554,446,o),
(553,438,o),
(544,433,cs),
(538,429,o),
(536,407,o),
(541,399,cs),
(547,389,o),
(554,380,o),
(560,370,c),
(561,366,o),
(560,363,o),
(559,359,c),
(553,352,l),
(555,350,l),
(558,350,o),
(560,351,o),
(563,353,cs),
(567,356,o),
(572,357,o),
(577,356,cs),
(582,355,o),
(587,353,o),
(590,348,cs),
(594,343,o),
(595,336,o),
(587,335,cs),
(576,332,o),
(573,324,o),
(570,316,cs),
(569,314,o),
(567,312,o),
(565,308,c),
(558,323,l),
(552,314,o),
(552,314,o),
(557,299,c),
(555,275,l),
(574,275,l),
(570,263,o),
(574,257,o),
(588,255,cs),
(591,255,o),
(593,248,o),
(597,243,c)
);
},
{
closed = 1;
nodes = (
(541,505,o),
(538,506,o),
(537,508,cs),
(529,524,o),
(522,539,o),
(515,555,cs),
(514,557,o),
(516,561,o),
(516,564,c),
(519,565,l),
(526,557,o),
(532,548,o),
(537,539,cs),
(541,530,o),
(544,520,o),
(546,511,c),
(546,508,o),
(544,506,o),
(543,503,c)
);
}
);
width = 698;
}
);
note = Q;
unicode = (81,113);
},
{
glyphname = R;
lastChange = "2022-12-26 01:24:33 +0000";
layers = (
{
layerId = m01;
shapes = (
{
closed = 1;
nodes = (
(411,-44,o),
(412,-42,o),
(413,-41,cs),
(416,-38,o),
(419,-35,o),
(423,-32,c),
(421,-30,o),
(419,-27,o),
(418,-25,cs),
(417,-23,o),
(415,-19,o),
(416,-18,cs),
(419,-15,o),
(422,-12,o),
(426,-10,c),
(428,-7,o),
(431,-4,o),
(435,0,c),
(435,4,o),
(426,14,o),
(420,13,cs),
(411,11,o),
(406,17,o),
(399,18,cs),
(396,19,o),
(393,20,o),
(390,22,c),
(394,28,o),
(397,35,o),
(401,42,c),
(402,45,o),
(404,49,o),
(403,51,cs),
(400,58,o),
(403,66,o),
(410,70,cs),
(413,72,o),
(415,74,o),
(416,78,cs),
(417,81,o),
(416,84,o),
(414,87,c),
(431,87,o),
(433,85,o),
(436,76,c),
(424,73,l),
(427,68,o),
(428,63,o),
(434,69,cs),
(440,74,o),
(443,69,o),
(447,65,cs),
(449,63,o),
(451,61,o),
(454,59,c),
(456,63,o),
(458,67,o),
(459,71,c),
(459,76,o),
(459,82,o),
(465,84,c),
(467,84,o),
(471,79,o),
(475,76,c),
(468,68,l),
(477,64,l),
(483,67,o),
(483,70,o),
(479,76,cs),
(475,84,o),
(472,91,o),
(469,99,c),
(480,102,o),
(481,104,o),
(476,113,c),
(476,118,l),
(478,128,o),
(473,134,o),
(464,139,cs),
(458,143,o),
(453,150,o),
(451,157,cs),
(449,165,o),
(448,174,o),
(449,182,cs),
(449,184,o),
(450,186,o),
(451,187,cs),
(453,189,o),
(454,191,o),
(456,194,c),
(455,194,o),
(455,195,o),
(454,195,c),
(445,191,l),
(444,193,o),
(443,196,o),
(443,197,c),
(446,203,o),
(450,208,o),
(453,214,c),
(454,214,o),
(455,215,o),
(457,215,c),
(460,216,o),
(464,217,o),
(468,219,cs),
(471,220,o),
(474,222,o),
(478,223,c),
(481,222,l),
(481,229,o),
(479,236,o),
(477,242,cs),
(471,255,o),
(464,267,o),
(457,278,cs),
(453,283,o),
(448,288,o),
(443,292,cs),
(440,295,o),
(440,306,o),
(444,308,c),
(446,308,l),
(453,302,o),
(461,298,o),
(467,290,cs),
(475,278,o),
(483,267,o),
(492,256,c),
(496,253,l),
(498,254,l),
(494,262,l),
(499,269,l),
(495,269,o),
(492,270,o),
(489,271,cs),
(488,271,o),
(486,271,o),
(486,272,c),
(481,280,o),
(472,285,o),
(472,296,c),
(471,300,o),
(468,303,o),
(465,304,cs),
(456,306,o),
(454,312,o),
(454,320,c),
(441,314,l),
(446,323,l),
(440,326,l),
(440,332,o),
(438,336,o),
(429,337,c),
(443,349,l),
(441,351,o),
(440,354,o),
(441,357,c),
(441,360,o),
(443,362,o),
(446,363,c),
(448,365,o),
(448,370,o),
(449,374,c),
(446,375,o),
(444,376,o),
(441,376,c),
(439,377,o),
(438,377,o),
(436,377,c),
(440,385,o),
(443,392,o),
(447,399,c),
(449,401,o),
(449,404,o),
(449,407,c),
(448,409,o),
(446,412,o),
(443,412,c),
(441,413,o),
(440,413,o),
(438,413,c),
(439,423,o),
(439,432,o),
(440,441,cs),
(441,451,o),
(432,455,o),
(425,460,c),
(427,463,l),
(443,457,l),
(446,464,o),
(432,469,o),
(441,477,c),
(448,473,l),
(446,484,o),
(443,487,o),
(429,492,c),
(426,482,o),
(417,484,o),
(410,481,cs),
(408,480,o),
(405,480,o),
(402,480,cs),
(398,480,o),
(393,485,o),
(394,489,c),
(395,490,o),
(399,492,o),
(401,492,cs),
(402,492,o),
(404,490,o),
(406,488,c),
(408,504,o),
(408,504,o),
(419,498,c),
(413,506,o),
(410,514,o),
(401,518,cs),
(392,521,o),
(390,530,o),
(387,539,c),
(395,535,l),
(396,537,l),
(393,542,o),
(389,548,o),
(385,553,cs),
(378,562,o),
(378,562,o),
(387,573,c),
(389,570,o),
(392,567,o),
(392,564,cs),
(393,554,o),
(395,553,o),
(403,558,c),
(404,558,o),
(405,559,o),
(406,559,cs),
(408,559,l),
(408,557,o),
(407,556,o),
(407,555,cs),
(407,554,o),
(406,553,o),
(406,552,c),
(417,553,o),
(421,559,o),
(416,568,c),
(415,569,o),
(415,570,o),
(415,572,c),
(416,575,o),
(418,578,o),
(417,580,c),
(406,591,ls),
(403,595,o),
(399,598,o),
(396,602,c),
(398,609,o),
(400,615,o),
(403,622,cs),
(406,629,l),
(406,630,o),
(407,631,o),
(407,632,c),
(410,640,l),
(419,637,l),
(419,639,o),
(418,640,o),
(418,641,cs),
(418,642,o),
(418,644,o),
(417,646,c),
(433,646,l),
(430,649,o),
(427,652,o),
(423,655,c),
(426,663,o),
(428,671,o),
(429,679,cs),
(429,688,l),
(432,691,o),
(435,694,o),
(439,695,c),
(437,707,o),
(436,707,o),
(428,706,c),
(428,701,o),
(428,701,o),
(425,699,c),
(423,701,o),
(421,702,o),
(419,703,cs),
(406,707,o),
(404,720,o),
(397,729,cs),
(384,744,ls),
(383,745,o),
(382,747,o),
(382,749,cs),
(383,756,o),
(377,755,o),
(374,755,cs),
(373,755,o),
(372,752,o),
(371,750,cs),
(368,744,o),
(366,738,o),
(363,732,c),
(346,740,l),
(346,737,ls),
(345,726,o),
(341,716,o),
(335,708,cs),
(333,705,o),
(333,702,o),
(334,699,c),
(336,696,o),
(340,696,o),
(345,694,c),
(339,683,o),
(354,677,o),
(357,666,c),
(345,669,o),
(337,679,o),
(323,674,c),
(324,670,o),
(326,666,o),
(327,662,cs),
(327,660,o),
(328,658,o),
(328,656,c),
(330,653,o),
(331,649,o),
(333,648,cs),
(338,645,o),
(340,640,o),
(338,635,cs),
(337,631,o),
(338,628,o),
(341,628,cs),
(342,628,o),
(343,628,o),
(343,628,c),
(337,622,ls),
(335,620,o),
(333,619,o),
(331,617,c),
(328,620,ls),
(323,625,o),
(322,629,o),
(328,633,c),
(325,641,o),
(324,642,o),
(313,642,c),
(314,640,o),
(314,638,o),
(315,637,cs),
(316,635,o),
(316,634,o),
(315,633,c),
(307,618,l),
(300,622,o),
(291,622,o),
(284,616,c),
(278,613,o),
(271,611,o),
(265,610,cs),
(232,601,l),
(230,600,o),
(228,599,o),
(227,599,c),
(219,603,o),
(214,597,o),
(207,595,cs),
(206,595,o),
(204,594,o),
(202,593,c),
(202,597,o),
(200,600,o),
(198,602,cs),
(196,605,o),
(194,609,o),
(193,613,cs),
(190,622,o),
(186,631,o),
(182,640,c),
(179,643,o),
(178,648,o),
(180,652,cs),
(182,657,o),
(182,661,o),
(182,666,cs),
(182,669,o),
(179,672,o),
(179,676,cs),
(178,680,o),
(178,685,o),
(178,690,cs),
(178,708,l),
(179,715,o),
(181,722,o),
(182,729,c),
(180,730,l),
(177,720,o),
(160,723,o),
(163,709,c),
(154,706,l),
(154,712,o),
(154,717,o),
(153,723,cs),
(151,730,o),
(155,737,o),
(162,740,cs),
(174,744,o),
(183,754,o),
(186,767,c),
(186,769,o),
(187,771,o),
(188,773,c),
(191,776,ls),
(195,779,o),
(200,782,o),
(204,786,cs),
(205,787,o),
(205,789,o),
(205,791,c),
(204,792,o),
(202,793,o),
(200,793,cs),
(198,793,o),
(196,793,o),
(195,792,c),
(195,801,l),
(181,795,o),
(178,788,o),
(186,777,c),
(166,776,l),
(167,774,o),
(167,772,o),
(167,770,c),
(146,775,ls),
(143,776,o),
(138,776,o),
(137,778,c),
(137,781,o),
(137,785,o),
(138,788,cs),
(141,795,l),
(132,796,o),
(132,796,o),
(121,789,cs),
(118,787,o),
(117,782,o),
(115,779,c),
(118,778,o),
(121,778,o),
(125,777,c),
(126,776,ls),
(129,774,o),
(121,767,o),
(130,766,c),
(133,774,l),
(145,769,l),
(141,763,o),
(136,758,o),
(130,754,c),
(124,752,o),
(117,750,o),
(110,749,c),
(112,743,o),
(110,739,o),
(104,739,c),
(92,744,l),
(92,743,o),
(92,741,o),
(93,740,cs),
(98,733,o),
(97,730,o),
(90,726,cs),
(87,724,l),
(85,713,o),
(74,705,o),
(77,692,cs),
(79,682,o),
(78,681,o),
(89,684,c),
(86,658,l),
(89,660,o),
(93,663,o),
(97,665,c),
(100,669,o),
(103,673,o),
(106,677,cs),
(109,683,ls),
(111,690,o),
(111,697,o),
(113,704,cs),
(118,717,o),
(130,725,o),
(144,725,c),
(143,720,o),
(143,715,o),
(142,710,cs),
(137,684,l),
(136,682,o),
(133,682,o),
(130,681,c),
(126,671,o),
(122,662,o),
(117,653,cs),
(116,651,o),
(114,648,o),
(112,648,c),
(104,646,o),
(96,643,o),
(89,638,cs),
(81,633,o),
(81,634,o),
(85,626,c),
(92,629,o),
(99,631,o),
(106,633,c),
(108,633,o),
(111,633,o),
(112,631,cs),
(116,626,o),
(119,627,o),
(122,631,c),
(126,634,o),
(129,636,o),
(133,638,c),
(139,619,l),
(135,619,o),
(132,618,o),
(128,618,cs),
(119,617,o),
(110,616,o),
(101,617,cs),
(92,618,o),
(85,613,o),
(77,608,c),
(83,591,ls),
(87,574,o),
(90,557,o),
(94,540,cs),
(103,500,ls),
(105,493,o),
(107,486,o),
(108,479,cs),
(112,460,o),
(115,442,o),
(119,424,cs),
(122,408,o),
(125,392,o),
(129,376,cs),
(130,370,o),
(129,364,o),
(127,359,c),
(124,355,o),
(122,350,o),
(120,345,cs),
(117,336,l),
(144,343,l),
(141,327,o),
(129,316,o),
(122,303,c),
(123,303,l),
(131,308,l),
(129,298,o),
(127,290,o),
(127,282,cs),
(126,271,o),
(126,260,o),
(126,249,cs),
(125,233,o),
(126,216,o),
(124,200,cs),
(123,186,o),
(120,173,o),
(118,159,cs),
(116,146,o),
(115,133,o),
(114,120,cs),
(113,113,o),
(111,106,o),
(110,99,cs),
(109,90,o),
(108,81,o),
(106,72,cs),
(103,58,o),
(99,43,o),
(95,28,c),
(98,28,o),
(101,29,o),
(104,30,cs),
(117,36,o),
(127,46,o),
(135,58,cs),
(149,79,o),
(160,102,o),
(169,125,c),
(166,125,l),
(166,128,o),
(166,131,o),
(167,133,c),
(169,149,o),
(174,164,o),
(176,180,cs),
(179,200,o),
(190,219,o),
(188,242,cs),
(186,259,o),
(193,278,o),
(196,296,cs),
(197,301,o),
(201,304,o),
(208,301,cs),
(230,291,o),
(246,274,o),
(263,258,cs),
(272,251,o),
(281,244,o),
(291,238,cs),
(300,233,o),
(309,229,o),
(319,225,cs),
(353,210,o),
(382,185,o),
(412,163,cs),
(413,162,o),
(415,161,o),
(417,159,c),
(417,160,o),
(416,160,o),
(416,160,c),
(416,161,o),
(417,161,o),
(417,162,c),
(421,160,o),
(424,157,o),
(427,153,c),
(431,150,o),
(436,147,o),
(440,143,cs),
(444,140,o),
(448,136,o),
(451,132,c),
(448,129,l),
(447,129,l),
(450,126,o),
(451,123,o),
(453,120,cs),
(456,114,o),
(463,109,o),
(457,101,c),
(454,90,l),
(451,91,o),
(447,93,o),
(443,94,c),
(441,96,o),
(440,98,o),
(440,101,cs),
(440,102,o),
(443,104,o),
(445,105,c),
(446,105,o),
(448,103,o),
(449,102,c),
(446,114,o),
(445,115,o),
(437,119,cs),
(435,120,o),
(433,123,o),
(432,125,cs),
(431,128,o),
(430,132,o),
(428,135,c),
(424,136,o),
(420,135,o),
(416,135,c),
(417,131,o),
(419,127,o),
(420,123,cs),
(420,122,o),
(421,121,o),
(421,120,c),
(421,120,o),
(420,118,o),
(420,119,c),
(407,125,o),
(401,119,o),
(392,108,cs),
(391,107,o),
(390,106,o),
(389,104,c),
(389,97,o),
(388,89,o),
(387,81,c),
(384,85,o),
(382,90,o),
(382,95,c),
(375,86,o),
(364,81,o),
(353,82,cs),
(347,83,o),
(341,84,o),
(334,84,cs),
(312,84,l),
(411,-45,l)
);
},
{
closed = 1;
nodes = (
(434,209,o),
(431,211,o),
(428,212,cs),
(423,214,o),
(422,216,o),
(422,221,cs),
(422,225,o),
(420,229,o),
(417,232,c),
(413,234,o),
(410,238,o),
(410,242,cs),
(409,251,o),
(404,254,o),
(395,252,c),
(401,243,l),
(401,242,o),
(401,240,o),
(401,239,c),
(397,239,l),
(394,241,o),
(391,243,o),
(387,245,c),
(381,250,o),
(381,254,o),
(387,259,c),
(388,259,o),
(388,260,o),
(389,261,c),
(383,274,l),
(411,263,l),
(410,271,l),
(418,267,o),
(425,268,o),
(429,260,cs),
(433,252,o),
(427,246,o),
(431,240,c),
(429,239,l),
(420,247,l),
(418,245,l),
(424,232,o),
(438,231,o),
(450,224,c),
(436,206,l)
);
},
{
closed = 1;
nodes = (
(190,375,o),
(188,388,o),
(186,401,c),
(182,413,o),
(183,425,o),
(189,436,c),
(190,439,o),
(190,441,o),
(189,443,c),
(186,455,o),
(187,466,o),
(192,477,cs),
(193,480,o),
(194,483,o),
(196,487,c),
(198,487,l),
(202,488,l),
(217,497,o),
(233,502,o),
(249,505,cs),
(258,507,o),
(268,507,o),
(277,506,cs),
(285,505,o),
(289,500,o),
(286,493,cs),
(281,484,o),
(276,476,o),
(271,469,cs),
(269,465,o),
(267,461,o),
(267,459,c),
(270,449,o),
(264,444,o),
(260,437,cs),
(255,427,o),
(250,416,o),
(247,406,cs),
(243,391,o),
(233,379,o),
(220,371,cs),
(214,368,o),
(207,365,o),
(200,362,c),
(190,362,l)
);
},
{
closed = 1;
nodes = (
(416,279,o),
(414,280,o),
(413,281,cs),
(411,283,o),
(410,285,o),
(408,286,c),
(404,280,l),
(401,280,o),
(397,281,o),
(394,282,cs),
(391,283,o),
(389,284,o),
(387,286,c),
(389,287,o),
(392,288,o),
(394,290,c),
(396,291,o),
(399,291,o),
(400,293,cs),
(401,294,o),
(400,297,o),
(399,299,cs),
(396,306,l),
(398,307,l),
(400,304,o),
(405,302,o),
(405,299,cs),
(406,291,o),
(412,289,o),
(416,286,cs),
(418,285,o),
(419,283,o),
(420,281,c),
(420,280,o),
(418,279,o),
(418,278,c)
);
},
{
closed = 1;
nodes = (
(347,367,o),
(346,375,o),
(355,396,c),
(357,392,o),
(360,388,o),
(359,387,cs),
(353,380,o),
(355,373,o),
(360,366,c),
(360,366,o),
(359,365,o),
(359,364,c)
);
},
{
closed = 1;
nodes = (
(411,296,o),
(405,302,o),
(404,310,cs),
(403,319,o),
(400,322,o),
(392,318,c),
(396,327,o),
(395,331,o),
(390,333,cs),
(386,335,o),
(383,337,o),
(379,340,c),
(392,343,o),
(394,346,o),
(393,356,cs),
(393,361,l),
(394,363,o),
(394,365,o),
(396,366,c),
(397,366,o),
(399,366,o),
(401,365,c),
(406,357,o),
(411,361,o),
(416,365,cs),
(425,371,l),
(427,369,l),
(419,363,o),
(415,353,o),
(417,342,cs),
(417,341,o),
(415,340,o),
(413,339,c),
(410,335,o),
(406,332,o),
(401,328,c),
(420,321,l),
(420,312,o),
(420,311,o),
(409,312,c),
(419,296,l)
);
},
{
closed = 1;
nodes = (
(360,418,o),
(358,422,o),
(357,425,cs),
(356,427,o),
(354,430,o),
(354,431,c),
(356,432,o),
(359,434,o),
(361,434,cs),
(366,433,o),
(369,436,o),
(370,441,c),
(373,445,l),
(376,442,o),
(377,438,o),
(379,438,c),
(387,436,o),
(388,430,o),
(391,422,c),
(380,425,l),
(382,427,o),
(383,429,o),
(384,431,c),
(380,433,l),
(376,424,o),
(371,416,o),
(362,414,c)
);
},
{
closed = 1;
nodes = (
(421,390,o),
(418,392,o),
(418,393,cs),
(419,403,o),
(412,408,o),
(408,414,cs),
(402,423,l),
(423,423,l),
(424,422,o),
(424,420,o),
(424,419,cs),
(424,416,o),
(424,412,o),
(426,410,cs),
(428,408,o),
(431,406,o),
(434,406,cs),
(435,406,o),
(436,405,o),
(437,405,c),
(437,403,l),
(425,401,l),
(426,397,ls),
(427,395,o),
(427,393,o),
(427,391,c),
(426,390,o),
(423,388,o),
(422,389,cs)
);
},
{
closed = 1;
nodes = (
(419,430,o),
(409,436,o),
(415,446,c),
(429,450,o),
(426,437,o),
(433,432,c),
(423,423,l)
);
},
{
closed = 1;
nodes = (
(399,449,o),
(393,452,o),
(387,456,c),
(385,460,o),
(383,463,o),
(382,467,c),
(389,470,o),
(384,475,o),
(383,479,cs),
(383,480,l),
(413,467,l),
(413,465,o),
(412,462,o),
(412,458,c),
(395,464,l),
(405,446,l)
);
},
{
closed = 1;
nodes = (
(349,516,o),
(348,518,o),
(340,517,cs),
(339,517,l),
(342,519,o),
(344,521,o),
(345,524,c),
(351,523,l),
(354,517,o),
(356,512,o),
(358,506,c),
(348,506,l)
);
},
{
closed = 1;
nodes = (
(360,541,l),
(361,542,l),
(361,541,o),
(361,541,o),
(362,540,c)
);
},
{
closed = 1;
nodes = (
(296,605,l),
(295,608,o),
(295,611,o),
(296,613,cs),
(297,614,o),
(301,614,o),
(303,614,cs),
(305,614,o),
(307,614,o),
(309,613,c),
(301,607,o),
(304,602,o),
(307,597,c),
(306,597,o),
(306,596,o),
(305,596,c)
);
},
{
closed = 1;
nodes = (
(400,681,l),
(401,683,o),
(402,686,o),
(401,688,cs),
(399,694,o),
(397,700,o),
(394,707,c),
(395,707,o),
(396,707,o),
(396,708,c),
(400,706,o),
(404,704,o),
(407,701,cs),
(409,698,o),
(411,694,o),
(412,691,c),
(410,689,o),
(407,686,o),
(404,684,cs),
(402,683,o),
(401,681,o),
(400,680,c)
);
}
);
width = 551;
}
);
note = R;
unicode = (82,114);
},
{
glyphname = S;
lastChange = "2022-12-26 01:24:34 +0000";
layers = (
{
layerId = m01;
shapes = (
{
closed = 1;
nodes = (
(223,26,o),
(232,34,o),
(246,64,c),
(256,62,o),
(265,58,o),
(274,56,cs),
(312,48,o),
(327,81,o),
(346,101,cs),
(366,122,o),
(378,149,o),
(394,173,c),
(396,178,o),
(397,183,o),
(398,188,c),
(404,200,o),
(410,212,o),
(415,225,cs),
(419,234,o),
(423,244,o),
(426,253,c),
(432,264,o),
(438,275,o),
(446,284,c),
(454,296,o),
(459,316,o),
(469,319,cs),
(495,326,o),
(495,348,o),
(506,365,c),
(489,376,o),
(484,365,o),
(473,355,cs),
(466,347,o),
(449,347,o),
(436,344,c),
(440,365,o),
(448,384,o),
(461,400,c),
(456,408,l),
(443,403,o),
(431,397,o),
(420,389,cs),
(409,381,o),
(400,368,o),
(385,351,c),
(385,372,o),
(382,386,o),
(386,398,cs),
(389,411,o),
(399,421,o),
(406,433,c),
(372,450,o),
(341,417,o),
(306,419,cs),
(305,419,o),
(304,413,o),
(301,411,cs),
(285,397,o),
(268,383,o),
(246,395,c),
(252,404,o),
(257,416,o),
(265,420,cs),
(292,433,o),
(322,441,o),
(349,456,cs),
(373,469,o),
(397,485,o),
(408,515,c),
(393,511,o),
(377,507,o),
(370,496,cs),
(358,478,o),
(349,485,o),
(340,495,cs),
(330,505,o),
(324,503,o),
(313,494,cs),
(286,471,o),
(250,472,o),
(217,468,cs),
(214,468,o),
(211,473,o),
(207,476,c),
(221,491,o),
(233,505,o),
(255,492,c),
(262,490,o),
(269,491,o),
(275,495,cs),
(309,517,o),
(342,539,o),
(376,562,c),
(399,539,o),
(408,569,o),
(426,573,c),
(405,588,l),
(444,614,l),
(441,615,o),
(437,616,o),
(434,617,cs),
(401,626,ls),
(375,633,o),
(350,639,o),
(324,646,cs),
(302,653,l),
(299,652,o),
(296,650,o),
(293,648,cs),
(234,618,o),
(185,570,o),
(131,532,cs),
(102,511,o),
(70,494,o),
(42,477,c),
(45,463,o),
(53,448,o),
(49,438,cs),
(45,428,o),
(29,422,o),
(16,411,c),
(24,404,o),
(32,391,o),
(43,389,cs),
(76,384,o),
(57,421,o),
(73,433,c),
(78,424,o),
(80,412,o),
(86,409,cs),
(113,396,o),
(142,388,o),
(168,373,cs),
(184,363,o),
(198,348,o),
(206,330,cs),
(216,305,o),
(220,277,o),
(226,253,c),
(318,260,l),
(294,213,l),
(298,190,o),
(300,174,o),
(304,154,c),
(268,171,o),
(240,185,o),
(211,197,cs),
(182,210,o),
(153,227,o),
(128,188,c),
(151,172,l),
(157,181,o),
(161,187,o),
(161,188,c),
(191,171,l),
(135,112,l),
(159,99,o),
(187,100,o),
(211,113,cs),
(221,118,o),
(236,114,o),
(249,112,cs),
(250,112,o),
(253,95,o),
(249,90,cs),
(242,82,o),
(231,78,o),
(222,71,cs),
(217,68,o),
(209,66,o),
(207,61,cs),
(203,50,o),
(199,38,o),
(197,27,c)
);
},
{
closed = 1;
nodes = (
(117,420,o),
(117,428,o),
(150,458,cs),
(155,462,o),
(156,470,o),
(160,474,cs),
(165,479,o),
(171,485,o),
(176,485,cs),
(181,485,o),
(187,478,o),
(190,472,cs),
(193,464,o),
(196,456,o),
(198,448,c),
(148,399,l)
);
}
);
width = 514;
}
);
note = S;
unicode = (83,115);
},
{
glyphname = T;
lastChange = "2022-12-26 01:24:36 +0000";
layers = (
{
layerId = m01;
shapes = (
{
closed = 1;
nodes = (
(419,66,o),
(418,70,o),
(419,74,cs),
(420,78,o),
(423,81,o),
(427,82,c),
(433,85,o),
(440,82,o),
(443,76,cs),
(446,72,o),
(452,69,o),
(457,66,c),
(460,69,l),
(456,79,l),
(453,84,o),
(449,89,o),
(446,95,cs),
(434,120,o),
(423,146,o),
(410,172,cs),
(401,191,o),
(389,210,o),
(379,230,cs),
(374,238,o),
(370,247,o),
(366,256,c),
(490,272,l),
(491,273,o),
(491,275,o),
(492,277,c),
(451,285,ls),
(445,286,o),
(440,287,o),
(435,290,cs),
(424,298,o),
(415,309,o),
(404,316,cs),
(392,325,o),
(375,324,o),
(363,314,c),
(398,282,l),
(369,276,o),
(355,288,o),
(352,314,cs),
(351,319,o),
(348,323,o),
(343,325,c),
(326,329,o),
(314,341,o),
(302,355,c),
(303,357,o),
(303,359,o),
(304,360,c),
(306,367,o),
(309,373,o),
(311,380,cs),
(312,382,o),
(312,384,o),
(313,385,cs),
(317,388,l),
(324,391,o),
(330,394,o),
(337,396,cs),
(359,404,o),
(381,408,o),
(403,416,cs),
(440,430,o),
(476,449,o),
(509,471,c),
(510,473,o),
(512,475,o),
(513,478,c),
(511,479,o),
(508,482,o),
(506,481,cs),
(494,477,o),
(483,472,o),
(471,469,cs),
(465,468,o),
(459,469,o),
(454,472,cs),
(440,481,o),
(429,494,o),
(415,502,cs),
(399,510,o),
(388,521,o),
(387,538,c),
(373,542,o),
(360,545,o),
(347,548,c),
(347,550,ls),
(348,561,o),
(353,571,o),
(347,582,c),
(347,583,o),
(346,584,o),
(346,585,c),
(347,586,l),
(374,592,o),
(402,590,o),
(427,580,cs),
(439,575,o),
(453,577,o),
(463,585,c),
(465,586,o),
(468,587,o),
(471,587,c),
(524,602,l),
(513,607,o),
(505,614,o),
(491,608,cs),
(468,597,o),
(444,589,o),
(422,603,c),
(421,605,o),
(419,605,o),
(417,605,c),
(397,600,o),
(377,599,o),
(357,601,cs),
(350,602,o),
(343,602,o),
(335,602,c),
(333,608,o),
(331,614,o),
(328,620,c),
(323,616,o),
(316,612,o),
(314,607,cs),
(313,605,o),
(312,604,o),
(311,602,c),
(284,602,ls),
(270,603,o),
(256,606,o),
(243,609,cs),
(239,610,o),
(236,614,o),
(236,618,cs),
(236,631,o),
(233,635,o),
(222,629,c),
(219,629,o),
(216,629,o),
(213,630,cs),
(196,634,o),
(179,638,o),
(160,629,cs),
(155,627,o),
(147,627,o),
(145,631,cs),
(135,649,o),
(126,653,o),
(106,649,cs),
(96,647,o),
(85,647,o),
(74,649,c),
(70,649,o),
(66,650,o),
(61,651,c),
(64,639,o),
(64,625,o),
(76,626,cs),
(89,626,o),
(102,628,o),
(114,631,cs),
(126,634,o),
(135,629,o),
(136,617,c),
(133,619,o),
(129,620,o),
(124,620,cs),
(110,619,o),
(95,616,o),
(81,612,c),
(74,608,o),
(69,602,o),
(67,595,cs),
(65,585,o),
(70,581,o),
(84,585,c),
(73,595,l),
(77,599,l),
(90,593,l),
(129,575,l),
(130,575,o),
(132,577,o),
(133,577,cs),
(157,580,o),
(178,575,o),
(193,557,cs),
(204,542,o),
(210,522,o),
(222,509,cs),
(245,484,o),
(276,476,o),
(307,470,c),
(311,484,o),
(305,496,o),
(292,506,cs),
(281,515,o),
(270,526,o),
(270,546,c),
(273,546,o),
(275,547,o),
(278,547,c),
(279,546,o),
(281,546,o),
(282,546,c),
(293,530,o),
(303,514,o),
(315,499,cs),
(327,486,o),
(331,467,o),
(325,450,cs),
(321,436,o),
(316,423,o),
(307,412,c),
(262,400,l),
(255,399,o),
(249,387,o),
(254,382,cs),
(261,375,l),
(258,371,o),
(256,366,o),
(256,361,c),
(255,359,o),
(254,358,o),
(253,357,c),
(247,364,l),
(245,358,o),
(244,353,o),
(243,349,c),
(232,346,o),
(232,346,o),
(233,339,c),
(243,338,o),
(251,352,o),
(263,341,c),
(244,319,l),
(254,315,l),
(245,292,o),
(253,273,o),
(272,259,c),
(269,252,l),
(274,247,l),
(272,244,o),
(271,241,o),
(269,237,c),
(269,234,o),
(268,229,o),
(270,228,cs),
(274,226,o),
(280,224,o),
(282,226,cs),
(286,230,o),
(289,235,o),
(290,240,c),
(290,256,l),
(294,251,o),
(297,247,o),
(300,244,cs),
(312,230,l),
(318,220,o),
(324,210,o),
(329,199,cs),
(334,188,o),
(338,176,o),
(342,164,c),
(342,162,o),
(340,160,o),
(339,157,c),
(320,179,o),
(313,209,o),
(284,223,c),
(284,219,o),
(285,216,o),
(287,213,cs),
(290,209,o),
(294,205,o),
(297,200,cs),
(303,192,o),
(308,183,o),
(314,174,cs),
(333,150,l),
(333,149,o),
(334,148,o),
(333,147,c),
(331,139,o),
(336,134,o),
(340,129,cs),
(349,120,l),
(357,130,l),
(361,122,o),
(363,114,o),
(367,106,c),
(370,96,o),
(374,87,o),
(379,79,cs),
(384,72,o),
(394,72,o),
(400,65,c),
(404,62,o),
(413,64,o),
(421,63,c)
);
},
{
closed = 1;
nodes = (
(280,297,l),
(280,305,o),
(283,312,o),
(288,318,cs),
(292,325,o),
(296,332,o),
(298,340,c),
(301,337,o),
(304,336,o),
(306,332,cs),
(312,318,l),
(303,312,o),
(296,303,o),
(290,293,cs),
(289,291,o),
(286,290,o),
(283,289,c)
);
},
{
closed = 1;
nodes = (
(178,602,o),
(161,602,o),
(144,604,cs),
(141,604,o),
(139,612,o),
(137,617,c),
(142,615,ls),
(154,609,o),
(165,606,o),
(172,624,c),
(196,605,l),
(195,601,l)
);
},
{
closed = 1;
nodes = (
(343,417,o),
(342,423,o),
(344,426,c),
(351,433,o),
(352,443,o),
(353,452,c),
(354,454,o),
(355,456,o),
(356,458,c),
(368,473,l),
(358,481,o),
(352,463,o),
(341,471,c),
(347,475,o),
(354,480,o),
(359,485,c),
(360,485,l),
(361,484,o),
(363,483,o),
(365,482,cs),
(383,470,o),
(403,462,o),
(423,451,c),
(425,451,o),
(426,448,o),
(430,443,c),
(408,435,o),
(388,429,o),
(369,420,cs),
(361,416,o),
(352,413,o),
(343,411,c)
);
},
{
closed = 1;
nodes = (
(264,563,o),
(255,567,o),
(245,570,cs),
(242,571,o),
(241,574,o),
(236,578,c),
(246,581,o),
(255,583,o),
(265,585,c),
(273,585,o),
(281,585,o),
(290,586,c),
(289,585,o),
(289,585,o),
(288,585,c),
(282,580,o),
(276,575,o),
(271,568,cs),
(270,567,o),
(270,565,o),
(271,563,c),
(274,561,l)
);
},
{
closed = 1;
nodes = (
(331,582,l),
(332,585,l),
(333,585,o),
(335,585,o),
(337,585,c),
(334,581,l)
);
}
);
width = 537;
}
);
note = T;
unicode = (84,116);
},
{
glyphname = U;
lastChange = "2022-12-26 01:24:38 +0000";
layers = (
{
layerId = m01;
shapes = (
{
closed = 1;
nodes = (
(553,24,l),
(558,22,o),
(562,14,o),
(567,11,c),
(571,7,o),
(576,9,o),
(581,9,c),
(581,19,o),
(580,31,o),
(580,43,c),
(581,44,l),
(583,32,o),
(583,12,o),
(590,14,c),
(591,21,o),
(591,28,o),
(592,35,c),
(586,50,l),
(590,73,l),
(576,56,l),
(574,91,o),
(571,120,o),
(564,143,cs),
(563,147,o),
(563,152,o),
(563,156,c),
(564,158,o),
(566,160,o),
(568,160,c),
(569,161,o),
(571,158,o),
(572,157,c),
(573,163,l),
(560,200,l),
(560,202,o),
(560,203,o),
(561,204,c),
(568,199,l),
(565,220,o),
(563,222,o),
(555,214,c),
(555,204,o),
(556,193,o),
(556,182,c),
(554,179,l),
(553,185,o),
(551,190,o),
(550,196,cs),
(544,249,ls),
(542,260,o),
(539,270,o),
(538,282,cs),
(536,302,o),
(535,322,o),
(534,342,c),
(526,343,o),
(521,354,o),
(520,382,cs),
(519,392,o),
(524,405,o),
(526,418,c),
(524,424,o),
(522,429,o),
(521,435,c),
(521,455,o),
(514,455,o),
(512,468,cs),
(510,487,o),
(506,490,o),
(501,481,c),
(500,480,o),
(500,483,o),
(499,484,cs),
(496,486,o),
(494,488,o),
(492,490,c),
(492,492,l),
(485,508,l),
(484,512,o),
(484,517,o),
(484,521,cs),
(484,537,o),
(480,540,o),
(477,545,cs),
(469,557,l),
(464,533,o),
(455,537,o),
(446,538,cs),
(443,538,o),
(440,530,o),
(437,526,cs),
(436,525,o),
(435,524,o),
(433,523,c),
(433,517,o),
(432,511,o),
(432,506,c),
(431,511,o),
(430,517,o),
(428,523,c),
(426,522,o),
(424,518,o),
(423,512,cs),
(422,498,o),
(420,496,o),
(417,506,cs),
(414,514,o),
(411,510,o),
(411,496,c),
(413,497,o),
(415,501,o),
(416,498,cs),
(418,491,o),
(421,484,o),
(422,477,cs),
(423,474,o),
(424,467,o),
(424,467,c),
(426,466,o),
(428,468,o),
(429,471,cs),
(430,476,o),
(430,480,o),
(430,485,c),
(431,484,o),
(431,483,o),
(431,483,c),
(431,465,l),
(433,457,o),
(434,456,o),
(435,464,cs),
(436,468,o),
(437,471,o),
(439,474,c),
(440,457,o),
(437,446,o),
(434,446,cs),
(431,446,o),
(429,443,o),
(428,428,c),
(431,423,l),
(431,406,o),
(429,395,o),
(426,393,cs),
(421,391,o),
(419,373,o),
(417,359,cs),
(415,351,o),
(414,342,o),
(413,332,c),
(417,318,o),
(414,307,o),
(414,293,c),
(417,289,l),
(416,281,o),
(416,272,o),
(416,264,cs),
(416,262,l),
(418,272,l),
(424,263,l),
(422,256,o),
(423,238,o),
(419,243,cs),
(416,246,o),
(414,227,o),
(414,213,cs),
(414,209,o),
(414,204,o),
(413,200,cs),
(412,192,o),
(410,184,o),
(407,177,cs),
(406,175,o),
(405,177,o),
(404,180,cs),
(403,185,o),
(402,190,o),
(402,195,cs),
(402,200,o),
(403,205,o),
(403,210,c),
(404,214,o),
(403,219,o),
(403,223,cs),
(403,228,o),
(403,234,o),
(404,238,cs),
(407,251,ls),
(409,258,o),
(408,266,o),
(406,273,cs),
(405,279,o),
(404,290,o),
(403,299,c),
(401,298,o),
(400,304,o),
(398,320,cs),
(397,333,o),
(395,345,o),
(394,357,cs),
(392,370,o),
(393,390,o),
(396,393,cs),
(400,397,o),
(402,403,o),
(404,408,c),
(404,417,o),
(405,426,o),
(404,435,c),
(401,439,l),
(402,443,o),
(402,447,o),
(402,452,cs),
(402,456,o),
(402,460,o),
(401,464,c),
(400,463,o),
(399,464,o),
(399,461,c),
(398,459,o),
(398,452,o),
(397,449,c),
(397,446,o),
(396,443,o),
(395,444,c),
(393,449,o),
(392,442,o),
(391,436,cs),
(390,418,o),
(388,399,o),
(386,381,cs),
(386,377,o),
(386,373,o),
(387,369,cs),
(389,353,o),
(392,338,o),
(394,323,cs),
(396,313,o),
(398,303,o),
(399,293,cs),
(400,288,o),
(400,284,o),
(400,279,cs),
(400,273,o),
(399,266,o),
(397,260,c),
(394,260,o),
(391,251,o),
(388,246,c),
(387,243,o),
(386,240,o),
(384,237,c),
(383,248,o),
(384,259,o),
(387,270,cs),
(388,275,o),
(389,280,o),
(389,284,cs),
(388,288,l),
(387,286,o),
(387,283,o),
(386,280,c),
(385,287,o),
(385,294,o),
(387,301,cs),
(388,305,o),
(388,310,o),
(388,314,c),
(387,315,o),
(386,318,o),
(386,318,c),
(382,318,o),
(379,311,o),
(376,303,cs),
(375,300,o),
(374,296,o),
(373,290,c),
(373,297,o),
(372,301,o),
(373,303,c),
(374,320,o),
(376,338,o),
(377,355,cs),
(377,357,o),
(378,359,o),
(378,362,c),
(382,364,o),
(380,374,o),
(379,384,c),
(378,381,o),
(378,379,o),
(377,378,c),
(374,366,ls),
(373,362,o),
(373,358,o),
(372,354,cs),
(371,344,o),
(369,332,o),
(365,333,cs),
(363,334,o),
(360,322,o),
(358,315,cs),
(355,307,l),
(354,306,o),
(353,307,o),
(352,308,c),
(352,324,l),
(354,332,o),
(354,341,o),
(352,349,cs),
(351,358,o),
(349,363,o),
(348,355,cs),
(346,346,o),
(345,336,o),
(344,326,cs),
(343,311,o),
(341,310,o),
(339,322,c),
(337,319,l),
(337,309,ls),
(339,291,o),
(343,275,o),
(341,255,cs),
(341,245,o),
(344,233,o),
(338,228,cs),
(333,224,o),
(330,233,o),
(328,245,cs),
(327,249,o),
(327,254,o),
(326,259,c),
(322,243,ls),
(319,230,o),
(315,231,o),
(313,246,cs),
(311,256,o),
(310,265,o),
(307,278,c),
(308,285,o),
(308,296,o),
(308,307,cs),
(308,314,o),
(309,322,o),
(308,329,c),
(307,326,o),
(306,324,o),
(305,324,c),
(303,328,o),
(301,333,o),
(300,337,cs),
(294,382,l),
(294,382,o),
(293,382,o),
(293,382,c),
(293,368,l),
(296,355,o),
(298,343,o),
(300,331,cs),
(303,309,ls),
(303,305,o),
(303,301,o),
(301,297,cs),
(300,295,o),
(298,295,o),
(297,298,cs),
(294,310,o),
(291,323,o),
(288,336,c),
(288,332,ls),
(287,326,o),
(288,317,o),
(287,309,c),
(288,307,o),
(288,306,o),
(288,304,c),
(285,298,o),
(280,292,o),
(276,287,c),
(272,284,o),
(267,287,o),
(263,287,cs),
(262,287,o),
(261,285,o),
(259,286,cs),
(256,287,o),
(252,290,o),
(249,292,c),
(248,292,o),
(247,290,o),
(246,289,cs),
(244,286,o),
(243,279,o),
(242,279,cs),
(237,280,o),
(233,282,o),
(231,263,c),
(227,272,l),
(223,278,o),
(222,284,o),
(222,291,cs),
(222,295,o),
(221,300,o),
(221,301,c),
(217,314,l),
(217,315,l),
(216,316,o),
(215,318,o),
(213,320,c),
(212,322,l),
(210,315,o),
(208,316,o),
(206,332,cs),
(205,342,o),
(201,341,o),
(200,357,cs),
(200,362,o),
(199,366,o),
(197,370,c),
(198,380,o),
(199,389,o),
(199,399,cs),
(197,422,o),
(194,429,o),
(190,430,c),
(189,446,o),
(188,462,o),
(186,477,cs),
(186,479,o),
(186,480,o),
(185,481,c),
(181,474,o),
(177,466,o),
(175,457,c),
(173,453,o),
(172,447,o),
(170,443,cs),
(168,438,o),
(165,434,o),
(163,429,cs),
(162,426,o),
(161,424,o),
(159,420,c),
(158,433,o),
(154,446,o),
(162,449,c),
(163,449,o),
(164,454,o),
(165,457,cs),
(170,478,o),
(175,499,o),
(179,520,c),
(178,531,l),
(177,528,o),
(175,525,o),
(174,523,cs),
(167,513,o),
(160,503,o),
(152,505,cs),
(151,505,o),
(149,508,o),
(147,510,c),
(150,526,l),
(154,531,o),
(156,537,o),
(156,552,c),
(154,548,o),
(152,545,o),
(150,542,c),
(149,547,l),
(150,553,o),
(152,559,o),
(155,565,cs),
(161,577,o),
(164,591,o),
(163,606,c),
(160,603,o),
(158,599,o),
(155,596,cs),
(148,589,o),
(142,578,o),
(134,578,cs),
(132,578,o),
(129,565,o),
(127,555,cs),
(126,549,o),
(127,543,o),
(127,538,cs),
(129,524,o),
(132,512,o),
(134,499,cs),
(144,441,ls),
(145,436,o),
(145,431,o),
(144,426,cs),
(139,402,o),
(134,379,o),
(128,357,cs),
(126,348,o),
(124,340,o),
(119,347,cs),
(118,349,o),
(116,344,o),
(115,341,cs),
(113,336,o),
(113,329,o),
(111,325,cs),
(109,322,o),
(107,323,o),
(105,323,c),
(105,328,o),
(105,333,o),
(105,337,c),
(108,354,l),
(102,359,l),
(103,372,o),
(104,388,o),
(107,393,cs),
(110,400,o),
(116,407,o),
(123,411,cs),
(129,415,o),
(134,439,o),
(132,456,cs),
(130,471,o),
(128,487,o),
(127,503,cs),
(126,524,o),
(123,532,o),
(118,530,c),
(118,542,o),
(117,553,o),
(115,564,cs),
(112,573,o),
(112,583,o),
(116,592,cs),
(119,597,o),
(122,601,o),
(124,607,c),
(127,627,l),
(127,632,o),
(127,638,o),
(128,643,cs),
(130,649,o),
(131,655,o),
(132,661,cs),
(132,668,o),
(132,674,o),
(130,681,cs),
(129,685,o),
(125,687,o),
(124,685,cs),
(118,676,o),
(113,666,o),
(109,656,cs),
(107,651,o),
(106,645,o),
(105,640,c),
(105,622,o),
(99,598,o),
(94,603,cs),
(85,610,o),
(85,587,o),
(81,578,c),
(91,565,l),
(96,579,l),
(97,576,l),
(96,565,o),
(94,555,o),
(93,544,c),
(98,539,l),
(96,521,o),
(88,508,o),
(95,490,c),
(91,478,o),
(89,466,o),
(85,456,cs),
(78,439,o),
(73,417,o),
(63,414,cs),
(56,412,o),
(52,399,o),
(50,377,c),
(56,371,l),
(52,352,o),
(47,348,o),
(42,348,cs),
(34,349,o),
(28,336,o),
(28,314,c),
(31,318,o),
(34,319,o),
(37,326,cs),
(40,336,o),
(42,334,o),
(45,325,c),
(42,302,l),
(44,299,l),
(45,305,o),
(47,311,o),
(49,316,cs),
(51,320,o),
(54,322,o),
(58,322,c),
(59,321,o),
(60,312,o),
(61,309,cs),
(64,299,o),
(68,290,o),
(72,281,c),
(75,277,o),
(78,282,o),
(81,283,c),
(80,265,o),
(75,261,o),
(70,271,cs),
(63,284,o),
(61,281,o),
(55,265,cs),
(53,257,o),
(49,252,o),
(45,251,cs),
(44,251,o),
(42,264,o),
(39,273,c),
(31,227,l),
(34,222,o),
(35,216,o),
(36,210,c),
(36,200,o),
(35,191,o),
(34,181,c),
(43,170,o),
(43,170,o),
(41,144,c),
(30,147,l),
(27,122,l),
(25,124,l),
(26,128,o),
(26,132,o),
(26,136,cs),
(25,143,o),
(23,150,o),
(21,157,c),
(21,159,o),
(18,158,o),
(17,156,c),
(15,148,o),
(15,140,o),
(18,132,c),
(18,128,o),
(19,124,o),
(18,119,c),
(21,101,l),
(29,115,o),
(36,130,o),
(44,131,cs),
(52,132,o),
(65,161,o),
(67,185,c),
(71,177,o),
(75,169,o),
(79,161,c),
(81,181,l),
(83,178,o),
(85,175,o),
(87,173,cs),
(91,170,o),
(95,167,o),
(98,169,cs),
(105,173,o),
(112,179,o),
(118,185,c),
(121,160,o),
(124,158,o),
(132,170,cs),
(140,182,o),
(143,181,o),
(149,162,cs),
(151,156,o),
(152,151,o),
(152,146,c),
(156,150,o),
(161,158,o),
(163,154,cs),
(170,142,o),
(177,135,o),
(185,136,cs),
(188,136,o),
(192,131,o),
(195,132,cs),
(205,134,o),
(214,136,o),
(221,114,c),
(223,111,o),
(225,111,o),
(226,109,c),
(232,105,o),
(240,112,o),
(242,84,cs),
(242,82,o),
(246,79,o),
(247,81,cs),
(250,88,o),
(253,87,o),
(257,81,c),
(259,76,o),
(262,72,o),
(266,69,cs),
(268,68,o),
(272,69,o),
(273,74,cs),
(276,83,o),
(278,87,o),
(282,81,c),
(283,78,o),
(285,81,o),
(287,82,c),
(289,82,o),
(290,83,o),
(292,82,c),
(302,73,o),
(313,61,o),
(323,80,cs),
(324,82,o),
(326,80,o),
(327,79,cs),
(335,74,o),
(338,79,o),
(341,101,c),
(342,104,o),
(344,107,o),
(347,108,c),
(350,110,o),
(354,108,o),
(356,111,cs),
(362,118,o),
(363,118,o),
(364,98,cs),
(365,92,o),
(366,85,o),
(367,75,c),
(368,89,o),
(369,97,o),
(369,104,c),
(382,76,l),
(380,63,o),
(379,45,o),
(377,24,c),
(378,26,o),
(379,28,o),
(380,31,cs),
(392,63,l),
(393,64,o),
(394,64,o),
(394,64,c),
(395,64,o),
(396,64,o),
(396,63,cs),
(400,48,o),
(402,58,o),
(404,67,cs),
(406,75,o),
(407,86,o),
(409,95,cs),
(410,98,o),
(411,101,o),
(413,103,c),
(413,99,o),
(414,95,o),
(414,90,cs),
(415,74,o),
(415,59,o),
(423,64,cs),
(424,65,o),
(425,60,o),
(427,58,c),
(428,55,o),
(430,53,o),
(431,50,c),
(431,54,o),
(431,58,o),
(430,62,c),
(430,68,o),
(429,75,o),
(430,81,cs),
(432,91,o),
(434,86,o),
(436,79,cs),
(437,76,o),
(439,72,o),
(441,69,cs),
(446,63,o),
(448,69,o),
(447,85,cs),
(444,114,l),
(453,100,o),
(463,91,o),
(461,46,c),
(464,50,o),
(466,54,o),
(467,59,cs),
(470,81,o),
(467,104,o),
(460,125,c),
(463,122,o),
(465,116,o),
(468,114,cs),
(471,111,o),
(475,110,o),
(479,111,cs),
(482,112,o),
(485,117,o),
(488,117,cs),
(492,117,o),
(495,113,o),
(498,111,cs),
(508,104,o),
(510,85,o),
(505,61,cs),
(503,53,o),
(501,44,o),
(500,36,c),
(562,-5,l)
);
},
{
closed = 1;
nodes = (
(307,345,ls),
(306,350,o),
(305,354,o),
(303,359,c),
(303,350,o),
(304,339,o),
(307,340,c)
);
},
{
closed = 1;
nodes = (
(286,370,o),
(287,371,o),
(289,373,c),
(289,374,o),
(290,374,o),
(292,374,c),
(289,387,l),
(283,379,l),
(284,374,o),
(285,371,o),
(286,368,c)
);
},
{
closed = 1;
nodes = (
(297,392,o),
(296,394,o),
(295,396,c),
(296,394,o),
(296,392,o),
(297,390,c)
);
},
{
closed = 1;
nodes = (
(307,449,o),
(308,455,o),
(308,461,c),
(305,475,l),
(305,477,o),
(304,477,o),
(303,476,c),
(303,474,ls),
(303,469,o),
(304,463,o),
(304,457,c),
(305,454,o),
(305,451,o),
(305,449,c),
(306,447,o),
(306,445,o),
(306,443,c)
);
}
);
width = 665;
}
);
note = U;
unicode = (85,117,217,218,219,220,249,250,251,252);
},
{
glyphname = V;
lastChange = "2022-12-26 01:24:39 +0000";
layers = (
{
layerId = m01;
shapes = (
{
closed = 1;
nodes = (
(551,40,o),
(555,44,o),
(558,50,c),
(560,61,ls),
(564,80,o),
(570,100,o),
(572,119,cs),
(574,135,o),
(572,149,o),
(573,164,cs),
(574,179,o),
(576,194,o),
(577,208,cs),
(578,216,o),
(576,224,o),
(576,231,cs),
(577,241,o),
(578,251,o),
(578,261,c),
(572,293,l),
(568,301,o),
(567,311,o),
(570,320,cs),
(573,332,o),
(575,346,o),
(578,358,cs),
(579,362,o),
(581,366,o),
(585,369,c),
(590,371,o),
(591,378,o),
(592,387,cs),
(598,418,o),
(604,447,o),
(621,459,cs),
(637,470,o),
(652,488,o),
(667,503,cs),
(673,508,o),
(678,511,o),
(684,515,c),
(710,538,ls),
(723,549,o),
(736,560,o),
(749,572,cs),
(757,579,o),
(764,587,o),
(770,595,cs),
(774,602,o),
(774,603,o),
(778,597,c),
(783,612,o),
(782,613,o),
(773,626,c),
(765,612,o),
(755,609,o),
(745,617,cs),
(742,619,o),
(739,620,o),
(735,620,cs),
(722,621,o),
(708,622,o),
(694,624,cs),
(685,625,o),
(676,629,o),
(667,628,cs),
(649,627,o),
(632,624,o),
(615,619,cs),
(606,617,o),
(598,609,o),
(590,605,cs),
(584,601,o),
(577,604,o),
(572,592,cs),
(569,585,l),
(564,555,o),
(560,525,o),
(555,496,cs),
(550,465,o),
(544,436,o),
(538,406,cs),
(537,401,o),
(537,396,o),
(537,391,cs),
(538,378,o),
(535,365,o),
(527,354,cs),
(525,351,o),
(522,352,o),
(519,353,cs),
(515,354,o),
(511,358,o),
(507,359,c),
(498,359,o),
(489,359,o),
(480,360,cs),
(466,362,o),
(455,371,o),
(449,383,cs),
(447,387,o),
(445,390,o),
(443,390,cs),
(430,388,o),
(421,397,o),
(411,414,cs),
(401,430,o),
(389,444,o),
(377,457,cs),
(373,461,o),
(368,464,o),
(364,466,c),
(361,469,o),
(358,472,o),
(355,475,cs),
(342,491,ls),
(331,503,o),
(320,515,o),
(308,526,cs),
(301,533,o),
(293,539,o),
(286,545,c),
(286,546,o),
(285,546,o),
(285,546,c),
(277,576,o),
(261,573,o),
(249,583,cs),
(234,595,o),
(217,605,o),
(199,612,cs),
(163,629,o),
(125,628,o),
(88,619,cs),
(75,615,o),
(62,603,o),
(51,585,c),
(45,570,l),
(60,564,o),
(75,559,o),
(89,553,cs),
(98,548,o),
(106,543,o),
(114,537,cs),
(121,533,o),
(128,530,o),
(134,525,cs),
(170,500,ls),
(183,491,o),
(196,485,o),
(209,475,cs),
(224,464,o),
(238,449,o),
(253,436,cs),
(262,427,o),
(272,417,o),
(282,409,cs),
(290,403,o),
(298,399,o),
(306,395,c),
(303,391,o),
(301,388,o),
(298,385,c),
(298,381,l),
(313,384,o),
(327,397,o),
(343,387,c),
(337,372,o),
(331,360,o),
(325,345,c),
(328,344,o),
(331,342,o),
(334,342,cs),
(339,341,o),
(344,341,o),
(350,342,cs),
(356,342,o),
(362,339,o),
(365,332,cs),
(377,311,o),
(390,291,o),
(403,271,cs),
(417,249,o),
(432,227,o),
(447,205,cs),
(453,196,o),
(458,186,o),
(464,177,cs),
(474,160,o),
(484,142,o),
(495,125,cs),
(508,104,o),
(522,82,o),
(535,60,cs),
(539,53,o),
(543,44,o),
(548,35,c)
);
}
);
width = 723;
}
);
note = V;
unicode = (86,118);
},
{
glyphname = W;
lastChange = "2022-12-26 01:24:41 +0000";
layers = (
{
layerId = m01;
shapes = (
{
closed = 1;
nodes = (
(355,48,l),
(355,50,o),
(355,52,o),
(354,54,c),
(376,50,l),
(368,71,o),
(381,73,o),
(394,75,c),
(392,101,o),
(394,107,o),
(413,116,c),
(418,117,o),
(422,121,o),
(425,125,c),
(434,145,o),
(442,166,o),
(450,186,cs),
(459,208,o),
(469,229,o),
(477,251,cs),
(483,269,o),
(492,285,o),
(504,300,c),
(505,280,o),
(507,260,o),
(512,241,cs),
(521,201,o),
(533,163,o),
(546,125,cs),
(552,110,o),
(561,96,o),
(572,84,c),
(572,84,o),
(572,83,o),
(571,82,c),
(574,83,l),
(576,80,o),
(579,77,o),
(581,75,cs),
(586,70,o),
(592,81,o),
(597,86,c),
(674,96,l),
(720,164,o),
(764,231,o),
(810,299,c),
(799,309,o),
(790,313,o),
(790,318,cs),
(790,335,o),
(792,368,o),
(795,369,cs),
(803,371,o),
(809,376,o),
(813,383,cs),
(816,391,o),
(816,399,o),
(813,407,c),
(798,427,o),
(812,451,o),
(814,474,cs),
(817,499,o),
(816,523,o),
(820,547,cs),
(826,573,o),
(836,598,o),
(845,626,c),
(817,626,o),
(793,617,o),
(780,586,cs),
(763,545,o),
(748,503,o),
(730,458,c),
(781,472,o),
(756,437,o),
(760,417,c),
(709,423,o),
(704,417,o),
(692,362,cs),
(685,331,o),
(676,300,o),
(664,271,cs),
(652,244,o),
(636,218,o),
(621,192,c),
(607,208,o),
(594,232,o),
(582,254,cs),
(564,283,o),
(549,327,o),
(532,358,cs),
(530,361,o),
(528,363,o),
(524,364,c),
(522,373,o),
(525,382,o),
(533,388,c),
(533,388,o),
(532,389,o),
(532,390,c),
(514,397,o),
(500,394,o),
(492,374,cs),
(491,371,o),
(486,369,o),
(482,368,cs),
(454,362,o),
(451,359,o),
(447,334,cs),
(447,333,o),
(445,331,o),
(445,330,cs),
(444,317,o),
(441,304,o),
(444,291,cs),
(449,268,o),
(443,251,o),
(424,238,cs),
(417,234,o),
(414,227,o),
(414,220,cs),
(412,201,o),
(412,178,o),
(384,177,cs),
(381,177,o),
(379,171,o),
(378,168,cs),
(369,144,o),
(360,120,o),
(340,105,cs),
(337,103,o),
(334,102,o),
(330,100,c),
(329,105,o),
(329,110,o),
(330,115,cs),
(334,130,o),
(327,139,o),
(318,148,cs),
(311,156,o),
(304,165,o),
(296,175,c),
(323,185,o),
(324,186,o),
(325,200,cs),
(327,226,o),
(329,252,o),
(329,278,cs),
(329,285,o),
(326,291,o),
(323,296,cs),
(319,302,o),
(315,308,o),
(310,313,cs),
(294,331,o),
(283,354,o),
(257,361,cs),
(252,363,o),
(248,367,o),
(245,371,cs),
(235,383,o),
(226,396,o),
(215,407,c),
(210,410,o),
(205,413,o),
(200,414,c),
(197,397,o),
(199,381,o),
(177,375,c),
(177,403,l),
(178,410,o),
(177,417,o),
(176,423,c),
(142,489,ls),
(134,503,o),
(126,515,o),
(118,529,cs),
(107,549,o),
(86,566,o),
(87,593,cs),
(87,606,o),
(85,619,o),
(81,631,cs),
(79,636,o),
(75,639,o),
(70,640,c),
(68,641,o),
(63,635,o),
(61,631,cs),
(60,628,o),
(60,624,o),
(61,620,c),
(62,591,o),
(73,564,o),
(84,536,cs),
(96,506,o),
(114,480,o),
(130,453,cs),
(140,436,o),
(148,419,o),
(156,402,cs),
(162,390,o),
(164,376,o),
(171,365,cs),
(192,331,o),
(218,299,o),
(230,259,c),
(235,247,o),
(241,235,o),
(248,224,c),
(257,250,o),
(263,274,o),
(288,284,c),
(291,288,o),
(295,290,o),
(300,289,cs),
(304,288,o),
(308,285,o),
(309,280,cs),
(309,275,o),
(307,271,o),
(303,268,c),
(298,258,o),
(292,248,o),
(285,238,cs),
(278,226,o),
(269,216,o),
(260,203,c),
(262,201,o),
(264,198,o),
(264,195,cs),
(268,163,o),
(286,140,o),
(307,117,cs),
(313,111,o),
(319,103,o),
(324,96,c),
(324,96,o),
(324,95,o),
(323,95,c),
(319,93,o),
(315,90,o),
(312,87,c),
(314,82,l),
(317,83,o),
(321,84,o),
(325,84,cs),
(328,84,l),
(329,81,o),
(329,79,o),
(329,76,cs),
(329,66,o),
(341,55,o),
(348,45,c)
);
},
{
closed = 1;
nodes = (
(352,73,o),
(352,75,o),
(352,78,c),
(354,76,o),
(354,73,o),
(353,71,c)
);
}
);
width = 839;
}
);
note = W;
unicode = (87,119);
},
